<?xml version="1.0" encoding="utf-8"?>
<!-- Generator: Adobe Illustrator 24.1.3, SVG Export Plug-In . SVG Version: 6.00 Build 0)  -->
<svg version="1.1" id="Layer_1" xmlns="http://www.w3.org/2000/svg" xmlns:xlink="http://www.w3.org/1999/xlink" x="0px" y="0px"
	 viewBox="0 0 24 24" style="enable-background:new 0 0 24 24;" xml:space="preserve">
<style type="text/css">
	.st0{fill:#374151;}
</style>
<g>
	<path class="st0" d="M12,21.1c-0.2,0-0.5-0.1-0.7-0.3c-0.7-0.6-1.5-1.2-2.3-1.6V20c0,0.6-0.4,1-1,1s-1-0.4-1-1v-1.6
		c-0.6-0.2-1.3-0.3-1.9-0.4c-0.4,0-0.8-0.4-0.9-0.8C4.1,16.5,4,15.7,4,15c0-1.4,0.2-2.7,0.6-4L2.5,9.9C2.2,9.7,2,9.4,2,9
		s0.2-0.7,0.5-0.9l9-5c0.3-0.2,0.7-0.2,1,0l9,5C21.8,8.3,22,8.6,22,9s-0.2,0.7-0.5,0.9L19.4,11c0.4,1.3,0.6,2.6,0.6,4
		c0,0.7-0.1,1.5-0.2,2.2c-0.1,0.4-0.4,0.8-0.9,0.8c-2.3,0.2-4.5,1.2-6.3,2.7C12.5,21,12.2,21.1,12,21.1z M9,17c1.1,0.4,2.1,1,3,1.8
		c1.7-1.4,3.8-2.2,5.9-2.6c0-0.4,0.1-0.8,0.1-1.2c0-1-0.1-2-0.4-3l-5.1,2.8c-0.3,0.2-0.7,0.2-1,0L9,13.5V17z M6.1,16.2
		c0.3,0,0.6,0.1,0.9,0.2v-3.8v-0.1L6.4,12C6.1,13,6,14,6,15C6,15.4,6,15.8,6.1,16.2z M10.7,12.1l1.3,0.7l5.7-3.2l0,0L18.9,9L12,5.1
		L5.1,9l1.3,0.7l0,0L8.6,11l2.9-1.6c0.5-0.3,1.1-0.1,1.4,0.4c0.3,0.5,0.1,1.1-0.4,1.4L10.7,12.1z"/>
</g>
</svg>
