<?xml version="1.0" encoding="utf-8"?>
<!-- Generator: Adobe Illustrator 24.1.3, SVG Export Plug-In . SVG Version: 6.00 Build 0)  -->
<svg version="1.1" id="Layer_1" xmlns="http://www.w3.org/2000/svg" xmlns:xlink="http://www.w3.org/1999/xlink" x="0px" y="0px"
	 viewBox="0 0 24 24" style="enable-background:new 0 0 24 24;" xml:space="preserve">
<style type="text/css">
	.st0{fill:#4A5568;}
</style>
<g>
	<path class="st0" d="M18,21c-0.6,0-1-0.4-1-1v-1.2c-1.2-0.4-2-1.5-2-2.8s0.8-2.4,2-2.8V4c0-0.6,0.4-1,1-1s1,0.4,1,1v9.2
		c1.2,0.4,2,1.5,2,2.8s-0.8,2.4-2,2.8V20C19,20.6,18.6,21,18,21z M18,17c0.6,0,1-0.4,1-1s-0.4-1-1-1s-1,0.4-1,1S17.4,17,18,17z
		 M12,21c-0.6,0-1-0.4-1-1v-9.2C9.8,10.4,9,9.3,9,8s0.8-2.4,2-2.8V4c0-0.6,0.4-1,1-1s1,0.4,1,1v1.2c1.2,0.4,2,1.5,2,2.8
		s-0.8,2.4-2,2.8V20C13,20.6,12.6,21,12,21z M12,7c-0.6,0-1,0.4-1,1s0.4,1,1,1s1-0.4,1-1S12.6,7,12,7z M6,21c-0.6,0-1-0.4-1-1v-1.2
		c-1.2-0.4-2-1.5-2-2.8s0.8-2.4,2-2.8V4c0-0.6,0.4-1,1-1s1,0.4,1,1v9.2c1.2,0.4,2,1.5,2,2.8s-0.8,2.4-2,2.8V20C7,20.6,6.6,21,6,21z
		 M6,17c0.6,0,1-0.4,1-1s-0.4-1-1-1s-1,0.4-1,1S5.4,17,6,17z"/>
</g>
</svg>
