<?xml version="1.0" encoding="utf-8"?>
<!-- Generator: Adobe Illustrator 24.1.3, SVG Export Plug-In . SVG Version: 6.00 Build 0)  -->
<svg version="1.1" id="Layer_1" xmlns="http://www.w3.org/2000/svg" xmlns:xlink="http://www.w3.org/1999/xlink" x="0px" y="0px"
	 viewBox="0 0 24 24" style="enable-background:new 0 0 24 24;" xml:space="preserve">
<style type="text/css">
	.st0{fill:#4A5568;}
</style>
<g>
	<path class="st0" d="M12,21c-0.3,0-0.5-0.1-0.7-0.3L7.6,17H5c-1.7,0-3-1.3-3-3V6c0-1.7,1.3-3,3-3h14c1.7,0,3,1.3,3,3v8
		c0,1.7-1.3,3-3,3h-2.6l-3.7,3.7C12.5,20.9,12.3,21,12,21z M5,5C4.4,5,4,5.4,4,6v8c0,0.6,0.4,1,1,1h3c0.3,0,0.5,0.1,0.7,0.3l3.3,3.3
		l3.3-3.3c0.2-0.2,0.4-0.3,0.7-0.3h3c0.6,0,1-0.4,1-1V6c0-0.6-0.4-1-1-1H5z M11,13H7c-0.6,0-1-0.4-1-1s0.4-1,1-1h4c0.6,0,1,0.4,1,1
		S11.6,13,11,13z M17,9H7C6.4,9,6,8.6,6,8s0.4-1,1-1h10c0.6,0,1,0.4,1,1S17.6,9,17,9z"/>
</g>
</svg>
