<?xml version="1.0" encoding="utf-8"?>
<!-- Generator: Adobe Illustrator 24.1.3, SVG Export Plug-In . SVG Version: 6.00 Build 0)  -->
<svg version="1.1" id="Layer_1" xmlns="http://www.w3.org/2000/svg" xmlns:xlink="http://www.w3.org/1999/xlink" x="0px" y="0px"
	 viewBox="0 0 20 20" style="enable-background:new 0 0 20 20;" xml:space="preserve">
<style type="text/css">
	.st0{fill:#4A5568;}
	.st1{fill-rule:evenodd;clip-rule:evenodd;fill:#4A5568;}
</style>
<path class="st0" d="M4,3C2.9,3,2,3.9,2,5s0.9,2,2,2h12c1.1,0,2-0.9,2-2s-0.9-2-2-2H4z"/>
<path class="st1" d="M3,8h14v7c0,1.1-0.9,2-2,2H5c-1.1,0-2-0.9-2-2V8z M8,11c0-0.6,0.4-1,1-1h2c0.6,0,1,0.4,1,1s-0.4,1-1,1H9
	C8.4,12,8,11.6,8,11z"/>
</svg>
