<?xml version="1.0" encoding="utf-8"?>
<!-- Generator: Adobe Illustrator 24.1.3, SVG Export Plug-In . SVG Version: 6.00 Build 0)  -->
<svg version="1.1" id="Layer_1" xmlns="http://www.w3.org/2000/svg" xmlns:xlink="http://www.w3.org/1999/xlink" x="0px" y="0px"
	 viewBox="0 0 19 20" style="enable-background:new 0 0 19 20;" xml:space="preserve">
<style type="text/css">
	.st0{fill:#374151;}
</style>
<g>
	<path class="st0" d="M15,17h-4c-0.6,0-1-0.4-1-1s0.4-1,1-1h1.6l-2.3-2.3c-0.4-0.4-0.4-1,0-1.4s1-0.4,1.4,0l2.3,2.3V12
		c0-0.6,0.4-1,1-1s1,0.4,1,1v4c0,0,0,0,0,0l0,0c0,0.1,0,0.3-0.1,0.4c0,0.1-0.1,0.2-0.2,0.3s-0.2,0.2-0.3,0.2C15.3,17,15.1,17,15,17
		L15,17C15,17,15,17,15,17z M7,17H3c0,0,0,0,0,0l0,0c-0.1,0-0.3,0-0.4-0.1c-0.1,0-0.2-0.1-0.3-0.2s-0.2-0.2-0.2-0.3
		C2,16.3,2,16.1,2,16l0,0c0,0,0,0,0,0v-4c0-0.6,0.4-1,1-1s1,0.4,1,1v1.6l2.3-2.3c0.4-0.4,1-0.4,1.4,0s0.4,1,0,1.4L5.4,15H7
		c0.6,0,1,0.4,1,1S7.6,17,7,17z M15,9c-0.6,0-1-0.4-1-1V6.4l-2.3,2.3c-0.4,0.4-1,0.4-1.4,0s-0.4-1,0-1.4L12.6,5H11c-0.6,0-1-0.4-1-1
		s0.4-1,1-1h4c0,0,0,0,0,0l0,0c0.1,0,0.3,0,0.4,0.1c0.1,0,0.2,0.1,0.3,0.2s0.2,0.2,0.2,0.3C16,3.7,16,3.9,16,4l0,0c0,0,0,0,0,0v4
		C16,8.6,15.6,9,15,9z M7,9C6.7,9,6.5,8.9,6.3,8.7L4,6.4V8c0,0.6-0.4,1-1,1S2,8.6,2,8V4c0,0,0,0,0,0l0,0c0-0.1,0-0.3,0.1-0.4
		c0-0.1,0.1-0.2,0.2-0.3s0.2-0.2,0.3-0.2C2.7,3,2.9,3,3,3l0,0c0,0,0,0,0,0h4c0.6,0,1,0.4,1,1S7.6,5,7,5H5.4l2.3,2.3
		c0.4,0.4,0.4,1,0,1.4C7.5,8.9,7.3,9,7,9z"/>
</g>
</svg>
