<?xml version="1.0" encoding="utf-8"?>
<!-- Generator: Adobe Illustrator 24.1.3, SVG Export Plug-In . SVG Version: 6.00 Build 0)  -->
<svg version="1.1" id="Layer_1" xmlns="http://www.w3.org/2000/svg" xmlns:xlink="http://www.w3.org/1999/xlink" x="0px" y="0px"
	 viewBox="0 0 20 20" style="enable-background:new 0 0 20 20;" xml:space="preserve">
<style type="text/css">
	.st0{fill-rule:evenodd;clip-rule:evenodd;fill:#4A5568;}
</style>
<path class="st0" d="M10,18c4.4,0,8-3.6,8-8c0-4.4-3.6-8-8-8c-4.4,0-8,3.6-8,8C2,14.4,5.6,18,10,18z M13.7,9.3l-3-3
	c-0.4-0.4-1-0.4-1.4,0c-0.4,0.4-0.4,1,0,1.4L10.6,9H7c-0.6,0-1,0.4-1,1c0,0.6,0.4,1,1,1h3.6l-1.3,1.3c-0.4,0.4-0.4,1,0,1.4
	c0.4,0.4,1,0.4,1.4,0l3-3C14.1,10.3,14.1,9.7,13.7,9.3z"/>
</svg>
