<?xml version="1.0" encoding="utf-8"?>
<!-- Generator: Adobe Illustrator 24.1.3, SVG Export Plug-In . SVG Version: 6.00 Build 0)  -->
<svg version="1.1" id="Layer_1" xmlns="http://www.w3.org/2000/svg" xmlns:xlink="http://www.w3.org/1999/xlink" x="0px" y="0px"
	 viewBox="0 0 20 20" style="enable-background:new 0 0 20 20;" xml:space="preserve">
<style type="text/css">
	.st0{fill-rule:evenodd;clip-rule:evenodd;fill:#4A5568;}
</style>
<path class="st0" d="M14.2,5.8c-2.3-2.3-6.1-2.3-8.5,0s-2.3,6.1,0,8.5c2,2,5.2,2.3,7.5,0.8c0.5-0.3,1.1-0.2,1.4,0.3
	c0.3,0.5,0.2,1.1-0.3,1.4c-3.1,2-7.3,1.7-10-1.1c-3.1-3.1-3.1-8.2,0-11.3c3.1-3.1,8.2-3.1,11.3,0C17.2,5.9,18,8,18,10
	c0,1.7-1.3,3-3,3c-0.7,0-1.3-0.2-1.8-0.6c-0.7,1-1.9,1.6-3.2,1.6c-2.2,0-4-1.8-4-4c0-2.2,1.8-4,4-4c2.2,0,4,1.8,4,4c0,0.6,0.4,1,1,1
	s1-0.4,1-1C16,8.5,15.4,6.9,14.2,5.8z M12,10c0-1.1-0.9-2-2-2c-1.1,0-2,0.9-2,2c0,1.1,0.9,2,2,2C11.1,12,12,11.1,12,10z"/>
</svg>
