<?xml version="1.0" encoding="utf-8"?>
<!-- Generator: Adobe Illustrator 24.1.3, SVG Export Plug-In . SVG Version: 6.00 Build 0)  -->
<svg version="1.1" id="Layer_1" xmlns="http://www.w3.org/2000/svg" xmlns:xlink="http://www.w3.org/1999/xlink" x="0px" y="0px"
	 viewBox="0 0 24 24" style="enable-background:new 0 0 24 24;" xml:space="preserve">
<style type="text/css">
	.st0{fill:#374151;}
</style>
<g>
	<path class="st0" d="M19,20h-8.2c-0.8,0-1.6-0.3-2.1-0.9l-6.4-6.4c-0.4-0.4-0.4-1,0-1.4l6.4-6.4C9.3,4.3,10,4,10.8,4H19
		c1.7,0,3,1.3,3,3v10C22,18.7,20.7,20,19,20z M4.4,12l5.7,5.7c0.2,0.2,0.4,0.3,0.7,0.3H19c0.6,0,1-0.4,1-1V7c0-0.6-0.4-1-1-1h-8.2
		c-0.3,0-0.5,0.1-0.7,0.3L4.4,12z M16,15c-0.3,0-0.5-0.1-0.7-0.3L14,13.4l-1.3,1.3c-0.4,0.4-1,0.4-1.4,0s-0.4-1,0-1.4l1.3-1.3
		l-1.3-1.3c-0.4-0.4-0.4-1,0-1.4s1-0.4,1.4,0l1.3,1.3l1.3-1.3c0.4-0.4,1-0.4,1.4,0s0.4,1,0,1.4L15.4,12l1.3,1.3c0.4,0.4,0.4,1,0,1.4
		C16.5,14.9,16.3,15,16,15z"/>
</g>
</svg>
