<?xml version="1.0" encoding="utf-8"?>
<!-- Generator: Adobe Illustrator 24.1.3, SVG Export Plug-In . SVG Version: 6.00 Build 0)  -->
<svg version="1.1" id="Layer_1" xmlns="http://www.w3.org/2000/svg" xmlns:xlink="http://www.w3.org/1999/xlink" x="0px" y="0px"
	 viewBox="0 0 24 24" style="enable-background:new 0 0 24 24;" xml:space="preserve">
<style type="text/css">
	.st0{fill:#4A5568;}
</style>
<g>
	<path class="st0" d="M12,22c-2.6,0-5.1-1-7.1-2.9C3,17.2,2,14.7,2,12c0-2.7,1-5.2,2.9-7.1l0,0l0,0l0,0C6.8,3,9.3,2,12,2
		c2.7,0,5.2,1,7.1,2.9c3.9,3.9,3.9,10.2,0,14.1C17.1,21,14.6,22,12,22z M5.7,7.1C4.6,8.5,4,10.2,4,12c0,2.1,0.8,4.1,2.3,5.7
		c2.9,2.9,7.4,3.1,10.6,0.7L5.7,7.1z M7.1,5.7l11.2,11.2c2.4-3.1,2.2-7.7-0.7-10.6C16.1,4.8,14.1,4,12,4C10.2,4,8.5,4.6,7.1,5.7z"/>
</g>
</svg>
