<?xml version="1.0" encoding="utf-8"?>
<!-- Generator: Adobe Illustrator 24.1.3, SVG Export Plug-In . SVG Version: 6.00 Build 0)  -->
<svg version="1.1" id="Layer_1" xmlns="http://www.w3.org/2000/svg" xmlns:xlink="http://www.w3.org/1999/xlink" x="0px" y="0px"
	 viewBox="0 0 24 24" style="enable-background:new 0 0 24 24;" xml:space="preserve">
<style type="text/css">
	.st0{fill:#374151;}
</style>
<g>
	<path class="st0" d="M19.2,21H4.8c-1.2,0-2.3-0.7-2.8-1.9c-0.5-1.1-0.2-2.4,0.7-3.3l5-5C7.9,10.7,8,10.4,8,10.2V5.4L7.3,4.7
		C7,4.4,6.9,4,7.1,3.6C7.2,3.2,7.6,3,8,3h8c0.4,0,0.8,0.2,0.9,0.6C17.1,4,17,4.4,16.7,4.7L16,5.4v4.8c0,0.3,0.1,0.5,0.3,0.7l3.8,3.8
		c0,0,0,0,0,0l1.2,1.2c0.9,0.9,1.1,2.1,0.7,3.3C21.5,20.3,20.4,21,19.2,21z M5,16.5l-0.8,0.8c-0.4,0.4-0.3,0.9-0.2,1.1
		S4.2,19,4.8,19h14.3c0.6,0,0.9-0.5,0.9-0.6c0.1-0.1,0.2-0.7-0.2-1.1l-1.2-1.2c-0.1-0.1-0.3-0.2-0.5-0.3l-2.4-0.5
		c-1.1-0.2-2.2-0.1-3.2,0.4L12.3,16c-1.4,0.7-3,0.9-4.5,0.6l-1.9-0.4C5.5,16.1,5.2,16.2,5,16.5z M7,14.4l1.1,0.2
		c1.1,0.2,2.2,0.1,3.2-0.4l0.3-0.2c1.3-0.7,2.8-0.9,4.3-0.6l-1.1-1.1C14.3,11.7,14,11,14,10.2V5h-4v5.2c0,0.8-0.3,1.6-0.9,2.1
		L7,14.4z"/>
</g>
</svg>
