<?xml version="1.0" encoding="utf-8"?>
<!-- Generator: Adobe Illustrator 24.1.3, SVG Export Plug-In . SVG Version: 6.00 Build 0)  -->
<svg version="1.1" id="Layer_1" xmlns="http://www.w3.org/2000/svg" xmlns:xlink="http://www.w3.org/1999/xlink" x="0px" y="0px"
	 viewBox="0 0 24 24" style="enable-background:new 0 0 24 24;" xml:space="preserve">
<style type="text/css">
	.st0{fill:#4A5568;}
</style>
<g>
	<path class="st0" d="M12,22c-2.2,0-4-1.8-4-4H4c-0.4,0-0.8-0.2-0.9-0.6S3,16.6,3.3,16.3l1.4-1.4C4.9,14.7,5,14.4,5,14.2V11
		c0-2.7,1.6-5.2,4-6.3C9.2,3.2,10.5,2,12,2s2.8,1.2,3,2.7c2.4,1.1,4,3.6,4,6.3v3.2c0,0.3,0.1,0.5,0.3,0.7l1.4,1.4
		c0.3,0.3,0.4,0.7,0.2,1.1C20.8,17.8,20.4,18,20,18h-4C16,20.2,14.2,22,12,22z M10,18c0,1.1,0.9,2,2,2c1.1,0,2-0.9,2-2H10z M15,16
		h2.6c-0.4-0.5-0.6-1.2-0.6-1.8V11c0-2.1-1.3-4-3.3-4.7C13.3,6.1,13,5.8,13,5.3V5c0-0.6-0.4-1-1-1s-1,0.4-1,1v0.3
		c0,0.4-0.3,0.8-0.7,0.9C8.3,7,7,8.9,7,11v3.2c0,0.7-0.2,1.3-0.6,1.8H15z"/>
</g>
</svg>
