<?xml version="1.0" encoding="utf-8"?>
<!-- Generator: Adobe Illustrator 24.1.3, SVG Export Plug-In . SVG Version: 6.00 Build 0)  -->
<svg version="1.1" id="Layer_1" xmlns="http://www.w3.org/2000/svg" xmlns:xlink="http://www.w3.org/1999/xlink" x="0px" y="0px"
	 viewBox="0 0 24 24" style="enable-background:new 0 0 24 24;" xml:space="preserve">
<style type="text/css">
	.st0{fill:#4A5568;}
</style>
<g>
	<path class="st0" d="M12,20.3C12,20.3,12,20.3,12,20.3c-0.1,0-0.2,0-0.3,0c-0.1,0-0.1,0-0.2-0.1c0,0-0.1,0-0.1-0.1
		C10.4,19.4,9,19,7.5,19c-1.5,0-2.9,0.4-3.9,1.1c-0.3,0.2-0.7,0.2-1,0C2.2,20,2,19.6,2,19.3v-13c0-0.3,0.2-0.6,0.4-0.8
		C3.8,4.5,5.6,4,7.5,4c1.6,0,3.2,0.4,4.5,1.1C13.3,4.4,14.9,4,16.5,4c1.9,0,3.7,0.5,5.1,1.4C21.8,5.6,22,5.9,22,6.3v13
		c0,0.4-0.2,0.7-0.5,0.9c-0.3,0.2-0.7,0.2-1,0C19.4,19.4,18,19,16.5,19c-1.5,0-2.9,0.4-3.9,1.1c0,0-0.1,0-0.1,0.1
		c-0.1,0-0.1,0.1-0.2,0.1C12.2,20.2,12.1,20.3,12,20.3z M16.5,17c1.2,0,2.4,0.2,3.5,0.6V6.8c-2-1.1-5-1.1-7,0v10.8
		C14.1,17.2,15.3,17,16.5,17z M4,6.8v10.8c2.1-0.8,4.9-0.8,7,0V6.8C9,5.8,6,5.8,4,6.8z"/>
</g>
</svg>
