<?xml version="1.0" encoding="utf-8"?>
<!-- Generator: Adobe Illustrator 24.1.3, SVG Export Plug-In . SVG Version: 6.00 Build 0)  -->
<svg version="1.1" id="Layer_1" xmlns="http://www.w3.org/2000/svg" xmlns:xlink="http://www.w3.org/1999/xlink" x="0px" y="0px"
	 viewBox="0 0 24 24" style="enable-background:new 0 0 24 24;" xml:space="preserve">
<style type="text/css">
	.st0{fill:#4A5568;}
</style>
<g>
	<path class="st0" d="M19,21H5c-1.7,0-3-1.3-3-3v-4.7c0,0,0,0,0,0V8c0-1.7,1.3-3,3-3h2V4c0-1.7,1.3-3,3-3h4c1.7,0,3,1.3,3,3v1h2
		c1.7,0,3,1.3,3,3v5.2c0,0,0,0,0,0V18C22,19.7,20.7,21,19,21z M4,14.7V18c0,0.6,0.4,1,1,1h14c0.6,0,1-0.4,1-1v-3.3
		C14.9,16.4,9.1,16.4,4,14.7z M4,12.6c5.1,1.9,10.9,1.9,16,0V8c0-0.6-0.4-1-1-1H5C4.4,7,4,7.4,4,8V12.6z M9,5h6V4c0-0.6-0.4-1-1-1
		h-4C9.4,3,9,3.4,9,4V5z M12,13c-0.6,0-1-0.4-1-1s0.4-1,1-1h0c0.6,0,1,0.4,1,1S12.6,13,12,13z"/>
</g>
</svg>
