<?xml version="1.0" encoding="utf-8"?>
<!-- Generator: Adobe Illustrator 24.1.3, SVG Export Plug-In . SVG Version: 6.00 Build 0)  -->
<svg version="1.1" id="Layer_1" xmlns="http://www.w3.org/2000/svg" xmlns:xlink="http://www.w3.org/1999/xlink" x="0px" y="0px"
	 viewBox="0 0 24 24" style="enable-background:new 0 0 24 24;" xml:space="preserve">
<style type="text/css">
	.st0{fill:#374151;}
</style>
<g>
	<path class="st0" d="M21,22H3c-0.6,0-1-0.4-1-1v-7c0-1.7,1.3-3,3-3v-1c0-1.7,1.3-3,3-3V6c0-0.6,0.4-1,1-1s1,0.4,1,1v1h1V6
		c0-0.6,0.4-1,1-1s1,0.4,1,1v1h1V6c0-0.6,0.4-1,1-1s1,0.4,1,1v1c1.7,0,3,1.3,3,3v1c1.7,0,3,1.3,3,3v7C22,21.6,21.6,22,21,22z M4,20
		h16v-3.1c-1.2,0.8-2.8,0.8-4.1,0c-0.6-0.4-1.3-0.4-1.9,0c-1.2,0.8-2.9,0.8-4.1,0c-0.6-0.4-1.3-0.4-1.9,0c-1.2,0.8-2.8,0.8-4.1,0V20
		z M15,14.5c0.7,0,1.4,0.2,2.1,0.6c0.6,0.4,1.3,0.4,1.9,0c0.3-0.2,0.7-0.4,1.1-0.5V14c0-0.6-0.4-1-1-1H5c-0.6,0-1,0.4-1,1v0.7
		c0.4,0.1,0.7,0.3,1.1,0.5c0.6,0.4,1.3,0.4,1.9,0c1.2-0.8,2.9-0.8,4.1,0c0.6,0.4,1.3,0.4,1.9,0C13.6,14.8,14.3,14.5,15,14.5z M7,11
		h10v-1c0-0.6-0.4-1-1-1H8c-0.6,0-1,0.4-1,1V11z M15,4c-0.6,0-1-0.4-1-1s0.4-1,1-1h0c0.6,0,1,0.4,1,1S15.6,4,15,4z M12,4
		c-0.6,0-1-0.4-1-1s0.4-1,1-1h0c0.6,0,1,0.4,1,1S12.6,4,12,4z M9,4C8.5,4,8,3.6,8,3s0.4-1,1-1h0c0.6,0,1,0.4,1,1S9.6,4,9,4z"/>
</g>
</svg>
