<?xml version="1.0" encoding="utf-8"?>
<!-- Generator: Adobe Illustrator 24.1.3, SVG Export Plug-In . SVG Version: 6.00 Build 0)  -->
<svg version="1.1" id="Layer_1" xmlns="http://www.w3.org/2000/svg" xmlns:xlink="http://www.w3.org/1999/xlink" x="0px" y="0px"
	 viewBox="0 0 24 24" style="enable-background:new 0 0 24 24;" xml:space="preserve">
<style type="text/css">
	.st0{fill:#374151;}
</style>
<g>
	<path class="st0" d="M17,22H7c-1.7,0-3-1.3-3-3V5c0-1.7,1.3-3,3-3h10c1.7,0,3,1.3,3,3v14C20,20.7,18.7,22,17,22z M7,4
		C6.4,4,6,4.4,6,5v14c0,0.6,0.4,1,1,1h10c0.6,0,1-0.4,1-1V5c0-0.6-0.4-1-1-1H7z M15,18c-0.6,0-1-0.4-1-1v-3c0-0.6,0.4-1,1-1
		s1,0.4,1,1v3C16,17.6,15.6,18,15,18z M12,18c-0.6,0-1-0.4-1-1s0.4-1,1-1h0c0.6,0,1,0.4,1,1S12.6,18,12,18z M9,18c-0.6,0-1-0.4-1-1
		s0.4-1,1-1h0c0.6,0,1,0.4,1,1S9.6,18,9,18z M12,15c-0.6,0-1-0.4-1-1s0.4-1,1-1h0c0.6,0,1,0.4,1,1S12.6,15,12,15z M9,15
		c-0.6,0-1-0.4-1-1s0.4-1,1-1h0c0.6,0,1,0.4,1,1S9.6,15,9,15z M15,12c-0.6,0-1-0.4-1-1s0.4-1,1-1h0c0.6,0,1,0.4,1,1S15.6,12,15,12z
		 M12,12c-0.6,0-1-0.4-1-1s0.4-1,1-1h0c0.6,0,1,0.4,1,1S12.6,12,12,12z M9,12c-0.6,0-1-0.4-1-1s0.4-1,1-1h0c0.6,0,1,0.4,1,1
		S9.6,12,9,12z M15,8H9C8.4,8,8,7.6,8,7s0.4-1,1-1h6c0.6,0,1,0.4,1,1S15.6,8,15,8z"/>
</g>
</svg>
