<?xml version="1.0" encoding="utf-8"?>
<!-- Generator: Adobe Illustrator 24.1.3, SVG Export Plug-In . SVG Version: 6.00 Build 0)  -->
<svg version="1.1" id="Layer_1" xmlns="http://www.w3.org/2000/svg" xmlns:xlink="http://www.w3.org/1999/xlink" x="0px" y="0px"
	 viewBox="0 0 24 24" style="enable-background:new 0 0 24 24;" xml:space="preserve">
<style type="text/css">
	.st0{fill:#4A5568;}
</style>
<g>
	<path class="st0" d="M19,22H5c-1.7,0-3-1.3-3-3V7c0-1.7,1.3-3,3-3h2V3c0-0.6,0.4-1,1-1s1,0.4,1,1v1h6V3c0-0.6,0.4-1,1-1s1,0.4,1,1
		v1h2c1.7,0,3,1.3,3,3v12C22,20.7,20.7,22,19,22z M5,6C4.4,6,4,6.4,4,7v12c0,0.6,0.4,1,1,1h14c0.6,0,1-0.4,1-1V7c0-0.6-0.4-1-1-1h-2
		v1c0,0.6-0.4,1-1,1s-1-0.4-1-1V6H9v1c0,0.6-0.4,1-1,1S7,7.6,7,7V6H5z M17,12H7c-0.6,0-1-0.4-1-1s0.4-1,1-1h10c0.6,0,1,0.4,1,1
		S17.6,12,17,12z"/>
</g>
</svg>
