<?xml version="1.0" encoding="utf-8"?>
<!-- Generator: Adobe Illustrator 24.1.3, SVG Export Plug-In . SVG Version: 6.00 Build 0)  -->
<svg version="1.1" id="Layer_1" xmlns="http://www.w3.org/2000/svg" xmlns:xlink="http://www.w3.org/1999/xlink" x="0px" y="0px"
	 viewBox="0 0 24 24" style="enable-background:new 0 0 24 24;" xml:space="preserve">
<style type="text/css">
	.st0{fill:#4A5568;}
</style>
<g>
	<path class="st0" d="M19,21H5c-1.7,0-3-1.3-3-3V9c0-1.7,1.3-3,3-3h0.9c0.3,0,0.6-0.2,0.8-0.4l0.8-1.2C8.1,3.5,9.1,3,10.1,3h3.9
		c1,0,1.9,0.5,2.5,1.3l0.8,1.2C17.4,5.8,17.7,6,18.1,6H19c1.7,0,3,1.3,3,3v9C22,19.7,20.7,21,19,21z M5,8C4.4,8,4,8.4,4,9v9
		c0,0.6,0.4,1,1,1h14c0.6,0,1-0.4,1-1V9c0-0.6-0.4-1-1-1h-0.9c-1,0-1.9-0.5-2.5-1.3l-0.8-1.2C14.6,5.2,14.3,5,13.9,5h-3.9
		C9.7,5,9.4,5.2,9.2,5.4L8.4,6.7C7.9,7.5,6.9,8,5.9,8H5z"/>
</g>
<g>
	<path class="st0" d="M12,17c-2.2,0-4-1.8-4-4c0-2.2,1.8-4,4-4c2.2,0,4,1.8,4,4C16,15.2,14.2,17,12,17z M12,11c-1.1,0-2,0.9-2,2
		c0,1.1,0.9,2,2,2c1.1,0,2-0.9,2-2C14,11.9,13.1,11,12,11z"/>
</g>
</svg>
