<?xml version="1.0" encoding="utf-8"?>
<!-- Generator: Adobe Illustrator 24.1.3, SVG Export Plug-In . SVG Version: 6.00 Build 0)  -->
<svg version="1.1" id="Layer_1" xmlns="http://www.w3.org/2000/svg" xmlns:xlink="http://www.w3.org/1999/xlink" x="0px" y="0px"
	 viewBox="0 0 24 24" style="enable-background:new 0 0 24 24;" xml:space="preserve">
<style type="text/css">
	.st0{fill:#4A5568;}
</style>
<g>
	<path class="st0" d="M19,20H9c-1.7,0-3-1.3-3-3v-1H5c-1.7,0-3-1.3-3-3V7c0-1.7,1.3-3,3-3h10c1.7,0,3,1.3,3,3v1h1c1.7,0,3,1.3,3,3v6
		C22,18.7,20.7,20,19,20z M8,15v2c0,0.6,0.4,1,1,1h10c0.6,0,1-0.4,1-1v-6c0-0.6-0.4-1-1-1H9c-0.6,0-1,0.4-1,1V15z M5,6
		C4.4,6,4,6.4,4,7v6c0,0.6,0.4,1,1,1h1v-3c0-1.7,1.3-3,3-3h7V7c0-0.6-0.4-1-1-1H5z M14,17c-1.7,0-3-1.3-3-3s1.3-3,3-3s3,1.3,3,3
		S15.7,17,14,17z M14,13c-0.6,0-1,0.4-1,1s0.4,1,1,1s1-0.4,1-1S14.6,13,14,13z"/>
</g>
</svg>
