<?xml version="1.0" encoding="utf-8"?>
<!-- Generator: Adobe Illustrator 24.1.3, SVG Export Plug-In . SVG Version: 6.00 Build 0)  -->
<svg version="1.1" id="Layer_1" xmlns="http://www.w3.org/2000/svg" xmlns:xlink="http://www.w3.org/1999/xlink" x="0px" y="0px"
	 viewBox="0 0 24 24" style="enable-background:new 0 0 24 24;" xml:space="preserve">
<style type="text/css">
	.st0{fill:#4B5563;}
</style>
<g>
	<path class="st0" d="M18,21H6c-1.7,0-3-1.3-3-3V6c0-1.7,1.3-3,3-3h12c1.7,0,3,1.3,3,3v12C21,19.7,19.7,21,18,21z M6,5
		C5.4,5,5,5.4,5,6v12c0,0.6,0.4,1,1,1h12c0.6,0,1-0.4,1-1V6c0-0.6-0.4-1-1-1H6z M16,17c-0.6,0-1-0.4-1-1V8c0-0.6,0.4-1,1-1
		s1,0.4,1,1v8C17,16.6,16.6,17,16,17z M12,17c-0.6,0-1-0.4-1-1v-5c0-0.6,0.4-1,1-1s1,0.4,1,1v5C13,16.6,12.6,17,12,17z M8,17
		c-0.6,0-1-0.4-1-1v-2c0-0.6,0.4-1,1-1s1,0.4,1,1v2C9,16.6,8.6,17,8,17z"/>
</g>
</svg>
