<?xml version="1.0" encoding="utf-8"?>
<!-- Generator: Adobe Illustrator 24.1.3, SVG Export Plug-In . SVG Version: 6.00 Build 0)  -->
<svg version="1.1" id="Layer_1" xmlns="http://www.w3.org/2000/svg" xmlns:xlink="http://www.w3.org/1999/xlink" x="0px" y="0px"
	 viewBox="0 0 24 24" style="enable-background:new 0 0 24 24;" xml:space="preserve">
<style type="text/css">
	.st0{fill:#4A5568;}
</style>
<g>
	<path class="st0" d="M12,22C6.5,22,2,17.5,2,12c0-5.1,3.8-9.4,8.9-9.9c0.3,0,0.6,0.1,0.8,0.2S12,2.8,12,3.1V12h8.9
		c0.3,0,0.6,0.1,0.7,0.3s0.3,0.5,0.2,0.8C21.4,18.2,17.1,22,12,22z M10,4.3c-3.5,0.9-6,4-6,7.7c0,4.4,3.6,8,8,8c3.7,0,6.9-2.5,7.7-6
		H11c-0.6,0-1-0.4-1-1V4.3z"/>
</g>
<g>
	<path class="st0" d="M20.5,10H15c-0.6,0-1-0.4-1-1V3.5c0-0.3,0.2-0.6,0.4-0.8c0.3-0.2,0.6-0.2,0.9-0.1c2.9,1,5.1,3.2,6.1,6.1
		c0.1,0.3,0.1,0.6-0.1,0.9S20.8,10,20.5,10z M16,8h2.9c-0.7-1.2-1.7-2.2-2.9-2.9V8z"/>
</g>
</svg>
