<?xml version="1.0" encoding="utf-8"?>
<!-- Generator: Adobe Illustrator 24.1.3, SVG Export Plug-In . SVG Version: 6.00 Build 0)  -->
<svg version="1.1" id="Layer_1" xmlns="http://www.w3.org/2000/svg" xmlns:xlink="http://www.w3.org/1999/xlink" x="0px" y="0px"
	 viewBox="0 0 24 24" style="enable-background:new 0 0 24 24;" xml:space="preserve">
<style type="text/css">
	.st0{fill:#4B5563;}
</style>
<g>
	<path class="st0" d="M19,22h-2c-0.8,0-1.5-0.3-2-0.8c-0.5,0.5-1.2,0.8-2,0.8h-2c-0.8,0-1.5-0.3-2-0.8C8.5,21.7,7.8,22,7,22H5
		c-1.7,0-3-1.3-3-3v-6c0-1.7,1.3-3,3-3h2c0.4,0,0.7,0.1,1,0.2V9c0-1.7,1.3-3,3-3h2c0.4,0,0.7,0.1,1,0.2V5c0-1.7,1.3-3,3-3h2
		c1.7,0,3,1.3,3,3v14C22,20.7,20.7,22,19,22z M16,19c0,0.6,0.4,1,1,1h2c0.6,0,1-0.4,1-1V5c0-0.6-0.4-1-1-1h-2c-0.6,0-1,0.4-1,1V19z
		 M10,19c0,0.6,0.4,1,1,1h2c0.6,0,1-0.4,1-1V9c0-0.6-0.4-1-1-1h-2c-0.6,0-1,0.4-1,1V19z M5,12c-0.6,0-1,0.4-1,1v6c0,0.6,0.4,1,1,1h2
		c0.6,0,1-0.4,1-1v-6c0-0.6-0.4-1-1-1H5z"/>
</g>
</svg>
