<?xml version="1.0" encoding="utf-8"?>
<!-- Generator: Adobe Illustrator 24.1.3, SVG Export Plug-In . SVG Version: 6.00 Build 0)  -->
<svg version="1.1" id="Layer_1" xmlns="http://www.w3.org/2000/svg" xmlns:xlink="http://www.w3.org/1999/xlink" x="0px" y="0px"
	 viewBox="0 0 24 24" style="enable-background:new 0 0 24 24;" xml:space="preserve">
<style type="text/css">
	.st0{fill:#4A5568;}
</style>
<g>
	<path class="st0" d="M9,22c-0.1,0-0.3,0-0.4-0.1C8.2,21.8,8,21.4,8,21v-4H5c-1.7,0-3-1.3-3-3V6c0-1.7,1.3-3,3-3h14c1.7,0,3,1.3,3,3
		v8c0,1.7-1.3,3-3,3h-4.6l-4.7,4.7C9.5,21.9,9.3,22,9,22z M5,5C4.4,5,4,5.4,4,6v8c0,0.6,0.4,1,1,1h4c0.6,0,1,0.4,1,1v2.6l3.3-3.3
		c0.2-0.2,0.4-0.3,0.7-0.3h5c0.6,0,1-0.4,1-1V6c0-0.6-0.4-1-1-1H5z M16,11c-0.6,0-1-0.4-1-1s0.4-1,1-1h0c0.6,0,1,0.4,1,1
		S16.6,11,16,11z M12,11c-0.6,0-1-0.4-1-1s0.4-1,1-1h0c0.6,0,1,0.4,1,1S12.6,11,12,11z M8,11c-0.6,0-1-0.4-1-1s0.4-1,1-1h0
		c0.6,0,1,0.4,1,1S8.6,11,8,11z"/>
</g>
</svg>
