<?xml version="1.0" encoding="utf-8"?>
<!-- Generator: Adobe Illustrator 24.1.3, SVG Export Plug-In . SVG Version: 6.00 Build 0)  -->
<svg version="1.1" id="Layer_1" xmlns="http://www.w3.org/2000/svg" xmlns:xlink="http://www.w3.org/1999/xlink" x="0px" y="0px"
	 viewBox="0 0 24 24" style="enable-background:new 0 0 24 24;" xml:space="preserve">
<style type="text/css">
	.st0{fill:#4B5563;}
</style>
<g>
	<path class="st0" d="M17,23c-0.3,0-0.5-0.1-0.7-0.3L12.6,19H9c-0.5,0-0.9-0.1-1.3-0.3C7.4,19,7,19.1,6.6,18.9C6.2,18.8,6,18.4,6,18
		v-3H5c-1.7,0-3-1.3-3-3V6c0-1.7,1.3-3,3-3h10c1.7,0,3,1.3,3,3v1h1c1.7,0,3,1.3,3,3v6c0,1.7-1.3,3-3,3h-1v3c0,0.4-0.2,0.8-0.6,0.9
		C17.3,23,17.1,23,17,23z M9.4,17H13c0.3,0,0.5,0.1,0.7,0.3l2.3,2.3V18c0-0.6,0.4-1,1-1h2c0.6,0,1-0.4,1-1v-6c0-0.6-0.4-1-1-1h-1v3
		c0,1.7-1.3,3-3,3h-3.6L9.4,17z M5,5C4.4,5,4,5.4,4,6v6c0,0.6,0.4,1,1,1h2c0.6,0,1,0.4,1,1v1.6l2.3-2.3c0.2-0.2,0.4-0.3,0.7-0.3h4
		c0.6,0,1-0.4,1-1V6c0-0.6-0.4-1-1-1H5z"/>
</g>
</svg>
