<?xml version="1.0" encoding="utf-8"?>
<!-- Generator: Adobe Illustrator 24.1.3, SVG Export Plug-In . SVG Version: 6.00 Build 0)  -->
<svg version="1.1" id="Layer_1" xmlns="http://www.w3.org/2000/svg" xmlns:xlink="http://www.w3.org/1999/xlink" x="0px" y="0px"
	 viewBox="0 0 20 20" style="enable-background:new 0 0 20 20;" xml:space="preserve">
<style type="text/css">
	.st0{fill-rule:evenodd;clip-rule:evenodd;fill:#374151;}
</style>
<path class="st0" d="M15.7,4.3c0.4,0.4,0.4,1,0,1.4l-5,5c-0.4,0.4-1,0.4-1.4,0l-5-5c-0.4-0.4-0.4-1,0-1.4c0.4-0.4,1-0.4,1.4,0
	L10,8.6l4.3-4.3C14.7,3.9,15.3,3.9,15.7,4.3z M15.7,10.3c0.4,0.4,0.4,1,0,1.4l-5,5c-0.4,0.4-1,0.4-1.4,0l-5-5c-0.4-0.4-0.4-1,0-1.4
	c0.4-0.4,1-0.4,1.4,0l4.3,4.3l4.3-4.3C14.7,9.9,15.3,9.9,15.7,10.3z"/>
</svg>
