<?xml version="1.0" encoding="utf-8"?>
<!-- Generator: Adobe Illustrator 24.1.3, SVG Export Plug-In . SVG Version: 6.00 Build 0)  -->
<svg version="1.1" id="Layer_1" xmlns="http://www.w3.org/2000/svg" xmlns:xlink="http://www.w3.org/1999/xlink" x="0px" y="0px"
	 viewBox="0 0 20 20" style="enable-background:new 0 0 20 20;" xml:space="preserve">
<style type="text/css">
	.st0{fill-rule:evenodd;clip-rule:evenodd;fill:#374151;}
</style>
<path class="st0" d="M15.7,15.7c-0.4,0.4-1,0.4-1.4,0l-5-5c-0.4-0.4-0.4-1,0-1.4l5-5c0.4-0.4,1-0.4,1.4,0c0.4,0.4,0.4,1,0,1.4
	L11.4,10l4.3,4.3C16.1,14.7,16.1,15.3,15.7,15.7z M9.7,15.7c-0.4,0.4-1,0.4-1.4,0l-5-5c-0.4-0.4-0.4-1,0-1.4l5-5
	c0.4-0.4,1-0.4,1.4,0c0.4,0.4,0.4,1,0,1.4L5.4,10l4.3,4.3C10.1,14.7,10.1,15.3,9.7,15.7z"/>
</svg>
