<?xml version="1.0" encoding="utf-8"?>
<!-- Generator: Adobe Illustrator 24.1.3, SVG Export Plug-In . SVG Version: 6.00 Build 0)  -->
<svg version="1.1" id="Layer_1" xmlns="http://www.w3.org/2000/svg" xmlns:xlink="http://www.w3.org/1999/xlink" x="0px" y="0px"
	 viewBox="0 0 20 20" style="enable-background:new 0 0 20 20;" xml:space="preserve">
<style type="text/css">
	.st0{fill-rule:evenodd;clip-rule:evenodd;fill:#374151;}
</style>
<path class="st0" d="M10.3,15.7c-0.4-0.4-0.4-1,0-1.4l4.3-4.3l-4.3-4.3c-0.4-0.4-0.4-1,0-1.4c0.4-0.4,1-0.4,1.4,0l5,5
	c0.4,0.4,0.4,1,0,1.4l-5,5C11.3,16.1,10.7,16.1,10.3,15.7z"/>
<path class="st0" d="M4.3,15.7c-0.4-0.4-0.4-1,0-1.4L8.6,10L4.3,5.7c-0.4-0.4-0.4-1,0-1.4c0.4-0.4,1-0.4,1.4,0l5,5
	c0.4,0.4,0.4,1,0,1.4l-5,5C5.3,16.1,4.7,16.1,4.3,15.7z"/>
</svg>
