<?xml version="1.0" encoding="utf-8"?>
<!-- Generator: Adobe Illustrator 24.1.3, SVG Export Plug-In . SVG Version: 6.00 Build 0)  -->
<svg version="1.1" id="Layer_1" xmlns="http://www.w3.org/2000/svg" xmlns:xlink="http://www.w3.org/1999/xlink" x="0px" y="0px"
	 viewBox="0 0 20 20" style="enable-background:new 0 0 20 20;" xml:space="preserve">
<style type="text/css">
	.st0{fill:#374151;}
	.st1{fill-rule:evenodd;clip-rule:evenodd;fill:#374151;}
</style>
<path class="st0" d="M13,7H7v6h6V7z"/>
<path class="st1" d="M7,2c0-0.6,0.4-1,1-1s1,0.4,1,1v1h2V2c0-0.6,0.4-1,1-1s1,0.4,1,1v1h2c1.1,0,2,0.9,2,2v2h1c0.6,0,1,0.4,1,1
	s-0.4,1-1,1h-1v2h1c0.6,0,1,0.4,1,1s-0.4,1-1,1h-1v2c0,1.1-0.9,2-2,2h-2v1c0,0.6-0.4,1-1,1s-1-0.4-1-1v-1H9v1c0,0.6-0.4,1-1,1
	s-1-0.4-1-1v-1H5c-1.1,0-2-0.9-2-2v-2H2c-0.6,0-1-0.4-1-1s0.4-1,1-1h1V9H2C1.4,9,1,8.6,1,8s0.4-1,1-1h1V5c0-1.1,0.9-2,2-2h2V2z M5,5
	h10v10H5V5z"/>
</svg>
