<?xml version="1.0" encoding="utf-8"?>
<!-- Generator: Adobe Illustrator 24.1.3, SVG Export Plug-In . SVG Version: 6.00 Build 0)  -->
<svg version="1.1" id="Layer_1" xmlns="http://www.w3.org/2000/svg" xmlns:xlink="http://www.w3.org/1999/xlink" x="0px" y="0px"
	 viewBox="0 0 20 20" style="enable-background:new 0 0 20 20;" xml:space="preserve">
<style type="text/css">
	.st0{fill:#4A5568;}
</style>
<path class="st0" d="M8,3c0-0.6,0.4-1,1-1h2c0.6,0,1,0.4,1,1s-0.4,1-1,1H9C8.4,4,8,3.6,8,3z"/>
<path class="st0" d="M6,3C4.9,3,4,3.9,4,5v11c0,1.1,0.9,2,2,2h8c1.1,0,2-0.9,2-2V5c0-1.1-0.9-2-2-2c0,1.7-1.3,3-3,3H9
	C7.3,6,6,4.7,6,3z"/>
</svg>
