<?xml version="1.0" encoding="utf-8"?>
<!-- Generator: Adobe Illustrator 24.1.3, SVG Export Plug-In . SVG Version: 6.00 Build 0)  -->
<svg version="1.1" id="Layer_1" xmlns="http://www.w3.org/2000/svg" xmlns:xlink="http://www.w3.org/1999/xlink" x="0px" y="0px"
	 viewBox="0 0 24 24" style="enable-background:new 0 0 24 24;" xml:space="preserve">
<style type="text/css">
	.st0{fill:#4A5568;}
</style>
<g>
	<path class="st0" d="M17,22H7c-1.7,0-3-1.3-3-3V7c0-1.7,1.3-3,3-3h1.2C8.6,2.8,9.7,2,11,2h2c1.3,0,2.4,0.8,2.8,2H17
		c1.7,0,3,1.3,3,3v12C20,20.7,18.7,22,17,22z M7,6C6.4,6,6,6.4,6,7v12c0,0.6,0.4,1,1,1h10c0.6,0,1-0.4,1-1V7c0-0.6-0.4-1-1-1h-1.2
		c-0.4,1.2-1.5,2-2.8,2h-2C9.7,8,8.6,7.2,8.2,6H7z M10,5c0,0.6,0.4,1,1,1h2c0.6,0,1-0.4,1-1s-0.4-1-1-1h-2C10.4,4,10,4.4,10,5z
		 M15,17h-3c-0.6,0-1-0.4-1-1s0.4-1,1-1h3c0.6,0,1,0.4,1,1S15.6,17,15,17z M9,17c-0.6,0-1-0.4-1-1s0.4-1,1-1h0c0.6,0,1,0.4,1,1
		S9.6,17,9,17z M15,13h-3c-0.6,0-1-0.4-1-1s0.4-1,1-1h3c0.6,0,1,0.4,1,1S15.6,13,15,13z M9,13c-0.6,0-1-0.4-1-1s0.4-1,1-1h0
		c0.6,0,1,0.4,1,1S9.6,13,9,13z"/>
</g>
</svg>
