<?xml version="1.0" encoding="utf-8"?>
<!-- Generator: Adobe Illustrator 24.1.3, SVG Export Plug-In . SVG Version: 6.00 Build 0)  -->
<svg version="1.1" id="Layer_1" xmlns="http://www.w3.org/2000/svg" xmlns:xlink="http://www.w3.org/1999/xlink" x="0px" y="0px"
	 viewBox="0 0 24 24" style="enable-background:new 0 0 24 24;" xml:space="preserve">
<style type="text/css">
	.st0{fill:#4A5568;}
</style>
<g>
	<path class="st0" d="M16,22H6c-1.7,0-3-1.3-3-3V7c0-1.7,1.3-3,3-3h1.2C7.6,2.8,8.7,2,10,2h2c1.3,0,2.4,0.8,2.8,2H16
		c1.7,0,3,1.3,3,3v3c0,0.6-0.4,1-1,1s-1-0.4-1-1V7c0-0.6-0.4-1-1-1h-1.2c-0.4,1.2-1.5,2-2.8,2h-2C8.7,8,7.6,7.2,7.2,6H6
		C5.4,6,5,6.4,5,7v12c0,0.6,0.4,1,1,1h10c0.6,0,1-0.4,1-1v-1c0-0.6,0.4-1,1-1s1,0.4,1,1v1C19,20.7,17.7,22,16,22z M9,5
		c0,0.6,0.4,1,1,1h2c0.6,0,1-0.4,1-1s-0.4-1-1-1h-2C9.4,4,9,4.4,9,5z M13,18c-0.3,0-0.5-0.1-0.7-0.3l-3-3c-0.1-0.1-0.2-0.2-0.2-0.3
		C9,14.3,9,14.1,9,14l0,0c0,0,0,0,0,0l0,0c0-0.1,0-0.3,0.1-0.4c0-0.1,0.1-0.2,0.2-0.3l3-3c0.4-0.4,1-0.4,1.4,0s0.4,1,0,1.4L12.4,13
		H20c0.6,0,1,0.4,1,1s-0.4,1-1,1h-7.6l1.3,1.3c0.4,0.4,0.4,1,0,1.4C13.5,17.9,13.3,18,13,18z"/>
</g>
</svg>
