<?xml version="1.0" encoding="utf-8"?>
<!-- Generator: Adobe Illustrator 24.1.3, SVG Export Plug-In . SVG Version: 6.00 Build 0)  -->
<svg version="1.1" id="Layer_1" xmlns="http://www.w3.org/2000/svg" xmlns:xlink="http://www.w3.org/1999/xlink" x="0px" y="0px"
	 viewBox="0 0 24 24" style="enable-background:new 0 0 24 24;" xml:space="preserve">
<style type="text/css">
	.st0{fill:#374151;}
</style>
<g>
	<path class="st0" d="M16,20H7c-2.8,0-5-2.2-5-5c0-2,1.2-3.8,3-4.6c0-0.1,0-0.3,0-0.4c0-3.3,2.7-6,6-6c2.6,0,4.8,1.7,5.7,4
		c3,0.3,5.3,2.9,5.3,6C22,17.3,19.3,20,16,20z M11,6c-2.2,0-4,1.8-4,4c0,0.3,0,0.6,0.1,0.9c0.1,0.5-0.2,1.1-0.8,1.2
		C5,12.4,4,13.6,4,15c0,1.7,1.3,3,3,3h9c2.2,0,4-1.8,4-4c0-2.2-1.8-4-4-4c-0.5,0-1-0.3-1.1-0.8C14.5,7.3,12.9,6,11,6z"/>
</g>
</svg>
