<?xml version="1.0" encoding="utf-8"?>
<!-- Generator: Adobe Illustrator 24.1.3, SVG Export Plug-In . SVG Version: 6.00 Build 0)  -->
<svg version="1.1" id="Layer_1" xmlns="http://www.w3.org/2000/svg" xmlns:xlink="http://www.w3.org/1999/xlink" x="0px" y="0px"
	 viewBox="0 0 24 24" style="enable-background:new 0 0 24 24;" xml:space="preserve">
<style type="text/css">
	.st0{fill:#374151;}
</style>
<g>
	<path class="st0" d="M12,23c-0.6,0-1-0.4-1-1v-9.6l-1.3,1.3c-0.4,0.4-1,0.4-1.4,0s-0.4-1,0-1.4l3-3c0.1-0.1,0.2-0.2,0.3-0.2
		C11.7,9,11.9,9,12,9l0,0c0,0,0,0,0,0l0,0c0.1,0,0.3,0,0.4,0.1c0.1,0,0.2,0.1,0.3,0.2l3,3c0.4,0.4,0.4,1,0,1.4s-1,0.4-1.4,0L13,12.4
		V22C13,22.6,12.6,23,12,23z M7,17c-2.8,0-5-2.2-5-5c0-2,1.2-3.8,3-4.6C5,7.3,5,7.1,5,7c0-3.3,2.7-6,6-6c2.6,0,4.8,1.7,5.7,4
		c3,0.3,5.3,2.9,5.3,6c0,2.8-2,5.3-4.8,5.9c-0.5,0.1-1.1-0.2-1.2-0.8c-0.1-0.5,0.2-1.1,0.8-1.2c1.9-0.4,3.2-2,3.2-3.9
		c0-2.2-1.8-4-4-4c-0.5,0-1-0.3-1.1-0.8C14.5,4.3,12.9,3,11,3C8.8,3,7,4.8,7,7c0,0.3,0,0.6,0.1,0.9C7.2,8.4,6.9,9,6.3,9.1
		C5,9.4,4,10.6,4,12c0,1.7,1.3,3,3,3c0.6,0,1,0.4,1,1S7.6,17,7,17z"/>
</g>
</svg>
