<?xml version="1.0" encoding="utf-8"?>
<!-- Generator: Adobe Illustrator 24.1.3, SVG Export Plug-In . SVG Version: 6.00 Build 0)  -->
<svg version="1.1" id="Layer_1" xmlns="http://www.w3.org/2000/svg" xmlns:xlink="http://www.w3.org/1999/xlink" x="0px" y="0px"
	 viewBox="0 0 24 24" style="enable-background:new 0 0 24 24;" xml:space="preserve">
<style type="text/css">
	.st0{fill:#4A5568;}
</style>
<g>
	<path class="st0" d="M12,22C12,22,12,22,12,22c-1.3,0-2.3-0.8-2.6-2.1c-0.1-0.2-0.2-0.4-0.4-0.5c-0.2-0.1-0.5-0.1-0.7,0
		c-1.1,0.7-2.4,0.5-3.3-0.4c-0.9-0.9-1.1-2.3-0.4-3.3c0.1-0.2,0.1-0.4,0.1-0.7s-0.3-0.4-0.5-0.4C2.8,14.3,2,13.3,2,12
		c0-1.3,0.8-2.3,2.1-2.6c0.2-0.1,0.4-0.2,0.5-0.4c0.1-0.2,0.1-0.5-0.1-0.7C3.9,7.2,4,5.8,4.9,4.9C5.8,4,7.2,3.9,8.3,4.5
		c0.2,0.1,0.4,0.1,0.7,0.1c0.2-0.1,0.4-0.3,0.4-0.5l0,0C9.7,2.8,10.7,2,12,2c1.3,0,2.3,0.8,2.6,2.1c0.1,0.2,0.2,0.4,0.4,0.5
		c0.2,0.1,0.5,0.1,0.7-0.1c1.1-0.7,2.4-0.5,3.3,0.4c0.9,0.9,1.1,2.2,0.4,3.3c-0.1,0.2-0.1,0.4,0,0.7c0.1,0.2,0.3,0.4,0.5,0.4
		C21.2,9.7,22,10.7,22,12c0,1.3-0.8,2.3-2.1,2.6c-0.2,0.1-0.4,0.2-0.5,0.4c-0.1,0.2-0.1,0.5,0,0.7c0.7,1.1,0.5,2.4-0.4,3.3
		s-2.2,1.1-3.3,0.4c-0.2-0.1-0.4-0.1-0.7,0c-0.2,0.1-0.4,0.3-0.4,0.5C14.3,21.2,13.3,22,12,22z M8.6,17.4c0.4,0,0.7,0.1,1,0.2
		c0.8,0.3,1.4,1,1.6,1.9C11.4,20,11.9,20,12,20l0,0c0.1,0,0.6,0,0.7-0.6c0.2-0.9,0.8-1.5,1.6-1.9c0.8-0.3,1.7-0.3,2.5,0.2
		c0.4,0.3,0.8,0,0.9-0.1c0.1-0.1,0.4-0.4,0.1-0.9c-0.5-0.8-0.5-1.6-0.2-2.5c0.3-0.8,1-1.4,1.9-1.6C20,12.6,20,12.1,20,12
		s0-0.6-0.6-0.7c-0.9-0.2-1.5-0.8-1.9-1.6c-0.3-0.8-0.3-1.7,0.2-2.5c0.3-0.5,0-0.8-0.1-0.9c-0.1-0.1-0.4-0.4-0.9-0.1
		c-0.8,0.5-1.6,0.5-2.5,0.2s-1.4-1-1.6-1.9C12.6,4,12.1,4,12,4s-0.6,0-0.7,0.6c-0.2,0.9-0.8,1.5-1.6,1.9C8.9,6.8,8,6.7,7.2,6.2
		C6.8,6,6.4,6.2,6.3,6.3C6.2,6.4,6,6.8,6.2,7.2C6.7,8,6.8,8.9,6.4,9.7s-1,1.4-1.9,1.6C4,11.4,4,11.9,4,12s0,0.6,0.6,0.7
		c0.9,0.2,1.5,0.8,1.9,1.6s0.3,1.7-0.2,2.5c-0.3,0.5,0,0.8,0.1,0.9c0.1,0.1,0.4,0.4,0.9,0.1C7.7,17.5,8.2,17.4,8.6,17.4z"/>
</g>
<g>
	<path class="st0" d="M12,16c-2.2,0-4-1.8-4-4c0-2.2,1.8-4,4-4c2.2,0,4,1.8,4,4C16,14.2,14.2,16,12,16z M12,10c-1.1,0-2,0.9-2,2
		c0,1.1,0.9,2,2,2c1.1,0,2-0.9,2-2C14,10.9,13.1,10,12,10z"/>
</g>
</svg>
