<?xml version="1.0" encoding="utf-8"?>
<!-- Generator: Adobe Illustrator 24.1.3, SVG Export Plug-In . SVG Version: 6.00 Build 0)  -->
<svg version="1.1" id="Layer_1" xmlns="http://www.w3.org/2000/svg" xmlns:xlink="http://www.w3.org/1999/xlink" x="0px" y="0px"
	 viewBox="0 0 20 20" style="enable-background:new 0 0 20 20;" xml:space="preserve">
<style type="text/css">
	.st0{fill:#4A5568;}
</style>
<path class="st0" d="M7,3C6.4,3,6,3.4,6,4s0.4,1,1,1h6c0.6,0,1-0.4,1-1s-0.4-1-1-1H7z"/>
<path class="st0" d="M4,7c0-0.6,0.4-1,1-1h10c0.6,0,1,0.4,1,1s-0.4,1-1,1H5C4.4,8,4,7.6,4,7z"/>
<path class="st0" d="M2,11c0-1.1,0.9-2,2-2h12c1.1,0,2,0.9,2,2v4c0,1.1-0.9,2-2,2H4c-1.1,0-2-0.9-2-2V11z"/>
</svg>
