<?xml version="1.0" encoding="utf-8"?>
<!-- Generator: Adobe Illustrator 24.1.3, SVG Export Plug-In . SVG Version: 6.00 Build 0)  -->
<svg version="1.1" id="Layer_1" xmlns="http://www.w3.org/2000/svg" xmlns:xlink="http://www.w3.org/1999/xlink" x="0px" y="0px"
	 viewBox="0 0 24 24" style="enable-background:new 0 0 24 24;" xml:space="preserve">
<style type="text/css">
	.st0{fill:#4A5568;}
</style>
<g>
	<path class="st0" d="M19,22H7c-2.8,0-5-2.2-5-5V5c0-1.7,1.3-3,3-3h4c1.6,0,3,1.3,3,2.9c1.1-1.1,3.1-1.1,4.2,0L19,7.8
		c1.2,1.2,1.2,3,0,4.2c1.6,0,2.9,1.4,2.9,3v4C22,20.7,20.7,22,19,22z M11.1,20H19c0.6,0,1-0.4,1-1v-4c0-0.6-0.4-1-1-1h-1.9L11.1,20z
		 M5,4C4.4,4,4,4.4,4,5v12c0,1.7,1.3,3,3,3s3-1.3,3-3V5c0-0.6-0.4-1-1-1H5z M12,7.8v8.5l5.6-5.6c0.4-0.4,0.4-1,0-1.4l-2.8-2.8
		c-0.4-0.4-1-0.4-1.4,0L12,7.8z M7,18c-0.6,0-1-0.4-1-1s0.4-1,1-1h0c0.6,0,1,0.4,1,1S7.6,18,7,18z"/>
</g>
</svg>
