<?xml version="1.0" encoding="utf-8"?>
<!-- Generator: Adobe Illustrator 24.1.3, SVG Export Plug-In . SVG Version: 6.00 Build 0)  -->
<svg version="1.1" id="Layer_1" xmlns="http://www.w3.org/2000/svg" xmlns:xlink="http://www.w3.org/1999/xlink" x="0px" y="0px"
	 viewBox="0 0 24 24" style="enable-background:new 0 0 24 24;" xml:space="preserve">
<style type="text/css">
	.st0{fill:#4A5568;}
</style>
<g>
	<path class="st0" d="M18,20H6c-2.2,0-4-1.8-4-4V8c0-2.2,1.8-4,4-4h12c2.2,0,4,1.8,4,4v8C22,18.2,20.2,20,18,20z M4,11v5
		c0,1.1,0.9,2,2,2h12c1.1,0,2-0.9,2-2v-5H4z M4,9h16V8c0-1.1-0.9-2-2-2H6C4.9,6,4,6.9,4,8V9z M13,16h-1c-0.6,0-1-0.4-1-1s0.4-1,1-1
		h1c0.6,0,1,0.4,1,1S13.6,16,13,16z M8,16H7c-0.6,0-1-0.4-1-1s0.4-1,1-1h1c0.6,0,1,0.4,1,1S8.6,16,8,16z"/>
</g>
</svg>
