<?xml version="1.0" encoding="utf-8"?>
<!-- Generator: Adobe Illustrator 24.1.3, SVG Export Plug-In . SVG Version: 6.00 Build 0)  -->
<svg version="1.1" id="Layer_1" xmlns="http://www.w3.org/2000/svg" xmlns:xlink="http://www.w3.org/1999/xlink" x="0px" y="0px"
	 viewBox="0 0 20 20" style="enable-background:new 0 0 20 20;" xml:space="preserve">
<style type="text/css">
	.st0{fill-rule:evenodd;clip-rule:evenodd;fill:#374151;}
</style>
<path class="st0" d="M9.5,1.1c0.3-0.2,0.7-0.2,1,0l1.8,1c0.5,0.3,0.6,0.9,0.4,1.4c-0.3,0.5-0.9,0.6-1.4,0.4L10,3.2L8.7,3.9
	C8.3,4.1,7.7,4,7.4,3.5C7.1,3,7.3,2.4,7.8,2.1L9.5,1.1z M5.6,4.5C5.9,5,5.7,5.6,5.2,5.9L5,6l0.2,0.1C5.7,6.4,5.9,7,5.6,7.5
	C5.3,8,4.7,8.1,4.3,7.9L4,7.7V8c0,0.6-0.4,1-1,1S2,8.6,2,8V6c0-0.2,0.1-0.5,0.2-0.7c0,0,0.1-0.1,0.1-0.1c0.1,0,0.1-0.1,0.2-0.1
	l1.7-1C4.7,3.9,5.3,4,5.6,4.5z M14.4,4.5c0.3-0.5,0.9-0.6,1.4-0.4l1.7,1c0.1,0,0.1,0.1,0.2,0.1C17.9,5.4,18,5.7,18,6v2
	c0,0.6-0.4,1-1,1s-1-0.4-1-1V7.7l-0.3,0.1c-0.5,0.3-1.1,0.1-1.4-0.4c-0.3-0.5-0.1-1.1,0.4-1.4L15,6l-0.2-0.1
	C14.3,5.6,14.1,5,14.4,4.5z M7.4,8.5C7.7,8,8.3,7.9,8.7,8.1L10,8.8l1.3-0.7c0.5-0.3,1.1-0.1,1.4,0.4c0.3,0.5,0.1,1.1-0.4,1.4
	L11,10.6V12c0,0.6-0.4,1-1,1c-0.6,0-1-0.4-1-1v-1.4L7.8,9.9C7.3,9.6,7.1,9,7.4,8.5z M3,11c0.6,0,1,0.4,1,1v1.4l1.2,0.7
	c0.5,0.3,0.6,0.9,0.4,1.4c-0.3,0.5-0.9,0.6-1.4,0.4l-1.8-1C2.2,14.7,2,14.4,2,14v-2C2,11.4,2.4,11,3,11z M17,11c0.6,0,1,0.4,1,1v2
	c0,0.4-0.2,0.7-0.5,0.9l-1.7,1c-0.5,0.3-1.1,0.1-1.4-0.4c-0.3-0.5-0.1-1.1,0.4-1.4l1.2-0.7V12C16,11.4,16.4,11,17,11z M7.4,16.5
	c0.3-0.5,0.9-0.6,1.4-0.4L9,16.3V16c0-0.6,0.4-1,1-1c0.6,0,1,0.4,1,1v0.3l0.3-0.1c0.5-0.3,1.1-0.1,1.4,0.4c0.3,0.5,0.1,1.1-0.4,1.4
	l-1.7,1C10.4,18.9,10.2,19,10,19c-0.2,0-0.4-0.1-0.5-0.1l-1.7-1C7.3,17.6,7.1,17,7.4,16.5z"/>
</svg>
