<?xml version="1.0" encoding="utf-8"?>
<!-- Generator: Adobe Illustrator 24.1.3, SVG Export Plug-In . SVG Version: 6.00 Build 0)  -->
<svg version="1.1" id="Layer_1" xmlns="http://www.w3.org/2000/svg" xmlns:xlink="http://www.w3.org/1999/xlink" x="0px" y="0px"
	 viewBox="0 0 20 20" style="enable-background:new 0 0 20 20;" xml:space="preserve">
<style type="text/css">
	.st0{fill:#374151;}
</style>
<path class="st0" d="M11,17c0,0.3,0.2,0.7,0.5,0.9c0.3,0.2,0.7,0.2,1,0l4-2c0.3-0.2,0.6-0.5,0.6-0.9V9.2c0-0.3-0.2-0.7-0.5-0.9
	c-0.3-0.2-0.7-0.2-1,0l-4,2c-0.3,0.2-0.6,0.5-0.6,0.9V17z"/>
<path class="st0" d="M15.2,6.3c0.3-0.2,0.6-0.5,0.6-0.9c0-0.4-0.2-0.7-0.6-0.9l-4.8-2.4C10.2,2,9.8,2,9.6,2.1L4.8,4.5
	C4.5,4.7,4.2,5,4.2,5.4c0,0.4,0.2,0.7,0.6,0.9l4.8,2.4c0.3,0.1,0.6,0.1,0.9,0L15.2,6.3z"/>
<path class="st0" d="M4.4,8.3c-0.3-0.2-0.7-0.1-1,0C3.2,8.6,3,8.9,3,9.2V15c0,0.4,0.2,0.7,0.6,0.9l4,2c0.3,0.2,0.7,0.1,1,0
	C8.8,17.7,9,17.3,9,17v-5.8c0-0.4-0.2-0.7-0.6-0.9L4.4,8.3z"/>
</svg>
