<?xml version="1.0" encoding="utf-8"?>
<!-- Generator: Adobe Illustrator 24.1.3, SVG Export Plug-In . SVG Version: 6.00 Build 0)  -->
<svg version="1.1" id="Layer_1" xmlns="http://www.w3.org/2000/svg" xmlns:xlink="http://www.w3.org/1999/xlink" x="0px" y="0px"
	 viewBox="0 0 24 24" style="enable-background:new 0 0 24 24;" xml:space="preserve">
<style type="text/css">
	.st0{fill:#4A5568;}
</style>
<g>
	<path class="st0" d="M12,22C6.5,22,2,17.5,2,12C2,6.5,6.5,2,12,2c5.5,0,10,4.5,10,10C22,17.5,17.5,22,12,22z M12,4
		c-4.4,0-8,3.6-8,8s3.6,8,8,8s8-3.6,8-8S16.4,4,12,4z M12,18c-0.3,0-0.5-0.1-0.7-0.3l-3-3C8,14.4,7.9,14,8.1,13.6S8.6,13,9,13h1
		c0.7,0,1.4-0.4,1.7-1H9c-0.6,0-1-0.4-1-1s0.4-1,1-1h2.7c-0.3-0.6-1-1-1.7-1H9C8.4,9,8,8.6,8,8s0.4-1,1-1h6c0.6,0,1,0.4,1,1
		s-0.4,1-1,1h-1.5c0.2,0.3,0.3,0.6,0.4,1H15c0.6,0,1,0.4,1,1s-0.4,1-1,1h-1.1c-0.3,1.3-1.4,2.4-2.6,2.8l1.5,1.5c0.4,0.4,0.4,1,0,1.4
		C12.5,17.9,12.3,18,12,18z"/>
</g>
</svg>
