<?xml version="1.0" encoding="utf-8"?>
<!-- Generator: Adobe Illustrator 24.1.3, SVG Export Plug-In . SVG Version: 6.00 Build 0)  -->
<svg version="1.1" id="Layer_1" xmlns="http://www.w3.org/2000/svg" xmlns:xlink="http://www.w3.org/1999/xlink" x="0px" y="0px"
	 viewBox="0 0 24 24" style="enable-background:new 0 0 24 24;" xml:space="preserve">
<style type="text/css">
	.st0{fill:#4A5568;}
</style>
<g>
	<path class="st0" d="M12,22C6.5,22,2,17.5,2,12C2,6.5,6.5,2,12,2c5.5,0,10,4.5,10,10C22,17.5,17.5,22,12,22z M12,4
		c-4.4,0-8,3.6-8,8s3.6,8,8,8s8-3.6,8-8S16.4,4,12,4z M12,18c-1.1,0-2.2-0.7-3-2c-0.3-0.5-0.5-1-0.7-1.5H8c-0.6,0-1-0.4-1-1
		c0-0.6,0.4-1,1-1h0c0-0.3,0-0.7,0-1h0c-0.6,0-1-0.4-1-1s0.4-1,1-1h0.4C8.5,8.9,8.7,8.4,9,7.9C9.8,6.7,10.9,6,12,6s2.2,0.7,3,1.9
		c0.3,0.5,0.1,1.1-0.3,1.4c-0.5,0.3-1.1,0.1-1.4-0.3c-0.7-1.2-1.8-1.2-2.5,0c-0.1,0.2-0.2,0.3-0.3,0.5H12c0.6,0,1,0.4,1,1
		s-0.4,1-1,1h-2c0,0.3,0,0.7,0,1h2c0.6,0,1,0.4,1,1c0,0.6-0.4,1-1,1h-1.5c0.1,0.2,0.2,0.4,0.3,0.5c0.7,1.2,1.8,1.2,2.5,0
		c0.3-0.5,0.9-0.6,1.4-0.3c0.5,0.3,0.6,0.9,0.3,1.4C14.2,17.3,13.1,18,12,18z"/>
</g>
</svg>
