<?xml version="1.0" encoding="utf-8"?>
<!-- Generator: Adobe Illustrator 24.1.3, SVG Export Plug-In . SVG Version: 6.00 Build 0)  -->
<svg version="1.1" id="Layer_1" xmlns="http://www.w3.org/2000/svg" xmlns:xlink="http://www.w3.org/1999/xlink" x="0px" y="0px"
	 viewBox="0 0 24 24" style="enable-background:new 0 0 24 24;" xml:space="preserve">
<style type="text/css">
	.st0{fill:#4A5568;}
</style>
<g>
	<path class="st0" d="M12,22C6.5,22,2,17.5,2,12C2,6.5,6.5,2,12,2c5.5,0,10,4.5,10,10C22,17.5,17.5,22,12,22z M12,4
		c-4.4,0-8,3.6-8,8s3.6,8,8,8s8-3.6,8-8S16.4,4,12,4z M12,18c-0.6,0-1-0.4-1-1v-1H9c-0.6,0-1-0.4-1-1s0.4-1,1-1h2v-0.7L10.8,13H9
		c-0.6,0-1-0.4-1-1s0.4-1,1-1h0.6L8.1,8.5C7.9,8,8,7.4,8.5,7.1C9,6.9,9.6,7,9.9,7.5L12,11H12l2.1-3.5C14.4,7,15,6.9,15.5,7.1
		C16,7.4,16.1,8,15.9,8.5L14.4,11H15c0.6,0,1,0.4,1,1s-0.4,1-1,1h-1.8L13,13.3V14h2c0.6,0,1,0.4,1,1s-0.4,1-1,1h-2v1
		C13,17.6,12.6,18,12,18z"/>
</g>
</svg>
