<?xml version="1.0" encoding="utf-8"?>
<!-- Generator: Adobe Illustrator 24.1.3, SVG Export Plug-In . SVG Version: 6.00 Build 0)  -->
<svg version="1.1" id="Layer_1" xmlns="http://www.w3.org/2000/svg" xmlns:xlink="http://www.w3.org/1999/xlink" x="0px" y="0px"
	 viewBox="0 0 20 20" style="enable-background:new 0 0 20 20;" xml:space="preserve">
<style type="text/css">
	.st0{fill:#374151;}
</style>
<path class="st0" d="M3,12v3c0,1.7,3.1,3,7,3c3.9,0,7-1.3,7-3v-3c0,1.7-3.1,3-7,3C6.1,15,3,13.7,3,12z"/>
<path class="st0" d="M3,7v3c0,1.7,3.1,3,7,3c3.9,0,7-1.3,7-3V7c0,1.7-3.1,3-7,3C6.1,10,3,8.7,3,7z"/>
<path class="st0" d="M17,5c0,1.7-3.1,3-7,3C6.1,8,3,6.7,3,5s3.1-3,7-3C13.9,2,17,3.3,17,5z"/>
</svg>
