<?xml version="1.0" encoding="utf-8"?>
<!-- Generator: Adobe Illustrator 24.1.3, SVG Export Plug-In . SVG Version: 6.00 Build 0)  -->
<svg version="1.1" id="Layer_1" xmlns="http://www.w3.org/2000/svg" xmlns:xlink="http://www.w3.org/1999/xlink" x="0px" y="0px"
	 viewBox="0 0 24 24" style="enable-background:new 0 0 24 24;" xml:space="preserve">
<style type="text/css">
	.st0{fill:#4B5563;}
</style>
<g>
	<path class="st0" d="M16,22H8c-0.4,0-0.8-0.2-0.9-0.6S7,20.6,7.3,20.3l0.8-0.8L8.5,18H5c-1.7,0-3-1.3-3-3V5c0-1.7,1.3-3,3-3h14
		c1.7,0,3,1.3,3,3v10c0,1.7-1.3,3-3,3h-3.5l0.4,1.5l0.8,0.8c0.3,0.3,0.4,0.7,0.2,1.1C16.8,21.8,16.4,22,16,22z M15,20L15,20L15,20z
		 M10,20H14l-0.5-2h-2.9L10,20z M14.3,16H19c0.6,0,1-0.4,1-1v-1H4v1c0,0.6,0.4,1,1,1h4.7c0,0,0,0,0,0H14.3C14.2,16,14.3,16,14.3,16z
		 M4,12h16V5c0-0.6-0.4-1-1-1H5C4.4,4,4,4.4,4,5V12z"/>
</g>
</svg>
