<?xml version="1.0" encoding="utf-8"?>
<!-- Generator: Adobe Illustrator 24.1.3, SVG Export Plug-In . SVG Version: 6.00 Build 0)  -->
<svg version="1.1" id="Layer_1" xmlns="http://www.w3.org/2000/svg" xmlns:xlink="http://www.w3.org/1999/xlink" x="0px" y="0px"
	 viewBox="0 0 24 24" style="enable-background:new 0 0 24 24;" xml:space="preserve">
<style type="text/css">
	.st0{fill:#374151;}
</style>
<g>
	<path class="st0" d="M16,22H8c-1.7,0-3-1.3-3-3V5c0-1.7,1.3-3,3-3h8c1.7,0,3,1.3,3,3v14C19,20.7,17.7,22,16,22z M8,4
		C7.4,4,7,4.4,7,5v14c0,0.6,0.4,1,1,1h8c0.6,0,1-0.4,1-1V5c0-0.6-0.4-1-1-1H8z M12,19c-0.6,0-1-0.4-1-1s0.4-1,1-1h0c0.6,0,1,0.4,1,1
		S12.6,19,12,19z"/>
</g>
</svg>
