<?xml version="1.0" encoding="utf-8"?>
<!-- Generator: Adobe Illustrator 24.1.3, SVG Export Plug-In . SVG Version: 6.00 Build 0)  -->
<svg version="1.1" id="Layer_1" xmlns="http://www.w3.org/2000/svg" xmlns:xlink="http://www.w3.org/1999/xlink" x="0px" y="0px"
	 viewBox="0 0 24 24" style="enable-background:new 0 0 24 24;" xml:space="preserve">
<style type="text/css">
	.st0{fill:#4A5568;}
</style>
<g>
	<path class="st0" d="M17,22H7c-1.7,0-3-1.3-3-3V5c0-1.7,1.3-3,3-3h5.6c0.5,0,1,0.2,1.4,0.6L19.4,8C19.8,8.4,20,8.9,20,9.4V19
		C20,20.7,18.7,22,17,22z M7,4C6.4,4,6,4.4,6,5v14c0,0.6,0.4,1,1,1h10c0.6,0,1-0.4,1-1V9.4L12.6,4H7z M12,17C12,17,12,17,12,17
		L12,17c-0.1,0-0.3,0-0.4-0.1c-0.1,0-0.2-0.1-0.3-0.2l-3-3c-0.4-0.4-0.4-1,0-1.4s1-0.4,1.4,0l1.3,1.3V10c0-0.6,0.4-1,1-1s1,0.4,1,1
		v3.6l1.3-1.3c0.4-0.4,1-0.4,1.4,0s0.4,1,0,1.4l-3,3c-0.1,0.1-0.2,0.2-0.3,0.2C12.3,17,12.1,17,12,17L12,17C12,17,12,17,12,17z"/>
</g>
</svg>
