<?xml version="1.0" encoding="utf-8"?>
<!-- Generator: Adobe Illustrator 24.1.3, SVG Export Plug-In . SVG Version: 6.00 Build 0)  -->
<svg version="1.1" id="Layer_1" xmlns="http://www.w3.org/2000/svg" xmlns:xlink="http://www.w3.org/1999/xlink" x="0px" y="0px"
	 viewBox="0 0 24 24" style="enable-background:new 0 0 24 24;" xml:space="preserve">
<style type="text/css">
	.st0{fill:#4A5568;}
</style>
<g>
	<path class="st0" d="M14,22H6c-1.7,0-3-1.3-3-3V9c0-1.7,1.3-3,3-3h1V5c0-1.7,1.3-3,3-3h4.6c0.5,0,1,0.2,1.4,0.6L20.4,7
		C20.8,7.4,21,7.9,21,8.4V15c0,1.7-1.3,3-3,3h-1v1C17,20.7,15.7,22,14,22z M6,8C5.4,8,5,8.4,5,9v10c0,0.6,0.4,1,1,1h8
		c0.6,0,1-0.4,1-1v-1h-5c-1.7,0-3-1.3-3-3V8H6z M16,16h2c0.6,0,1-0.4,1-1V8.4L14.6,4H10C9.4,4,9,4.4,9,5v10c0,0.6,0.4,1,1,1H16z"/>
</g>
</svg>
