<?xml version="1.0" encoding="utf-8"?>
<!-- Generator: Adobe Illustrator 24.1.3, SVG Export Plug-In . SVG Version: 6.00 Build 0)  -->
<svg version="1.1" id="Layer_1" xmlns="http://www.w3.org/2000/svg" xmlns:xlink="http://www.w3.org/1999/xlink" x="0px" y="0px"
	 viewBox="0 0 24 24" style="enable-background:new 0 0 24 24;" xml:space="preserve">
<style type="text/css">
	.st0{fill:#374151;}
</style>
<g>
	<path class="st0" d="M17,22h-7c-0.6,0-1-0.4-1-1s0.4-1,1-1h7c0.6,0,1-0.4,1-1V9.4L12.6,4H7C6.4,4,6,4.4,6,5v11c0,0.6-0.4,1-1,1
		s-1-0.4-1-1V5c0-1.7,1.3-3,3-3h5.6c0.5,0,1,0.2,1.4,0.6L19.4,8C19.8,8.4,20,8.9,20,9.4V19C20,20.7,18.7,22,17,22z M5,22
		c-0.3,0-0.5-0.1-0.7-0.3c-0.4-0.4-0.4-1,0-1.4L8.6,16C8.2,15.4,8,14.7,8,14c0-2.2,1.8-4,4-4c2.2,0,4,1.8,4,4c0,2.2-1.8,4-4,4
		c-0.7,0-1.4-0.2-2-0.6l-4.3,4.3C5.5,21.9,5.3,22,5,22z M12,12c-1.1,0-2,0.9-2,2c0,0.5,0.2,1,0.6,1.4h0C11,15.8,11.5,16,12,16
		c1.1,0,2-0.9,2-2C14,12.9,13.1,12,12,12z"/>
</g>
</svg>
