<?xml version="1.0" encoding="utf-8"?>
<!-- Generator: Adobe Illustrator 24.1.3, SVG Export Plug-In . SVG Version: 6.00 Build 0)  -->
<svg version="1.1" id="Layer_1" xmlns="http://www.w3.org/2000/svg" xmlns:xlink="http://www.w3.org/1999/xlink" x="0px" y="0px"
	 viewBox="0 0 20 20" style="enable-background:new 0 0 20 20;" xml:space="preserve">
<style type="text/css">
	.st0{fill-rule:evenodd;clip-rule:evenodd;fill:#4A5568;}
</style>
<path class="st0" d="M3,17c0-0.6,0.4-1,1-1h12c0.6,0,1,0.4,1,1s-0.4,1-1,1H4C3.4,18,3,17.6,3,17z M6.3,9.3c0.4-0.4,1-0.4,1.4,0
	L9,10.6V3c0-0.6,0.4-1,1-1c0.6,0,1,0.4,1,1v7.6l1.3-1.3c0.4-0.4,1-0.4,1.4,0c0.4,0.4,0.4,1,0,1.4l-3,3C10.5,13.9,10.3,14,10,14
	c-0.3,0-0.5-0.1-0.7-0.3l-3-3C5.9,10.3,5.9,9.7,6.3,9.3z"/>
</svg>
