<?xml version="1.0" encoding="utf-8"?>
<!-- Generator: Adobe Illustrator 24.1.3, SVG Export Plug-In . SVG Version: 6.00 Build 0)  -->
<svg version="1.1" id="Layer_1" xmlns="http://www.w3.org/2000/svg" xmlns:xlink="http://www.w3.org/1999/xlink" x="0px" y="0px"
	 viewBox="0 0 24 24" style="enable-background:new 0 0 24 24;" xml:space="preserve">
<style type="text/css">
	.st0{fill:#4A5568;}
</style>
<g>
	<path class="st0" d="M12,22C6.5,22,2,17.5,2,12C2,6.5,6.5,2,12,2c5.5,0,10,4.5,10,10C22,17.5,17.5,22,12,22z M12,4
		c-4.4,0-8,3.6-8,8s3.6,8,8,8s8-3.6,8-8S16.4,4,12,4z M9.2,17.2c-0.3,0-0.5-0.1-0.7-0.3c-0.4-0.4-0.4-1,0-1.4
		C9.4,14.5,10.7,14,12,14c1.3,0,2.6,0.5,3.5,1.5c0.4,0.4,0.4,1,0,1.4c-0.4,0.4-1,0.4-1.4,0c-1.1-1.1-3.1-1.1-4.2,0
		C9.7,17.1,9.4,17.2,9.2,17.2z M15,11c-0.6,0-1-0.4-1-1s0.4-1,1-1h0c0.6,0,1,0.4,1,1S15.6,11,15,11z M9,11c-0.6,0-1-0.4-1-1
		s0.4-1,1-1h0c0.6,0,1,0.4,1,1S9.6,11,9,11z"/>
</g>
</svg>
