<?xml version="1.0" encoding="utf-8"?>
<!-- Generator: Adobe Illustrator 24.1.3, SVG Export Plug-In . SVG Version: 6.00 Build 0)  -->
<svg version="1.1" id="Layer_1" xmlns="http://www.w3.org/2000/svg" xmlns:xlink="http://www.w3.org/1999/xlink" x="0px" y="0px"
	 viewBox="0 0 24 24" style="enable-background:new 0 0 24 24;" xml:space="preserve">
<style type="text/css">
	.st0{fill:#4A5568;}
</style>
<g>
	<path class="st0" d="M18.9,20H5.1C4,20,3,19.4,2.5,18.5c-0.5-0.9-0.5-2.1,0-3l6.9-12C9.9,2.6,10.9,2,12,2c1.1,0,2.1,0.6,2.6,1.5
		l6.9,12c0.5,0.9,0.5,2.1,0,3C21,19.4,20,20,18.9,20z M12,4c-0.2,0-0.6,0-0.9,0.5l-6.9,12c-0.3,0.5-0.1,0.8,0,1
		C4.3,17.7,4.6,18,5.1,18h13.9c0.5,0,0.8-0.3,0.9-0.5s0.3-0.5,0-1l-6.9-12C12.6,4,12.2,4,12,4z M12,16c-0.6,0-1-0.4-1-1s0.4-1,1-1h0
		c0.6,0,1,0.4,1,1S12.6,16,12,16z M12,12c-0.6,0-1-0.4-1-1V9c0-0.6,0.4-1,1-1s1,0.4,1,1v2C13,11.6,12.6,12,12,12z"/>
</g>
</svg>
