<?xml version="1.0" encoding="utf-8"?>
<!-- Generator: Adobe Illustrator 24.1.3, SVG Export Plug-In . SVG Version: 6.00 Build 0)  -->
<svg version="1.1" id="Layer_1" xmlns="http://www.w3.org/2000/svg" xmlns:xlink="http://www.w3.org/1999/xlink" x="0px" y="0px"
	 viewBox="0 0 20 20" style="enable-background:new 0 0 20 20;" xml:space="preserve">
<style type="text/css">
	.st0{fill:#4A5568;}
</style>
<path class="st0" d="M11,3c-0.6,0-1,0.4-1,1s0.4,1,1,1h2.6l-6.3,6.3c-0.4,0.4-0.4,1,0,1.4c0.4,0.4,1,0.4,1.4,0L15,6.4V9
	c0,0.6,0.4,1,1,1c0.6,0,1-0.4,1-1V4c0-0.6-0.4-1-1-1H11z"/>
<path class="st0" d="M5,5C3.9,5,3,5.9,3,7v8c0,1.1,0.9,2,2,2h8c1.1,0,2-0.9,2-2v-3c0-0.6-0.4-1-1-1s-1,0.4-1,1v3H5V7h3
	c0.6,0,1-0.4,1-1S8.6,5,8,5H5z"/>
</svg>
