<?xml version="1.0" encoding="utf-8"?>
<!-- Generator: Adobe Illustrator 24.1.3, SVG Export Plug-In . SVG Version: 6.00 Build 0)  -->
<svg version="1.1" id="Layer_1" xmlns="http://www.w3.org/2000/svg" xmlns:xlink="http://www.w3.org/1999/xlink" x="0px" y="0px"
	 viewBox="0 0 24 24" style="enable-background:new 0 0 24 24;" xml:space="preserve">
<style type="text/css">
	.st0{fill:#4B5563;}
</style>
<g>
	<path class="st0" d="M21,22c-0.3,0-0.5-0.1-0.7-0.3l-3.6-3.6c0,0,0,0,0,0L5.9,7.3c0,0,0,0,0,0L2.3,3.7c-0.4-0.4-0.4-1,0-1.4
		s1-0.4,1.4,0l3,3C8.4,4.5,10.2,4,12,4c4.8,0,9,3.1,10.5,7.7c0.1,0.2,0.1,0.4,0,0.6c-0.6,2.1-1.9,3.9-3.6,5.2l2.8,2.8
		c0.4,0.4,0.4,1,0,1.4C21.5,21.9,21.3,22,21,22z M15.4,14l2.1,2.1c1.4-1.1,2.4-2.5,3-4.1c-1.3-3.6-4.6-6-8.5-6
		c-1.3,0-2.6,0.3-3.8,0.8L10,8.6C10.6,8.2,11.3,8,12,8c2.2,0,4,1.8,4,4C16,12.7,15.8,13.4,15.4,14z M11.5,10.1l2.5,2.5
		c0-0.2,0.1-0.3,0.1-0.5c0-1.1-0.9-2-2-2C11.8,10,11.6,10,11.5,10.1z M12,20c-4.8,0-9-3.1-10.5-7.7c-0.1-0.2-0.1-0.4,0-0.6
		c0.4-1.2,1-2.3,1.7-3.3c0.3-0.4,1-0.5,1.4-0.2c0.4,0.3,0.5,1,0.2,1.4c-0.6,0.7-1,1.6-1.3,2.4c1.3,3.6,4.6,6,8.5,6
		c0.6,0,1.1-0.1,1.7-0.2c0.6-0.1,1.1,0.3,1.2,0.8c0.1,0.5-0.3,1.1-0.8,1.2C13.4,19.9,12.7,20,12,20z"/>
</g>
</svg>
