<?xml version="1.0" encoding="utf-8"?>
<!-- Generator: Adobe Illustrator 24.1.3, SVG Export Plug-In . SVG Version: 6.00 Build 0)  -->
<svg version="1.1" id="Layer_1" xmlns="http://www.w3.org/2000/svg" xmlns:xlink="http://www.w3.org/1999/xlink" x="0px" y="0px"
	 viewBox="0 0 24 24" style="enable-background:new 0 0 24 24;" xml:space="preserve">
<style type="text/css">
	.st0{fill:#4A5568;}
</style>
<g>
	<path class="st0" d="M12,16c-2.2,0-4-1.8-4-4c0-2.2,1.8-4,4-4c2.2,0,4,1.8,4,4C16,14.2,14.2,16,12,16z M12,10c-1.1,0-2,0.9-2,2
		c0,1.1,0.9,2,2,2c1.1,0,2-0.9,2-2C14,10.9,13.1,10,12,10z"/>
</g>
<g>
	<path class="st0" d="M12,20c-4.8,0-9-3.1-10.5-7.7c-0.1-0.2-0.1-0.4,0-0.6C3,7.1,7.2,4,12,4c4.8,0,9.1,3.1,10.5,7.7
		c0.1,0.2,0.1,0.4,0,0.6C21,16.9,16.8,20,12,20z M3.5,12c1.3,3.6,4.6,6,8.5,6c3.8,0,7.2-2.4,8.5-6c-1.3-3.6-4.6-6-8.5-6
		C8.2,6,4.8,8.4,3.5,12z"/>
</g>
</svg>
