<?xml version="1.0" encoding="utf-8"?>
<!-- Generator: Adobe Illustrator 24.1.3, SVG Export Plug-In . SVG Version: 6.00 Build 0)  -->
<svg version="1.1" id="Layer_1" xmlns="http://www.w3.org/2000/svg" xmlns:xlink="http://www.w3.org/1999/xlink" x="0px" y="0px"
	 viewBox="0 0 20 20" style="enable-background:new 0 0 20 20;" xml:space="preserve">
<style type="text/css">
	.st0{fill:#374151;}
</style>
<path class="st0" d="M4.6,5.2c-0.3-0.2-0.7-0.2-1,0S3,5.6,3,6v8c0,0.4,0.2,0.7,0.5,0.9c0.3,0.2,0.7,0.2,1,0l5.4-3.6V14
	c0,0.4,0.2,0.7,0.5,0.9c0.3,0.2,0.7,0.2,1,0l6-4c0.3-0.2,0.4-0.5,0.4-0.8c0-0.3-0.2-0.6-0.4-0.8l-6-4c-0.3-0.2-0.7-0.2-1,0
	C10.2,5.3,10,5.6,10,6v2.8L4.6,5.2z"/>
</svg>
