<?xml version="1.0" encoding="utf-8"?>
<!-- Generator: Adobe Illustrator 24.1.3, SVG Export Plug-In . SVG Version: 6.00 Build 0)  -->
<svg version="1.1" id="Layer_1" xmlns="http://www.w3.org/2000/svg" xmlns:xlink="http://www.w3.org/1999/xlink" x="0px" y="0px"
	 viewBox="0 0 24 24" style="enable-background:new 0 0 24 24;" xml:space="preserve">
<style type="text/css">
	.st0{fill:#374151;}
</style>
<g>
	<path class="st0" d="M20,21H4c-1.1,0-2-0.9-2-2V5c0-1.1,0.9-2,2-2h16c1.1,0,2,0.9,2,2v14C22,20.1,21.1,21,20,21z M18,19h2v-2h-2V19
		z M8,19h8v-6H8V19z M4,17v2h2v-2H4z M18,15h2v-2h-2V15z M4,15h2v-2H4V15z M18,11h2V9h-2V11z M8,11h8V5H8V11z M4,11h2V9H4V11z M18,7
		h2V5h-2V7z M4,7h2V5H4V7z"/>
</g>
</svg>
