<?xml version="1.0" encoding="utf-8"?>
<!-- Generator: Adobe Illustrator 24.1.3, SVG Export Plug-In . SVG Version: 6.00 Build 0)  -->
<svg version="1.1" id="Layer_1" xmlns="http://www.w3.org/2000/svg" xmlns:xlink="http://www.w3.org/1999/xlink" x="0px" y="0px"
	 viewBox="0 0 20 20" style="enable-background:new 0 0 20 20;" xml:space="preserve">
<style type="text/css">
	.st0{fill-rule:evenodd;clip-rule:evenodd;fill:#374151;}
</style>
<path class="st0" d="M6.6,2.7C7.7,2.2,8.8,2,10,2c5,0,9,4,9,9c0,0.6-0.4,1-1,1s-1-0.4-1-1c0-3.9-3.1-7-7-7C9.1,4,8.2,4.2,7.4,4.5
	C6.9,4.7,6.3,4.5,6.1,4C5.9,3.4,6.1,2.9,6.6,2.7z M4.7,5c0.4,0.4,0.5,1,0.1,1.4C3.7,7.6,3,9.2,3,11c0,0.6-0.4,1-1,1s-1-0.4-1-1
	c0-2.3,0.9-4.4,2.3-6C3.6,4.6,4.2,4.6,4.7,5z"/>
<path class="st0" d="M5,11c0-2.8,2.2-5,5-5c2.8,0,5,2.2,5,5c0,0.6-0.4,1-1,1s-1-0.4-1-1c0-1.7-1.3-3-3-3c-1.7,0-3,1.3-3,3
	c0,1.7-0.3,3.3-1,4.7c-0.2,0.5-0.8,0.7-1.3,0.5C4.2,16,4,15.4,4.2,14.9C4.7,13.7,5,12.4,5,11z M13.9,13c0.5,0.1,0.9,0.6,0.8,1.1
	c-0.1,0.8-0.3,1.6-0.5,2.4c-0.2,0.5-0.7,0.8-1.2,0.7c-0.5-0.2-0.8-0.7-0.7-1.2c0.2-0.7,0.4-1.4,0.5-2.2C12.9,13.3,13.4,12.9,13.9,13
	z"/>
<path class="st0" d="M10,10c0.6,0,1,0.4,1,1c0,2.2-0.5,4.4-1.3,6.3c-0.2,0.5-0.8,0.7-1.3,0.5c-0.5-0.2-0.7-0.8-0.5-1.3
	C8.6,14.8,9,13,9,11C9,10.4,9.4,10,10,10z"/>
</svg>
