<?xml version="1.0" encoding="utf-8"?>
<!-- Generator: Adobe Illustrator 24.1.3, SVG Export Plug-In . SVG Version: 6.00 Build 0)  -->
<svg version="1.1" id="Layer_1" xmlns="http://www.w3.org/2000/svg" xmlns:xlink="http://www.w3.org/1999/xlink" x="0px" y="0px"
	 viewBox="0 0 24 24" style="enable-background:new 0 0 24 24;" xml:space="preserve">
<style type="text/css">
	.st0{fill:#374151;}
</style>
<g>
	<path class="st0" d="M12,22c-2.3,0-4.6-0.9-6.4-2.6C3.9,17.7,3,15.4,3,13c0-2.4,0.9-4.7,2.6-6.4c0.2-0.2,0.6-0.3,0.9-0.3
		C6.9,6.4,7.1,6.7,7.3,7c0,0,0.3,0.6,0.9,1.2c0.3-1.9,1.1-4.2,3.2-5.9c0.4-0.3,1-0.3,1.3,0.1c1,1,2,1.7,3,2.3c1,0.6,1.8,1.2,2.7,2
		c1.7,1.7,2.6,4,2.6,6.4c0,2.4-0.9,4.7-2.6,6.4l0,0C16.6,21.1,14.3,22,12,22z M6.2,9C5.4,10.2,5,11.6,5,13c0,1.9,0.7,3.6,2.1,5
		c2.7,2.7,7.2,2.7,9.9,0c1.3-1.3,2-3.1,2-5c0-1.9-0.7-3.6-2-4.9c-0.7-0.7-1.5-1.2-2.3-1.8c-0.8-0.5-1.7-1.1-2.6-1.9
		c-1.6,1.7-2,4-2,5.6c0,0.3-0.2,0.7-0.5,0.9c-0.3,0.2-0.7,0.2-1,0C7.5,10.4,6.7,9.6,6.2,9z M17.7,18.7L17.7,18.7L17.7,18.7z"/>
</g>
<g>
	<path class="st0" d="M12,18c-1.1,0-2.1-0.4-2.8-1.2l0,0l0,0C8.4,16.1,8,15.1,8,14c0-0.6,0.4-1,1-1h1.3l0.8-2.3
		c0.1-0.4,0.5-0.7,0.9-0.7c0,0,0,0,0,0c1.1,0,2.1,0.4,2.8,1.2c0.8,0.8,1.2,1.8,1.2,2.8s-0.4,2.1-1.2,2.8C14.1,17.6,13.1,18,12,18z
		 M10.3,15c0.1,0.1,0.2,0.3,0.3,0.4l0,0c0.8,0.8,2.1,0.8,2.8,0C13.8,15,14,14.5,14,14s-0.2-1-0.6-1.4c-0.2-0.2-0.5-0.4-0.7-0.5
		l-0.7,2.2C11.8,14.7,11.4,15,11,15H10.3z"/>
</g>
</svg>
