<?xml version="1.0" encoding="utf-8"?>
<!-- Generator: Adobe Illustrator 24.1.3, SVG Export Plug-In . SVG Version: 6.00 Build 0)  -->
<svg version="1.1" id="Layer_1" xmlns="http://www.w3.org/2000/svg" xmlns:xlink="http://www.w3.org/1999/xlink" x="0px" y="0px"
	 viewBox="0 0 20 20" style="enable-background:new 0 0 20 20;" xml:space="preserve">
<style type="text/css">
	.st0{fill-rule:evenodd;clip-rule:evenodd;fill:#374151;}
	.st1{fill:#374151;}
</style>
<path class="st0" d="M2,6c0-1.1,0.9-2,2-2h4l2,2h4c1.1,0,2,0.9,2,2v1H8c-1.7,0-3,1.3-3,3v1.5C5,14.3,4.3,15,3.5,15S2,14.3,2,13.5V6z
	"/>
<path class="st1" d="M6,12c0-1.1,0.9-2,2-2h8c1.1,0,2,0.9,2,2v2c0,1.1-0.9,2-2,2H2h2c1.1,0,2-0.9,2-2V12z"/>
</svg>
