<?xml version="1.0" encoding="utf-8"?>
<!-- Generator: Adobe Illustrator 24.1.3, SVG Export Plug-In . SVG Version: 6.00 Build 0)  -->
<svg version="1.1" id="Layer_1" xmlns="http://www.w3.org/2000/svg" xmlns:xlink="http://www.w3.org/1999/xlink" x="0px" y="0px"
	 viewBox="0 0 24 24" style="enable-background:new 0 0 24 24;" xml:space="preserve">
<style type="text/css">
	.st0{fill:#374151;}
</style>
<g>
	<path class="st0" d="M19,20H5c-1.7,0-3-1.3-3-3V7c0-1.7,1.3-3,3-3h6c0.3,0,0.5,0.1,0.7,0.3L13.4,6H19c1.7,0,3,1.3,3,3v8
		C22,18.7,20.7,20,19,20z M5,6C4.4,6,4,6.4,4,7v10c0,0.6,0.4,1,1,1h14c0.6,0,1-0.4,1-1V9c0-0.6-0.4-1-1-1h-6c-0.3,0-0.5-0.1-0.7-0.3
		L10.6,6H5z M15,14H9c-0.6,0-1-0.4-1-1c0-0.6,0.4-1,1-1h6c0.6,0,1,0.4,1,1C16,13.6,15.6,14,15,14z"/>
</g>
</svg>
