<?xml version="1.0" encoding="utf-8"?>
<!-- Generator: Adobe Illustrator 24.1.3, SVG Export Plug-In . SVG Version: 6.00 Build 0)  -->
<svg version="1.1" id="Layer_1" xmlns="http://www.w3.org/2000/svg" xmlns:xlink="http://www.w3.org/1999/xlink" x="0px" y="0px"
	 viewBox="0 0 24 24" style="enable-background:new 0 0 24 24;" xml:space="preserve">
<style type="text/css">
	.st0{fill:#374151;}
</style>
<g>
	<path class="st0" d="M19,20H5c-1.7,0-3-1.3-3-3V7c0-1.7,1.3-3,3-3h6c0.3,0,0.5,0.1,0.7,0.3L13.4,6H19c1.7,0,3,1.3,3,3v8
		C22,18.7,20.7,20,19,20z M5,6C4.4,6,4,6.4,4,7v10c0,0.6,0.4,1,1,1h14c0.6,0,1-0.4,1-1V9c0-0.6-0.4-1-1-1h-6c-0.3,0-0.5-0.1-0.7-0.3
		L10.6,6H5z M12,17C12,17,12,17,12,17L12,17c-0.1,0-0.3,0-0.4-0.1c-0.1,0-0.2-0.1-0.3-0.2l-3-3c-0.4-0.4-0.4-1,0-1.4s1-0.4,1.4,0
		l1.3,1.3V10c0-0.6,0.4-1,1-1s1,0.4,1,1v3.6l1.3-1.3c0.4-0.4,1-0.4,1.4,0s0.4,1,0,1.4l-3,3c-0.1,0.1-0.2,0.2-0.3,0.2
		C12.3,17,12.1,17,12,17L12,17C12,17,12,17,12,17z"/>
</g>
</svg>
