<?xml version="1.0" encoding="utf-8"?>
<!-- Generator: Adobe Illustrator 24.1.3, SVG Export Plug-In . SVG Version: 6.00 Build 0)  -->
<svg version="1.1" id="Layer_1" xmlns="http://www.w3.org/2000/svg" xmlns:xlink="http://www.w3.org/1999/xlink" x="0px" y="0px"
	 viewBox="0 0 24 24" style="enable-background:new 0 0 24 24;" xml:space="preserve">
<style type="text/css">
	.st0{fill:#374151;}
</style>
<g>
	<path class="st0" d="M17,22H7c-1.7,0-3-1.3-3-3v-6.2c-1.2-0.4-2-1.5-2-2.8c0-1.7,1.3-3,3-3h1.3C6.1,6.5,6,6,6,5.5
		C6,3.6,7.6,2,9.5,2c1.2,0,2.2,0.6,2.9,1.5C12.8,3.2,13.4,3,14,3c1.7,0,3,1.3,3,3c0,0.4-0.1,0.7-0.2,1H19c1.7,0,3,1.3,3,3
		c0,1.3-0.8,2.4-2,2.8V19C20,20.7,18.7,22,17,22z M13,20h4c0.6,0,1-0.4,1-1v-6h-5V20z M6,13v6c0,0.6,0.4,1,1,1h4v-7H6z M13,11h6
		c0.6,0,1-0.4,1-1s-0.4-1-1-1h-6V11z M5,11h6V9H5c-0.6,0-1,0.4-1,1S4.4,11,5,11z M13,7h1c0.6,0,1-0.4,1-1s-0.4-1-1-1s-1,0.4-1,1V7z
		 M9.5,7H11V5.5C11,4.7,10.3,4,9.5,4S8,4.7,8,5.5S8.7,7,9.5,7z"/>
</g>
</svg>
