<?xml version="1.0" encoding="utf-8"?>
<!-- Generator: Adobe Illustrator 24.1.3, SVG Export Plug-In . SVG Version: 6.00 Build 0)  -->
<svg version="1.1" id="Layer_1" xmlns="http://www.w3.org/2000/svg" xmlns:xlink="http://www.w3.org/1999/xlink" x="0px" y="0px"
	 viewBox="0 0 24 24" style="enable-background:new 0 0 24 24;" xml:space="preserve">
<style type="text/css">
	.st0{fill:#4A5568;}
</style>
<g>
	<path class="st0" d="M12,22C6.5,22,2,17.5,2,12C2,6.5,6.5,2,12,2c5.5,0,10,4.5,10,10C22,17.5,17.5,22,12,22z M10,13
		c0.2,4.6,1.5,7,2,7s1.8-2.4,2-7H10z M16,13c-0.1,2.4-0.5,4.8-1.2,6.5c2.8-1,4.8-3.5,5.2-6.5H16z M4.1,13c0.4,3,2.4,5.5,5.2,6.5
		C8.5,17.8,8.1,15.4,8,13H4.1z M16,11h4c-0.4-3-2.4-5.5-5.2-6.5C15.5,6.2,15.9,8.6,16,11z M10,11h4c-0.2-4.6-1.5-7-2-7
		S10.2,6.4,10,11z M4.1,11h4c0.1-2.4,0.5-4.8,1.2-6.5C6.5,5.5,4.4,8,4.1,11z"/>
</g>
</svg>
