<?xml version="1.0" encoding="utf-8"?>
<!-- Generator: Adobe Illustrator 24.1.3, SVG Export Plug-In . SVG Version: 6.00 Build 0)  -->
<svg version="1.1" id="Layer_1" xmlns="http://www.w3.org/2000/svg" xmlns:xlink="http://www.w3.org/1999/xlink" x="0px" y="0px"
	 viewBox="0 0 24 24" style="enable-background:new 0 0 24 24;" xml:space="preserve">
<style type="text/css">
	.st0{fill:#4A5568;}
</style>
<g>
	<path class="st0" d="M12,22c-0.4,0-0.7,0-1.1-0.1c0,0,0,0-0.1,0C5.9,21.4,2,17.1,2,12c0-0.4,0-0.7,0.1-1.1c0,0,0,0,0-0.1
		c0.4-3.4,2.5-6.3,5.4-7.8c0,0,0.1-0.1,0.1-0.1C9,2.4,10.4,2,12,2c3.9,0,7.3,2.2,8.9,5.5c0,0,0.1,0.1,0.1,0.1c0.6,1.3,1,2.8,1,4.4
		c0,1.6-0.4,3-1,4.4c0,0.1,0,0.1-0.1,0.1c-1.1,2.3-3.1,4-5.5,4.9c0,0-0.1,0-0.1,0C14.2,21.8,13.1,22,12,22z M4.3,10H5
		c1.7,0,3,1.3,3,3v1c0,0.6,0.4,1,1,1c1.7,0,3,1.3,3,3v2c0.7,0,1.4-0.1,2-0.3V18c0-1.7,1.3-3,3-3h2.4c0.4-0.9,0.6-1.9,0.6-3
		c0-1.1-0.2-2.1-0.6-3H19c-0.6,0-1,0.4-1,1c0,1.7-1.3,3-3,3s-3-1.3-3-3c0-0.6-0.4-1-1-1h-0.5C8.7,9,7.1,7.6,7,5.8
		C5.7,6.8,4.7,8.3,4.3,10z M4,12c0,3.7,2.6,6.9,6,7.7V18c0-0.6-0.4-1-1-1c-1.7,0-3-1.3-3-3v-1c0-0.6-0.4-1-1-1H4z M17,17
		c-0.6,0-1,0.4-1,1v0.9c0.9-0.5,1.6-1.2,2.2-1.9H17z M9,4.6v0.9C9,6.3,9.7,7,10.5,7H11c1.7,0,3,1.3,3,3c0,0.6,0.4,1,1,1s1-0.4,1-1
		c0-1.4,1-2.6,2.3-2.9C16.8,5.2,14.6,4,12,4C10.9,4,9.9,4.2,9,4.6z"/>
</g>
</svg>
