<?xml version="1.0" encoding="utf-8"?>
<!-- Generator: Adobe Illustrator 24.1.3, SVG Export Plug-In . SVG Version: 6.00 Build 0)  -->
<svg version="1.1" id="Layer_1" xmlns="http://www.w3.org/2000/svg" xmlns:xlink="http://www.w3.org/1999/xlink" x="0px" y="0px"
	 viewBox="0 0 20 20" style="enable-background:new 0 0 20 20;" xml:space="preserve">
<style type="text/css">
	.st0{fill-rule:evenodd;clip-rule:evenodd;fill:#374151;}
</style>
<path class="st0" d="M9,3c0-0.6,0.4-1,1-1c0.6,0,1,0.4,1,1v5v0.5C11,8.8,11.2,9,11.5,9S12,8.8,12,8.5V8V4c0-0.6,0.4-1,1-1s1,0.4,1,1
	v4v0.5C14,8.8,14.2,9,14.5,9S15,8.8,15,8.5V8V6c0-0.6,0.4-1,1-1c0.6,0,1,0.4,1,1v5c0,3.9-3.1,7-7,7c-3.9,0-7-3.1-7-7V9
	c0-0.6,0.4-1,1-1s1,0.4,1,1v2v0.5C5,11.8,5.2,12,5.5,12S6,11.8,6,11.5V11v-1V8V4c0-0.6,0.4-1,1-1s1,0.4,1,1v4v0.5C8,8.8,8.2,9,8.5,9
	S9,8.8,9,8.5V8V3z"/>
</svg>
