<?xml version="1.0" encoding="utf-8"?>
<!-- Generator: Adobe Illustrator 24.1.3, SVG Export Plug-In . SVG Version: 6.00 Build 0)  -->
<svg version="1.1" id="Layer_1" xmlns="http://www.w3.org/2000/svg" xmlns:xlink="http://www.w3.org/1999/xlink" x="0px" y="0px"
	 viewBox="0 0 24 24" style="enable-background:new 0 0 24 24;" xml:space="preserve">
<style type="text/css">
	.st0{fill:#4A5568;}
</style>
<g>
	<path class="st0" d="M13,21c-0.1,0-0.2,0-0.2,0c-0.5-0.1-0.9-0.7-0.7-1.2L13,16H9L8,20.2c-0.1,0.5-0.7,0.9-1.2,0.7
		c-0.5-0.1-0.9-0.7-0.7-1.2L7,16H4c-0.6,0-1-0.4-1-1s0.4-1,1-1h3.5l1-4H6c-0.6,0-1-0.4-1-1s0.4-1,1-1h3L10,3.8
		c0.1-0.5,0.7-0.9,1.2-0.7c0.5,0.1,0.9,0.7,0.7,1.2L11,8H15L16,3.8c0.1-0.5,0.7-0.9,1.2-0.7c0.5,0.1,0.9,0.7,0.7,1.2L17,8h3
		c0.6,0,1,0.4,1,1s-0.4,1-1,1h-3.5l-1,4H18c0.6,0,1,0.4,1,1s-0.4,1-1,1h-3L14,20.2C13.9,20.7,13.4,21,13,21z M9.5,14h3.9l1-4h-3.9
		L9.5,14z"/>
</g>
</svg>
