<?xml version="1.0" encoding="utf-8"?>
<!-- Generator: Adobe Illustrator 24.1.3, SVG Export Plug-In . SVG Version: 6.00 Build 0)  -->
<svg version="1.1" id="Layer_1" xmlns="http://www.w3.org/2000/svg" xmlns:xlink="http://www.w3.org/1999/xlink" x="0px" y="0px"
	 viewBox="0 0 20 20" style="enable-background:new 0 0 20 20;" xml:space="preserve">
<style type="text/css">
	.st0{fill:#4A5568;}
</style>
<path class="st0" d="M10.7,2.3c-0.4-0.4-1-0.4-1.4,0l-7,7c-0.4,0.4-0.4,1,0,1.4c0.4,0.4,1,0.4,1.4,0L4,10.4V17c0,0.6,0.4,1,1,1h2
	c0.6,0,1-0.4,1-1v-2c0-0.6,0.4-1,1-1h2c0.6,0,1,0.4,1,1v2c0,0.6,0.4,1,1,1h2c0.6,0,1-0.4,1-1v-6.6l0.3,0.3c0.4,0.4,1,0.4,1.4,0
	c0.4-0.4,0.4-1,0-1.4L10.7,2.3z"/>
</svg>
