<?xml version="1.0" encoding="utf-8"?>
<!-- Generator: Adobe Illustrator 24.1.3, SVG Export Plug-In . SVG Version: 6.00 Build 0)  -->
<svg version="1.1" id="Layer_1" xmlns="http://www.w3.org/2000/svg" xmlns:xlink="http://www.w3.org/1999/xlink" x="0px" y="0px"
	 viewBox="0 0 24 24" style="enable-background:new 0 0 24 24;" xml:space="preserve">
<style type="text/css">
	.st0{fill:#374151;}
</style>
<g>
	<path class="st0" d="M19,20H5c-1.7,0-3-1.3-3-3V8c0-1.7,1.3-3,3-3h4c0-1.7,1.3-3,3-3s3,1.3,3,3h4c1.7,0,3,1.3,3,3v9
		C22,18.7,20.7,20,19,20z M5,7C4.4,7,4,7.4,4,8v9c0,0.6,0.4,1,1,1h14c0.6,0,1-0.4,1-1V8c0-0.6-0.4-1-1-1h-4.2c-0.4,1.2-1.5,2-2.8,2
		S9.6,8.2,9.2,7H5z M11,6c0,0.6,0.4,1,1,1s1-0.4,1-1V5c0-0.6-0.4-1-1-1s-1,0.4-1,1V6z M6.2,17c-0.1,0-0.2,0-0.3-0.1
		c-0.5-0.2-0.8-0.8-0.6-1.3c0.3-0.8,0.8-1.4,1.4-1.9C6.2,13.3,6,12.7,6,12c0-1.7,1.3-3,3-3s3,1.3,3,3c0,0.7-0.2,1.3-0.6,1.8
		c0.6,0.5,1.1,1.1,1.4,1.9c0.2,0.5-0.1,1.1-0.6,1.3c-0.5,0.2-1.1-0.1-1.3-0.6C10.6,15.5,9.8,15,9,15s-1.6,0.5-1.9,1.3
		C7,16.7,6.6,17,6.2,17z M9,11c-0.6,0-1,0.4-1,1s0.4,1,1,1s1-0.4,1-1S9.6,11,9,11z M17,16h-2c-0.6,0-1-0.4-1-1s0.4-1,1-1h2
		c0.6,0,1,0.4,1,1S17.6,16,17,16z M18,12h-3c-0.6,0-1-0.4-1-1s0.4-1,1-1h3c0.6,0,1,0.4,1,1S18.6,12,18,12z"/>
</g>
</svg>
