<?xml version="1.0" encoding="utf-8"?>
<!-- Generator: Adobe Illustrator 24.1.3, SVG Export Plug-In . SVG Version: 6.00 Build 0)  -->
<svg version="1.1" id="Layer_1" xmlns="http://www.w3.org/2000/svg" xmlns:xlink="http://www.w3.org/1999/xlink" x="0px" y="0px"
	 viewBox="0 0 24 24" style="enable-background:new 0 0 24 24;" xml:space="preserve">
<style type="text/css">
	.st0{fill:#4A5568;}
</style>
<g>
	<path class="st0" d="M18,21H6c-1.7,0-3-1.3-3-3V6c0-1.7,1.3-3,3-3h12c1.7,0,3,1.3,3,3v12C21,19.7,19.7,21,18,21z M5,14v4
		c0,0.6,0.4,1,1,1h12c0.6,0,1-0.4,1-1v-4h-1.6L15,16.4c-0.4,0.4-0.9,0.6-1.4,0.6h-3.2c-0.5,0-1-0.2-1.4-0.6L6.6,14H5z M5,12h1.6
		c0.5,0,1,0.2,1.4,0.6l2.4,2.4h3.2l2.4-2.4c0.4-0.4,0.9-0.6,1.4-0.6H19V6c0-0.6-0.4-1-1-1H6C5.4,5,5,5.4,5,6V12z"/>
</g>
</svg>
