<?xml version="1.0" encoding="utf-8"?>
<!-- Generator: Adobe Illustrator 24.1.3, SVG Export Plug-In . SVG Version: 6.00 Build 0)  -->
<svg version="1.1" id="Layer_1" xmlns="http://www.w3.org/2000/svg" xmlns:xlink="http://www.w3.org/1999/xlink" x="0px" y="0px"
	 viewBox="0 0 20 20" style="enable-background:new 0 0 20 20;" xml:space="preserve">
<style type="text/css">
	.st0{fill:#4A5568;}
</style>
<path class="st0" d="M8.7,7.3c-0.4-0.4-1-0.4-1.4,0c-0.4,0.4-0.4,1,0,1.4l2,2C9.5,10.9,9.7,11,10,11c0.3,0,0.5-0.1,0.7-0.3l2-2
	c0.4-0.4,0.4-1,0-1.4c-0.4-0.4-1-0.4-1.4,0L11,7.6V3c0-0.6-0.4-1-1-1C9.4,2,9,2.4,9,3v4.6L8.7,7.3z"/>
<path class="st0" d="M3,5c0-1.1,0.9-2,2-2h1c0.6,0,1,0.4,1,1S6.6,5,6,5H5v7h2l1,2h4l1-2h2V5h-1c-0.6,0-1-0.4-1-1s0.4-1,1-1h1
	c1.1,0,2,0.9,2,2v10c0,1.1-0.9,2-2,2H5c-1.1,0-2-0.9-2-2V5z"/>
</svg>
