<?xml version="1.0" encoding="utf-8"?>
<!-- Generator: Adobe Illustrator 24.1.3, SVG Export Plug-In . SVG Version: 6.00 Build 0)  -->
<svg version="1.1" id="Layer_1" xmlns="http://www.w3.org/2000/svg" xmlns:xlink="http://www.w3.org/1999/xlink" x="0px" y="0px"
	 viewBox="0 0 24 24" style="enable-background:new 0 0 24 24;" xml:space="preserve">
<style type="text/css">
	.st0{fill:#4A5568;}
</style>
<g>
	<path class="st0" d="M7,22H4c-1.1,0-2-0.9-2-2v-2.6c0-0.5,0.2-1,0.6-1.4l5.6-5.6C8,10,8,9.5,8,9c0-3.9,3.1-7,7-7c3.9,0,7,3.1,7,7
		s-3.1,7-7,7c-0.5,0-1,0-1.4-0.1l-1.9,1.9C11.5,17.9,11.3,18,11,18h-1v1c0,0.6-0.4,1-1,1H8v1C8,21.6,7.6,22,7,22z M15,4
		c-2.8,0-5,2.2-5,5c0,0.5,0.1,1,0.2,1.5c0.1,0.4,0,0.7-0.3,1l-6,6V20h2v-1c0-0.6,0.4-1,1-1h1v-1c0-0.6,0.4-1,1-1h1.6l2-2
		c0.3-0.3,0.6-0.4,1-0.3c0.5,0.1,1,0.2,1.5,0.2c2.8,0,5-2.2,5-5S17.8,4,15,4z M17,10c-0.6,0-1-0.4-1-1c0-0.6-0.4-1-1-1
		c-0.6,0-1-0.4-1-1s0.4-1,1-1c1.7,0,3,1.3,3,3C18,9.6,17.6,10,17,10z"/>
</g>
</svg>
