<?xml version="1.0" encoding="utf-8"?>
<!-- Generator: Adobe Illustrator 24.1.3, SVG Export Plug-In . SVG Version: 6.00 Build 0)  -->
<svg version="1.1" id="Layer_1" xmlns="http://www.w3.org/2000/svg" xmlns:xlink="http://www.w3.org/1999/xlink" x="0px" y="0px"
	 viewBox="0 0 24 24" style="enable-background:new 0 0 24 24;" xml:space="preserve">
<style type="text/css">
	.st0{fill:#4B5563;}
</style>
<g>
	<path class="st0" d="M21,22H3c-0.6,0-1-0.4-1-1s0.4-1,1-1v-9c-0.6,0-1-0.4-1-1s0.4-1,1-1h18c0.6,0,1,0.4,1,1s-0.4,1-1,1v9
		c0.6,0,1,0.4,1,1S21.6,22,21,22z M5,20h14v-9H5V20z M16,18c-0.6,0-1-0.4-1-1v-3c0-0.6,0.4-1,1-1s1,0.4,1,1v3C17,17.6,16.6,18,16,18
		z M12,18c-0.6,0-1-0.4-1-1v-3c0-0.6,0.4-1,1-1s1,0.4,1,1v3C13,17.6,12.6,18,12,18z M8,18c-0.6,0-1-0.4-1-1v-3c0-0.6,0.4-1,1-1
		s1,0.4,1,1v3C9,17.6,8.6,18,8,18z M21,8c-0.1,0-0.3,0-0.4-0.1L12,4.1L3.4,7.9c-0.5,0.2-1.1,0-1.3-0.5c-0.2-0.5,0-1.1,0.5-1.3l9-4
		c0.3-0.1,0.6-0.1,0.8,0l9,4c0.5,0.2,0.7,0.8,0.5,1.3C21.7,7.8,21.4,8,21,8z"/>
</g>
</svg>
