<?xml version="1.0" encoding="utf-8"?>
<!-- Generator: Adobe Illustrator 24.1.3, SVG Export Plug-In . SVG Version: 6.00 Build 0)  -->
<svg version="1.1" id="Layer_1" xmlns="http://www.w3.org/2000/svg" xmlns:xlink="http://www.w3.org/1999/xlink" x="0px" y="0px"
	 viewBox="0 0 20 20" style="enable-background:new 0 0 20 20;" xml:space="preserve">
<style type="text/css">
	.st0{fill-rule:evenodd;clip-rule:evenodd;fill:#4A5568;}
</style>
<path class="st0" d="M11.3,1C11.7,1.2,12,1.6,12,2v5h4c0.4,0,0.7,0.2,0.9,0.5c0.2,0.3,0.1,0.7-0.1,1l-7,10c-0.3,0.4-0.7,0.5-1.1,0.4
	C8.3,18.8,8,18.4,8,18v-5H4c-0.4,0-0.7-0.2-0.9-0.5c-0.2-0.3-0.1-0.7,0.1-1l7-10C10.4,1.1,10.9,0.9,11.3,1z"/>
</svg>
