<?xml version="1.0" encoding="utf-8"?>
<!-- Generator: Adobe Illustrator 24.1.3, SVG Export Plug-In . SVG Version: 6.00 Build 0)  -->
<svg version="1.1" id="Layer_1" xmlns="http://www.w3.org/2000/svg" xmlns:xlink="http://www.w3.org/1999/xlink" x="0px" y="0px"
	 viewBox="0 0 20 20" style="enable-background:new 0 0 20 20;" xml:space="preserve">
<style type="text/css">
	.st0{fill:#4A5568;}
</style>
<path class="st0" d="M11,3c0-0.6-0.4-1-1-1C9.4,2,9,2.4,9,3v1c0,0.6,0.4,1,1,1c0.6,0,1-0.4,1-1V3z"/>
<path class="st0" d="M15.7,5.8c0.4-0.4,0.4-1,0-1.4c-0.4-0.4-1-0.4-1.4,0l-0.7,0.7c-0.4,0.4-0.4,1,0,1.4c0.4,0.4,1,0.4,1.4,0
	L15.7,5.8z"/>
<path class="st0" d="M18,10c0,0.6-0.4,1-1,1h-1c-0.6,0-1-0.4-1-1c0-0.6,0.4-1,1-1h1C17.6,9,18,9.4,18,10z"/>
<path class="st0" d="M5.1,6.5c0.4,0.4,1,0.4,1.4,0c0.4-0.4,0.4-1,0-1.4L5.8,4.3C5.4,4,4.7,4,4.3,4.3C4,4.7,4,5.4,4.3,5.8L5.1,6.5z"
	/>
<path class="st0" d="M5,10c0,0.6-0.4,1-1,1H3c-0.6,0-1-0.4-1-1c0-0.6,0.4-1,1-1h1C4.6,9,5,9.4,5,10z"/>
<path class="st0" d="M8,16v-1h4v1c0,1.1-0.9,2-2,2C8.9,18,8,17.1,8,16z"/>
<path class="st0" d="M12,14c0-0.3,0.2-0.6,0.5-0.9c0.9-0.7,1.5-1.9,1.5-3.1c0-2.2-1.8-4-4-4c-2.2,0-4,1.8-4,4c0,1.3,0.6,2.4,1.5,3.1
	C7.8,13.4,8,13.7,8,14H12z"/>
</svg>
