<?xml version="1.0" encoding="utf-8"?>
<!-- Generator: Adobe Illustrator 24.1.3, SVG Export Plug-In . SVG Version: 6.00 Build 0)  -->
<svg version="1.1" id="Layer_1" xmlns="http://www.w3.org/2000/svg" xmlns:xlink="http://www.w3.org/1999/xlink" x="0px" y="0px"
	 viewBox="0 0 20 20" style="enable-background:new 0 0 20 20;" xml:space="preserve">
<style type="text/css">
	.st0{fill-rule:evenodd;clip-rule:evenodd;fill:#4A5568;}
</style>
<path class="st0" d="M12.6,4.6c0.8-0.8,2-0.8,2.8,0c0.8,0.8,0.8,2,0,2.8l-3,3c-0.8,0.8-2,0.8-2.8,0c-0.4-0.4-1-0.4-1.4,0
	c-0.4,0.4-0.4,1,0,1.4c1.6,1.6,4.1,1.6,5.7,0l3-3c1.6-1.6,1.6-4.1,0-5.7c-1.6-1.6-4.1-1.6-5.7,0L9.7,4.7c-0.4,0.4-0.4,1,0,1.4
	c0.4,0.4,1,0.4,1.4,0L12.6,4.6z M7.6,9.6c0.8-0.8,2-0.8,2.8,0c0.4,0.4,1,0.4,1.4,0c0.4-0.4,0.4-1,0-1.4c-1.6-1.6-4.1-1.6-5.7,0l-3,3
	c-1.6,1.6-1.6,4.1,0,5.7c1.6,1.6,4.1,1.6,5.7,0l1.5-1.5c0.4-0.4,0.4-1,0-1.4c-0.4-0.4-1-0.4-1.4,0l-1.5,1.5c-0.8,0.8-2,0.8-2.8,0
	c-0.8-0.8-0.8-2,0-2.8L7.6,9.6z"/>
</svg>
