<?xml version="1.0" encoding="utf-8"?>
<!-- Generator: Adobe Illustrator 24.1.3, SVG Export Plug-In . SVG Version: 6.00 Build 0)  -->
<svg version="1.1" id="Layer_1" xmlns="http://www.w3.org/2000/svg" xmlns:xlink="http://www.w3.org/1999/xlink" x="0px" y="0px"
	 viewBox="0 0 24 24" style="enable-background:new 0 0 24 24;" xml:space="preserve">
<style type="text/css">
	.st0{fill:#4A5568;}
</style>
<g>
	<path class="st0" d="M12,22.5c-0.8,0-1.5-0.3-2.1-0.9l-4.2-4.2C3.9,15.7,3,13.4,3,11c0-2.4,0.9-4.7,2.6-6.4C7.3,2.9,9.6,2,12,2
		c2.4,0,4.7,0.9,6.4,2.6c3.5,3.5,3.5,9.2,0,12.7l0,0l-4.2,4.2C13.5,22.2,12.8,22.5,12,22.5z M12,4c-1.9,0-3.6,0.7-4.9,2.1
		S5,9.1,5,11s0.7,3.6,2.1,5l4.2,4.2c0.4,0.4,1,0.4,1.4,0L17,16c2.7-2.7,2.7-7.2,0-9.9C15.6,4.7,13.9,4,12,4z M17.7,16.7L17.7,16.7
		L17.7,16.7z"/>
</g>
<g>
	<path class="st0" d="M12,15c-2.2,0-4-1.8-4-4c0-2.2,1.8-4,4-4c2.2,0,4,1.8,4,4C16,13.2,14.2,15,12,15z M12,9c-1.1,0-2,0.9-2,2
		s0.9,2,2,2c1.1,0,2-0.9,2-2S13.1,9,12,9z"/>
</g>
</svg>
