<?xml version="1.0" encoding="utf-8"?>
<!-- Generator: Adobe Illustrator 24.1.3, SVG Export Plug-In . SVG Version: 6.00 Build 0)  -->
<svg version="1.1" id="Layer_1" xmlns="http://www.w3.org/2000/svg" xmlns:xlink="http://www.w3.org/1999/xlink" x="0px" y="0px"
	 viewBox="0 0 20 20" style="enable-background:new 0 0 20 20;" xml:space="preserve">
<style type="text/css">
	.st0{fill:#4A5568;}
</style>
<path class="st0" d="M10,2C7.2,2,5,4.2,5,7v2c-1.1,0-2,0.9-2,2v5c0,1.1,0.9,2,2,2h10c1.1,0,2-0.9,2-2v-5c0-1.1-0.9-2-2-2H7V7
	c0-1.7,1.3-3,3-3c1.4,0,2.6,1,2.9,2.2C13,6.8,13.6,7.1,14.1,7c0.5-0.1,0.9-0.7,0.7-1.2C14.3,3.6,12.3,2,10,2z"/>
</svg>
