<?xml version="1.0" encoding="utf-8"?>
<!-- Generator: Adobe Illustrator 24.1.3, SVG Export Plug-In . SVG Version: 6.00 Build 0)  -->
<svg version="1.1" id="Layer_1" xmlns="http://www.w3.org/2000/svg" xmlns:xlink="http://www.w3.org/1999/xlink" x="0px" y="0px"
	 viewBox="0 0 24 24" style="enable-background:new 0 0 24 24;" xml:space="preserve">
<style type="text/css">
	.st0{fill:#4A5568;}
</style>
<g>
	<path class="st0" d="M18,22H6c-1.7,0-3-1.3-3-3v-6c0-1.7,1.3-3,3-3h1V7c0-2.8,2.2-5,5-5s5,2.2,5,5v3h1c1.7,0,3,1.3,3,3v6
		C21,20.7,19.7,22,18,22z M6,12c-0.6,0-1,0.4-1,1v6c0,0.6,0.4,1,1,1h12c0.6,0,1-0.4,1-1v-6c0-0.6-0.4-1-1-1H6z M9,10h6V7
		c0-1.7-1.3-3-3-3S9,5.3,9,7V10z M12,18c-0.6,0-1-0.4-1-1v-2c0-0.6,0.4-1,1-1s1,0.4,1,1v2C13,17.6,12.6,18,12,18z"/>
</g>
</svg>
