<?xml version="1.0" encoding="utf-8"?>
<!-- Generator: Adobe Illustrator 24.1.3, SVG Export Plug-In . SVG Version: 6.00 Build 0)  -->
<svg version="1.1" id="Layer_1" xmlns="http://www.w3.org/2000/svg" xmlns:xlink="http://www.w3.org/1999/xlink" x="0px" y="0px"
	 viewBox="0 0 20 20" style="enable-background:new 0 0 20 20;" xml:space="preserve">
<style type="text/css">
	.st0{fill-rule:evenodd;clip-rule:evenodd;fill:#374151;}
</style>
<path class="st0" d="M3,3c0.6,0,1,0.4,1,1v12c0,0.6-0.4,1-1,1c-0.6,0-1-0.4-1-1V4C2,3.4,2.4,3,3,3z M10.7,6.3c0.4,0.4,0.4,1,0,1.4
	L9.4,9H17c0.6,0,1,0.4,1,1c0,0.6-0.4,1-1,1H9.4l1.3,1.3c0.4,0.4,0.4,1,0,1.4s-1,0.4-1.4,0l-3-3C6.1,10.5,6,10.3,6,10
	c0-0.3,0.1-0.5,0.3-0.7l3-3C9.7,5.9,10.3,5.9,10.7,6.3z"/>
</svg>
