<?xml version="1.0" encoding="utf-8"?>
<!-- Generator: Adobe Illustrator 24.1.3, SVG Export Plug-In . SVG Version: 6.00 Build 0)  -->
<svg version="1.1" id="Layer_1" xmlns="http://www.w3.org/2000/svg" xmlns:xlink="http://www.w3.org/1999/xlink" x="0px" y="0px"
	 viewBox="0 0 20 20" style="enable-background:new 0 0 20 20;" xml:space="preserve">
<style type="text/css">
	.st0{fill-rule:evenodd;clip-rule:evenodd;fill:#374151;}
</style>
<path class="st0" d="M3,3C2.4,3,2,3.4,2,4v12c0,0.6,0.4,1,1,1s1-0.4,1-1V4C4,3.4,3.6,3,3,3z M13.3,12.3c-0.4,0.4-0.4,1,0,1.4
	s1,0.4,1.4,0l3-3c0.2-0.2,0.3-0.4,0.3-0.7c0-0.3-0.1-0.5-0.3-0.7l-3-3c-0.4-0.4-1-0.4-1.4,0c-0.4,0.4-0.4,1,0,1.4L14.6,9H7
	c-0.6,0-1,0.4-1,1c0,0.6,0.4,1,1,1h7.6L13.3,12.3z"/>
</svg>
