<?xml version="1.0" encoding="utf-8"?>
<!-- Generator: Adobe Illustrator 24.1.3, SVG Export Plug-In . SVG Version: 6.00 Build 0)  -->
<svg version="1.1" id="Layer_1" xmlns="http://www.w3.org/2000/svg" xmlns:xlink="http://www.w3.org/1999/xlink" x="0px" y="0px"
	 viewBox="0 0 24 24" style="enable-background:new 0 0 24 24;" xml:space="preserve">
<style type="text/css">
	.st0{fill:#4A5568;}
</style>
<g>
	<path class="st0" d="M19,22H5c-1.6,0-3-1.3-3-3c0,0,0,0,0,0v-8.9c0,0,0,0,0,0c0,0,0-0.1,0-0.1C2.1,9,2.5,8.1,3.3,7.6l7-4.7
		c1-0.7,2.3-0.7,3.3,0l7,4.7C21.5,8.1,21.9,9,22,9.9c0,0,0,0.1,0,0.1c0,0,0,0,0,0V19c0,0,0,0,0,0C22,20.7,20.6,22,19,22z M4.1,19.5
		C4.3,19.8,4.6,20,5,20h14c0.4,0,0.7-0.2,0.9-0.5l-5.6-3.8l-0.6,0.4c-1,0.7-2.3,0.7-3.3,0l-0.6-0.4L4.1,19.5z M16.1,14.5l3.9,2.6
		v-5.3L16.1,14.5z M4,11.9v5.3l3.9-2.6L4,11.9z M10.3,13.7l1.1,0.7c0.3,0.2,0.8,0.2,1.1,0l1.1-0.7c0,0,0,0,0,0l6.1-4.1
		c-0.1-0.1-0.2-0.2-0.3-0.3l-7-4.7c-0.3-0.2-0.8-0.2-1.1,0l-7,4.7C4.3,9.3,4.2,9.4,4.1,9.6L10.3,13.7C10.3,13.7,10.3,13.7,10.3,13.7
		z"/>
</g>
</svg>
