<?xml version="1.0" encoding="utf-8"?>
<!-- Generator: Adobe Illustrator 24.1.3, SVG Export Plug-In . SVG Version: 6.00 Build 0)  -->
<svg version="1.1" id="Layer_1" xmlns="http://www.w3.org/2000/svg" xmlns:xlink="http://www.w3.org/1999/xlink" x="0px" y="0px"
	 viewBox="0 0 20 20" style="enable-background:new 0 0 20 20;" xml:space="preserve">
<style type="text/css">
	.st0{fill-rule:evenodd;clip-rule:evenodd;fill:#374151;}
</style>
<path class="st0" d="M12,1.6l-4,4v12.8l4-4V1.6z"/>
<path class="st0" d="M3.7,3.3C3.4,3,3,2.9,2.6,3.1C2.2,3.2,2,3.6,2,4v10c0,0.3,0.1,0.5,0.3,0.7L6,18.4V5.6L3.7,3.3z"/>
<path class="st0" d="M17.7,5.3L14,1.6v12.8l2.3,2.3c0.3,0.3,0.7,0.4,1.1,0.2c0.4-0.2,0.6-0.5,0.6-0.9V6C18,5.7,17.9,5.5,17.7,5.3z"
	/>
</svg>
