<?xml version="1.0" encoding="utf-8"?>
<!-- Generator: Adobe Illustrator 24.1.3, SVG Export Plug-In . SVG Version: 6.00 Build 0)  -->
<svg version="1.1" id="Layer_1" xmlns="http://www.w3.org/2000/svg" xmlns:xlink="http://www.w3.org/1999/xlink" x="0px" y="0px"
	 viewBox="0 0 20 20" style="enable-background:new 0 0 20 20;" xml:space="preserve">
<style type="text/css">
	.st0{fill-rule:evenodd;clip-rule:evenodd;fill:#4A5568;}
</style>
<path class="st0" d="M3,5c0-0.6,0.4-1,1-1h12c0.6,0,1,0.4,1,1s-0.4,1-1,1H4C3.4,6,3,5.6,3,5z"/>
<path class="st0" d="M3,10c0-0.6,0.4-1,1-1h12c0.6,0,1,0.4,1,1c0,0.6-0.4,1-1,1H4C3.4,11,3,10.6,3,10z"/>
<path class="st0" d="M3,15c0-0.6,0.4-1,1-1h12c0.6,0,1,0.4,1,1s-0.4,1-1,1H4C3.4,16,3,15.6,3,15z"/>
</svg>
