<?xml version="1.0" encoding="utf-8"?>
<!-- Generator: Adobe Illustrator 24.1.3, SVG Export Plug-In . SVG Version: 6.00 Build 0)  -->
<svg version="1.1" id="Layer_1" xmlns="http://www.w3.org/2000/svg" xmlns:xlink="http://www.w3.org/1999/xlink" x="0px" y="0px"
	 viewBox="0 0 20 20" style="enable-background:new 0 0 20 20;" xml:space="preserve">
<style type="text/css">
	.st0{fill-rule:evenodd;clip-rule:evenodd;fill:#4B5563;}
</style>
<path class="st0" d="M7,4c0-1.7,1.3-3,3-3c1.7,0,3,1.3,3,3v4c0,1.7-1.3,3-3,3c-1.7,0-3-1.3-3-3V4z M11,14.9c3.4-0.5,6-3.4,6-6.9
	c0-0.6-0.4-1-1-1c-0.6,0-1,0.4-1,1c0,2.8-2.2,5-5,5c-2.8,0-5-2.2-5-5c0-0.6-0.4-1-1-1S3,7.4,3,8c0,3.5,2.6,6.4,6,6.9V17H6
	c-0.6,0-1,0.4-1,1s0.4,1,1,1h8c0.6,0,1-0.4,1-1s-0.4-1-1-1h-3V14.9z"/>
</svg>
