<?xml version="1.0" encoding="utf-8"?>
<!-- Generator: Adobe Illustrator 24.1.3, SVG Export Plug-In . SVG Version: 6.00 Build 0)  -->
<svg version="1.1" id="Layer_1" xmlns="http://www.w3.org/2000/svg" xmlns:xlink="http://www.w3.org/1999/xlink" x="0px" y="0px"
	 viewBox="0 0 20 20" style="enable-background:new 0 0 20 20;" xml:space="preserve">
<style type="text/css">
	.st0{fill:#374151;}
</style>
<path class="st0" d="M18,3c0-0.3-0.1-0.6-0.4-0.8C17.4,2,17.1,2,16.8,2l-10,2C6.3,4.1,6,4.5,6,5v9.1C5.7,14,5.4,14,5,14
	c-1.7,0-3,0.9-3,2s1.3,2,3,2s3-0.9,3-2V7.8l8-1.6v5.9C15.7,12,15.4,12,15,12c-1.7,0-3,0.9-3,2s1.3,2,3,2s3-0.9,3-2V3z"/>
</svg>
