<?xml version="1.0" encoding="utf-8"?>
<!-- Generator: Adobe Illustrator 24.1.3, SVG Export Plug-In . SVG Version: 6.00 Build 0)  -->
<svg version="1.1" id="Layer_1" xmlns="http://www.w3.org/2000/svg" xmlns:xlink="http://www.w3.org/1999/xlink" x="0px" y="0px"
	 viewBox="0 0 24 24" style="enable-background:new 0 0 24 24;" xml:space="preserve">
<style type="text/css">
	.st0{fill:#4B5563;}
</style>
<g>
	<path class="st0" d="M19,21H5c-1.7,0-3-1.3-3-3V6c0-1.7,1.3-3,3-3h10c1.7,0,3,1.3,3,3h1c1.7,0,3,1.3,3,3v9C22,19.7,20.7,21,19,21
		C19,21,19,21,19,21z M18,8v10c0,0.6,0.4,1,1,1s1-0.4,1-1V9c0-0.6-0.4-1-1-1H18z M5,5C4.4,5,4,5.4,4,6v12c0,0.6,0.4,1,1,1h11.2
		c-0.1-0.3-0.2-0.6-0.2-1V6c0-0.6-0.4-1-1-1H5z M13,17H7c-0.6,0-1-0.4-1-1s0.4-1,1-1h6c0.6,0,1,0.4,1,1S13.6,17,13,17z M13,13H7
		c-0.6,0-1-0.4-1-1V8c0-0.6,0.4-1,1-1h6c0.6,0,1,0.4,1,1v4C14,12.6,13.6,13,13,13z M8,11h4V9H8V11z"/>
</g>
</svg>
