<?xml version="1.0" encoding="utf-8"?>
<!-- Generator: Adobe Illustrator 24.1.3, SVG Export Plug-In . SVG Version: 6.00 Build 0)  -->
<svg version="1.1" id="Layer_1" xmlns="http://www.w3.org/2000/svg" xmlns:xlink="http://www.w3.org/1999/xlink" x="0px" y="0px"
	 viewBox="0 0 24 24" style="enable-background:new 0 0 24 24;" xml:space="preserve">
<style type="text/css">
	.st0{fill:#4A5568;}
</style>
<g>
	<path class="st0" d="M21,22H3c-0.6,0-1-0.4-1-1s0.4-1,1-1h1V5c0-1.7,1.3-3,3-3h10c1.7,0,3,1.3,3,3v15h1c0.6,0,1,0.4,1,1
		S21.6,22,21,22z M15,20h3V5c0-0.6-0.4-1-1-1H7C6.4,4,6,4.4,6,5v15h3v-4c0-1.1,0.9-2,2-2h2c1.1,0,2,0.9,2,2V20z M11,20h2v-4h-2V20z
		 M15,12h-1c-0.6,0-1-0.4-1-1s0.4-1,1-1h1c0.6,0,1,0.4,1,1S15.6,12,15,12z M10,12H9c-0.6,0-1-0.4-1-1s0.4-1,1-1h1c0.6,0,1,0.4,1,1
		S10.6,12,10,12z M15,8h-1c-0.6,0-1-0.4-1-1s0.4-1,1-1h1c0.6,0,1,0.4,1,1S15.6,8,15,8z M10,8H9C8.4,8,8,7.6,8,7s0.4-1,1-1h1
		c0.6,0,1,0.4,1,1S10.6,8,10,8z"/>
</g>
</svg>
