<?xml version="1.0" encoding="utf-8"?>
<!-- Generator: Adobe Illustrator 24.1.3, SVG Export Plug-In . SVG Version: 6.00 Build 0)  -->
<svg version="1.1" id="Layer_1" xmlns="http://www.w3.org/2000/svg" xmlns:xlink="http://www.w3.org/1999/xlink" x="0px" y="0px"
	 viewBox="0 0 20 20" style="enable-background:new 0 0 20 20;" xml:space="preserve">
<style type="text/css">
	.st0{fill-rule:evenodd;clip-rule:evenodd;fill:#4A5568;}
</style>
<path class="st0" d="M8,4C6.3,4,5,5.3,5,7v4c0,2.8,2.2,5,5,5c2.8,0,5-2.2,5-5V7c0-0.6,0.4-1,1-1c0.6,0,1,0.4,1,1v4c0,3.9-3.1,7-7,7
	c-3.9,0-7-3.1-7-7V7c0-2.8,2.2-5,5-5c2.8,0,5,2.2,5,5v4c0,1.7-1.3,3-3,3c-1.7,0-3-1.3-3-3V7c0-0.6,0.4-1,1-1s1,0.4,1,1v4
	c0,0.6,0.4,1,1,1c0.6,0,1-0.4,1-1V7C11,5.3,9.7,4,8,4z"/>
</svg>
