<?xml version="1.0" encoding="utf-8"?>
<!-- Generator: Adobe Illustrator 24.1.3, SVG Export Plug-In . SVG Version: 6.00 Build 0)  -->
<svg version="1.1" id="Layer_1" xmlns="http://www.w3.org/2000/svg" xmlns:xlink="http://www.w3.org/1999/xlink" x="0px" y="0px"
	 viewBox="0 0 20 20" style="enable-background:new 0 0 20 20;" xml:space="preserve">
<style type="text/css">
	.st0{fill:#374151;}
</style>
<path class="st0" d="M10.9,2.6C10.7,2.2,10.4,2,10,2C9.6,2,9.3,2.2,9.1,2.6l-7,14c-0.2,0.4-0.1,0.8,0.1,1.1c0.3,0.3,0.7,0.4,1,0.3
	l5-1.4C8.7,16.4,9,16,9,15.6V11c0-0.6,0.4-1,1-1c0.6,0,1,0.4,1,1v4.6c0,0.4,0.3,0.8,0.7,1l5,1.4c0.4,0.1,0.8,0,1-0.3
	c0.3-0.3,0.3-0.7,0.1-1.1L10.9,2.6z"/>
</svg>
