<?xml version="1.0" encoding="utf-8"?>
<!-- Generator: Adobe Illustrator 24.1.3, SVG Export Plug-In . SVG Version: 6.00 Build 0)  -->
<svg version="1.1" id="Layer_1" xmlns="http://www.w3.org/2000/svg" xmlns:xlink="http://www.w3.org/1999/xlink" x="0px" y="0px"
	 viewBox="0 0 20 20" style="enable-background:new 0 0 20 20;" xml:space="preserve">
<style type="text/css">
	.st0{fill:#4A5568;}
	.st1{fill-rule:evenodd;clip-rule:evenodd;fill:#4A5568;}
</style>
<path class="st0" d="M17.4,2.6c-0.8-0.8-2-0.8-2.8,0L7,10.2V13h2.8l7.6-7.6C18.2,4.6,18.2,3.4,17.4,2.6z"/>
<path class="st1" d="M2,6c0-1.1,0.9-2,2-2h4c0.6,0,1,0.4,1,1S8.6,6,8,6H4v10h10v-4c0-0.6,0.4-1,1-1s1,0.4,1,1v4c0,1.1-0.9,2-2,2H4
	c-1.1,0-2-0.9-2-2V6z"/>
</svg>
