<?xml version="1.0" encoding="utf-8"?>
<!-- Generator: Adobe Illustrator 24.1.3, SVG Export Plug-In . SVG Version: 6.00 Build 0)  -->
<svg version="1.1" id="Layer_1" xmlns="http://www.w3.org/2000/svg" xmlns:xlink="http://www.w3.org/1999/xlink" x="0px" y="0px"
	 viewBox="0 0 20 20" style="enable-background:new 0 0 20 20;" xml:space="preserve">
<style type="text/css">
	.st0{fill:#374151;}
</style>
<path class="st0" d="M2,3c0-0.6,0.4-1,1-1h2.2c0.5,0,0.9,0.4,1,0.8l0.7,4.4C7,7.7,6.7,8.1,6.3,8.3L4.8,9.1c1.1,2.8,3.3,5,6.1,6.1
	l0.8-1.5c0.2-0.4,0.6-0.6,1.1-0.5l4.4,0.7c0.5,0.1,0.8,0.5,0.8,1V17c0,0.6-0.4,1-1,1h-2C7.8,18,2,12.2,2,5V3z"/>
<path class="st0" d="M16.7,3.3c0.4,0.4,0.4,1,0,1.4L15.4,6l1.3,1.3c0.4,0.4,0.4,1,0,1.4c-0.4,0.4-1,0.4-1.4,0L14,7.4l-1.3,1.3
	c-0.4,0.4-1,0.4-1.4,0c-0.4-0.4-0.4-1,0-1.4L12.6,6l-1.3-1.3c-0.4-0.4-0.4-1,0-1.4c0.4-0.4,1-0.4,1.4,0L14,4.6l1.3-1.3
	C15.7,2.9,16.3,2.9,16.7,3.3z"/>
</svg>
