<?xml version="1.0" encoding="utf-8"?>
<!-- Generator: Adobe Illustrator 24.1.3, SVG Export Plug-In . SVG Version: 6.00 Build 0)  -->
<svg version="1.1" id="Layer_1" xmlns="http://www.w3.org/2000/svg" xmlns:xlink="http://www.w3.org/1999/xlink" x="0px" y="0px"
	 viewBox="0 0 24 24" style="enable-background:new 0 0 24 24;" xml:space="preserve">
<style type="text/css">
	.st0{fill:#4A5568;}
</style>
<g>
	<path class="st0" d="M18,21H6c-1.7,0-3-1.3-3-3V6c0-1.7,1.3-3,3-3h12c1.7,0,3,1.3,3,3v12C21,19.7,19.7,21,18,21z M5,16.4V18
		c0,0.6,0.4,1,1,1h12c0.6,0,1-0.4,1-1v-3.6l-1.3-1.3c-0.4-0.4-1-0.4-1.4,0L15.4,14l1.3,1.3c0.4,0.4,0.4,1,0,1.4s-1,0.4-1.4,0l-2-2
		c0,0,0,0,0,0l-2.6-2.6c-0.4-0.4-1-0.4-1.4,0L5,16.4z M6,5C5.4,5,5,5.4,5,6v7.6l2.9-2.9c1.1-1.1,3.1-1.1,4.2,0l1.9,1.9l0.9-0.9
		c1.1-1.1,2.9-1.2,4.1-0.1V6c0-0.6-0.4-1-1-1H6z M14,9c-0.6,0-1-0.4-1-1s0.4-1,1-1h0c0.6,0,1,0.4,1,1S14.6,9,14,9z"/>
</g>
</svg>
