<?xml version="1.0" encoding="utf-8"?>
<!-- Generator: Adobe Illustrator 24.1.3, SVG Export Plug-In . SVG Version: 6.00 Build 0)  -->
<svg version="1.1" id="Layer_1" xmlns="http://www.w3.org/2000/svg" xmlns:xlink="http://www.w3.org/1999/xlink" x="0px" y="0px"
	 viewBox="0 0 24 24" style="enable-background:new 0 0 24 24;" xml:space="preserve">
<style type="text/css">
	.st0{fill:#4B5563;}
</style>
<g>
	<path class="st0" d="M11,16.1c-0.3,0-0.6-0.1-0.9-0.2c-0.7-0.3-1.1-1-1.1-1.8V9.9c0-0.7,0.4-1.4,1.1-1.8c0.7-0.3,1.4-0.3,2.1,0.1
		l3.2,2.1l0,0c0.6,0.4,0.9,1,0.9,1.7s-0.3,1.3-0.9,1.7l-3.2,2.1C11.8,16,11.4,16.1,11,16.1z M11,9.9v4.3l3.2-2.1L11,9.9z"/>
</g>
<g>
	<path class="st0" d="M12,22C6.5,22,2,17.5,2,12C2,6.5,6.5,2,12,2c5.5,0,10,4.5,10,10C22,17.5,17.5,22,12,22z M12,4
		c-4.4,0-8,3.6-8,8s3.6,8,8,8s8-3.6,8-8S16.4,4,12,4z"/>
</g>
</svg>
