<?xml version="1.0" encoding="utf-8"?>
<!-- Generator: Adobe Illustrator 24.1.3, SVG Export Plug-In . SVG Version: 6.00 Build 0)  -->
<svg version="1.1" id="Layer_1" xmlns="http://www.w3.org/2000/svg" xmlns:xlink="http://www.w3.org/1999/xlink" x="0px" y="0px"
	 viewBox="0 0 20 20" style="enable-background:new 0 0 20 20;" xml:space="preserve">
<style type="text/css">
	.st0{fill-rule:evenodd;clip-rule:evenodd;fill:#374151;}
</style>
<path class="st0" d="M10,5c0.6,0,1,0.4,1,1v3h3c0.6,0,1,0.4,1,1c0,0.6-0.4,1-1,1h-3v3c0,0.6-0.4,1-1,1c-0.6,0-1-0.4-1-1v-3H6
	c-0.6,0-1-0.4-1-1c0-0.6,0.4-1,1-1h3V6C9,5.4,9.4,5,10,5z"/>
</svg>
