<?xml version="1.0" encoding="utf-8"?>
<!-- Generator: Adobe Illustrator 24.1.3, SVG Export Plug-In . SVG Version: 6.00 Build 0)  -->
<svg version="1.1" id="Layer_1" xmlns="http://www.w3.org/2000/svg" xmlns:xlink="http://www.w3.org/1999/xlink" x="0px" y="0px"
	 viewBox="0 0 24 24" style="enable-background:new 0 0 24 24;" xml:space="preserve">
<style type="text/css">
	.st0{fill:#374151;}
</style>
<g>
	<path class="st0" d="M16,22c-0.3,0-0.5-0.1-0.7-0.3L12,18.4l-3.3,3.3c-0.4,0.4-1,0.4-1.4,0s-0.4-1,0-1.4L9.6,18H5c-1.1,0-2-0.9-2-2
		V5C2.4,5,2,4.6,2,4s0.4-1,1-1h18c0.6,0,1,0.4,1,1s-0.4,1-1,1v11c0,1.1-0.9,2-2,2h-4.6l2.3,2.3c0.4,0.4,0.4,1,0,1.4
		C16.5,21.9,16.3,22,16,22z M5,5v11h14V5H5z M16,14c-0.6,0-1-0.4-1-1V8c0-0.6,0.4-1,1-1s1,0.4,1,1v5C17,13.6,16.6,14,16,14z M12,14
		c-0.6,0-1-0.4-1-1v-3c0-0.6,0.4-1,1-1s1,0.4,1,1v3C13,13.6,12.6,14,12,14z M8,14c-0.6,0-1-0.4-1-1v-1c0-0.6,0.4-1,1-1s1,0.4,1,1v1
		C9,13.6,8.6,14,8,14z"/>
</g>
</svg>
