<?xml version="1.0" encoding="utf-8"?>
<!-- Generator: Adobe Illustrator 24.1.3, SVG Export Plug-In . SVG Version: 6.00 Build 0)  -->
<svg version="1.1" id="Layer_1" xmlns="http://www.w3.org/2000/svg" xmlns:xlink="http://www.w3.org/1999/xlink" x="0px" y="0px"
	 viewBox="0 0 24 24" style="enable-background:new 0 0 24 24;" xml:space="preserve">
<style type="text/css">
	.st0{fill:#374151;}
</style>
<g>
	<path class="st0" d="M16,22c-0.3,0-0.5-0.1-0.7-0.3L12,18.4l-3.3,3.3c-0.4,0.4-1,0.4-1.4,0s-0.4-1,0-1.4L9.6,18H5c-1.1,0-2-0.9-2-2
		V5C2.4,5,2,4.6,2,4s0.4-1,1-1h18c0.6,0,1,0.4,1,1s-0.4,1-1,1v11c0,1.1-0.9,2-2,2h-4.6l2.3,2.3c0.4,0.4,0.4,1,0,1.4
		C16.5,21.9,16.3,22,16,22z M5,5v11h14V5H5z M13,13c-0.3,0-0.5-0.1-0.7-0.3L10,10.4l-2.3,2.3c-0.4,0.4-1,0.4-1.4,0s-0.4-1,0-1.4l3-3
		c0.4-0.4,1-0.4,1.4,0l2.3,2.3l3.3-3.3c0.4-0.4,1-0.4,1.4,0s0.4,1,0,1.4l-4,4C13.5,12.9,13.3,13,13,13z"/>
</g>
</svg>
