<?xml version="1.0" encoding="utf-8"?>
<!-- Generator: Adobe Illustrator 24.1.3, SVG Export Plug-In . SVG Version: 6.00 Build 0)  -->
<svg version="1.1" id="Layer_1" xmlns="http://www.w3.org/2000/svg" xmlns:xlink="http://www.w3.org/1999/xlink" x="0px" y="0px"
	 viewBox="0 0 24 24" style="enable-background:new 0 0 24 24;" xml:space="preserve">
<style type="text/css">
	.st0{fill:#4A5568;}
</style>
<g>
	<path class="st0" d="M15,22H9c-1.7,0-3-1.3-3-3v-1H5c-1.7,0-3-1.3-3-3v-4c0-1.7,1.3-3,3-3h1V5c0-1.7,1.3-3,3-3h6c1.7,0,3,1.3,3,3v3
		h1c1.7,0,3,1.3,3,3v4c0,1.7-1.3,3-3,3h-1v1C18,20.7,16.7,22,15,22z M8,17v2c0,0.6,0.4,1,1,1h6c0.6,0,1-0.4,1-1v-4c0-0.6-0.4-1-1-1
		H9c-0.6,0-1,0.4-1,1V17z M18,16h1c0.6,0,1-0.4,1-1v-4c0-0.6-0.4-1-1-1H5c-0.6,0-1,0.4-1,1v4c0,0.6,0.4,1,1,1h1v-1c0-1.7,1.3-3,3-3
		h6c1.7,0,3,1.3,3,3V16z M8,8h8V5c0-0.6-0.4-1-1-1H9C8.4,4,8,4.4,8,5V8z"/>
</g>
</svg>
