<?xml version="1.0" encoding="utf-8"?>
<!-- Generator: Adobe Illustrator 24.1.3, SVG Export Plug-In . SVG Version: 6.00 Build 0)  -->
<svg version="1.1" id="Layer_1" xmlns="http://www.w3.org/2000/svg" xmlns:xlink="http://www.w3.org/1999/xlink" x="0px" y="0px"
	 viewBox="0 0 20 20" style="enable-background:new 0 0 20 20;" xml:space="preserve">
<style type="text/css">
	.st0{fill:#374151;}
</style>
<path class="st0" d="M10,3.5C10,2.7,10.7,2,11.5,2S13,2.7,13,3.5V4c0,0.6,0.4,1,1,1h3c0.6,0,1,0.4,1,1v3c0,0.6-0.4,1-1,1h-0.5
	c-0.8,0-1.5,0.7-1.5,1.5s0.7,1.5,1.5,1.5H17c0.6,0,1,0.4,1,1v3c0,0.6-0.4,1-1,1h-3c-0.6,0-1-0.4-1-1v-0.5c0-0.8-0.7-1.5-1.5-1.5
	S10,15.7,10,16.5V17c0,0.6-0.4,1-1,1H6c-0.6,0-1-0.4-1-1v-3c0-0.6-0.4-1-1-1H3.5C2.7,13,2,12.3,2,11.5S2.7,10,3.5,10H4
	c0.6,0,1-0.4,1-1V6c0-0.6,0.4-1,1-1h3c0.6,0,1-0.4,1-1V3.5z"/>
</svg>
