<?xml version="1.0" encoding="utf-8"?>
<!-- Generator: Adobe Illustrator 24.1.3, SVG Export Plug-In . SVG Version: 6.00 Build 0)  -->
<svg version="1.1" id="Layer_1" xmlns="http://www.w3.org/2000/svg" xmlns:xlink="http://www.w3.org/1999/xlink" x="0px" y="0px"
	 viewBox="0 0 24 24" style="enable-background:new 0 0 24 24;" xml:space="preserve">
<style type="text/css">
	.st0{fill:#4A5568;}
</style>
<g>
	<path class="st0" d="M20,21h-4c-0.6,0-1-0.4-1-1s0.4-1,1-1h4c0.6,0,1,0.4,1,1S20.6,21,20,21z M12,21c-0.6,0-1-0.4-1-1v-4
		c0-0.6,0.4-1,1-1h2c0.6,0,1,0.4,1,1s-0.4,1-1,1h-1v3C13,20.6,12.6,21,12,21z M7,21H5c-1.1,0-2-0.9-2-2v-2c0-1.1,0.9-2,2-2h2
		c1.1,0,2,0.9,2,2v2C9,20.1,8.1,21,7,21z M5,17v2h2v-2H5z M20,17h-2c-0.6,0-1-0.4-1-1s0.4-1,1-1h2c0.6,0,1,0.4,1,1S20.6,17,20,17z
		 M20,13c-0.6,0-1-0.4-1-1s0.4-1,1-1h0c0.6,0,1,0.4,1,1S20.6,13,20,13z M16,13h-4c-0.6,0-1-0.4-1-1V9c0-0.6,0.4-1,1-1s1,0.4,1,1v2h3
		c0.6,0,1,0.4,1,1S16.6,13,16,13z M8,13H4c-0.6,0-1-0.4-1-1s0.4-1,1-1h4c0.6,0,1,0.4,1,1S8.6,13,8,13z M19,9h-2c-1.1,0-2-0.9-2-2V5
		c0-1.1,0.9-2,2-2h2c1.1,0,2,0.9,2,2v2C21,8.1,20.1,9,19,9z M17,5v2h2V5H17z M7,9H5C3.9,9,3,8.1,3,7V5c0-1.1,0.9-2,2-2h2
		c1.1,0,2,0.9,2,2v2C9,8.1,8.1,9,7,9z M5,5v2h2V5H5z M12,6c-0.6,0-1-0.4-1-1V4c0-0.6,0.4-1,1-1s1,0.4,1,1v1C13,5.6,12.6,6,12,6z"/>
</g>
</svg>
