<?xml version="1.0" encoding="utf-8"?>
<!-- Generator: Adobe Illustrator 24.1.3, SVG Export Plug-In . SVG Version: 6.00 Build 0)  -->
<svg version="1.1" id="Layer_1" xmlns="http://www.w3.org/2000/svg" xmlns:xlink="http://www.w3.org/1999/xlink" x="0px" y="0px"
	 viewBox="0 0 24 24" style="enable-background:new 0 0 24 24;" xml:space="preserve">
<style type="text/css">
	.st0{fill:#4A5568;}
</style>
<g>
	<path class="st0" d="M12,22C6.5,22,2,17.5,2,12C2,6.5,6.5,2,12,2c5.5,0,10,4.5,10,10C22,17.5,17.5,22,12,22z M12,4
		c-4.4,0-8,3.6-8,8s3.6,8,8,8s8-3.6,8-8S16.4,4,12,4z M12,18c-0.6,0-1-0.4-1-1s0.4-1,1-1h0c0.6,0,1,0.4,1,1S12.6,18,12,18z M12,15
		c-0.6,0-1-0.4-1-1c0-1,0.8-1.9,1.8-2.1c1.3-0.2,2.2-1.1,2.2-1.9c0-1.1-1.4-2-3-2c-1.3,0-2.5,0.6-2.9,1.4c-0.2,0.5-0.8,0.7-1.3,0.5
		C7.3,9.7,7.1,9.1,7.3,8.6C8.1,7,9.9,6,12,6c2.8,0,5,1.8,5,4c0,1.9-1.6,3.5-3.8,3.9C13.1,13.9,13,14,13,14C13,14.6,12.6,15,12,15z"
		/>
</g>
</svg>
