<?xml version="1.0" encoding="utf-8"?>
<!-- Generator: Adobe Illustrator 24.1.3, SVG Export Plug-In . SVG Version: 6.00 Build 0)  -->
<svg version="1.1" id="Layer_1" xmlns="http://www.w3.org/2000/svg" xmlns:xlink="http://www.w3.org/1999/xlink" x="0px" y="0px"
	 viewBox="0 0 24 24" style="enable-background:new 0 0 24 24;" xml:space="preserve">
<style type="text/css">
	.st0{fill:#4A5568;}
</style>
<g>
	<path class="st0" d="M20,22c-0.2,0-0.3,0-0.4-0.1L16,20.1l-3.6,1.8c-0.3,0.1-0.6,0.1-0.9,0L8,20.1l-3.6,1.8c-0.3,0.2-0.7,0.1-1,0
		C3.2,21.7,3,21.3,3,21V5c0-1.7,1.3-3,3-3h12c1.7,0,3,1.3,3,3v16c0,0.3-0.2,0.7-0.5,0.9C20.4,22,20.2,22,20,22z M8,18
		c0.2,0,0.3,0,0.4,0.1l3.6,1.8l3.6-1.8c0.3-0.1,0.6-0.1,0.9,0l2.6,1.3V5c0-0.6-0.4-1-1-1H6C5.4,4,5,4.4,5,5v14.4l2.6-1.3
		C7.7,18,7.8,18,8,18z M16,16c-0.6,0-1-0.4-1-1v-1c0-1.7-1.3-3-3-3h-1.6l1.3,1.3c0.4,0.4,0.4,1,0,1.4s-1,0.4-1.4,0l-3-3
		c-0.1-0.1-0.2-0.2-0.2-0.3C7,10.3,7,10.1,7,10l0,0c0,0,0,0,0,0l0,0c0-0.1,0-0.3,0.1-0.4c0-0.1,0.1-0.2,0.2-0.3l3-3
		c0.4-0.4,1-0.4,1.4,0s0.4,1,0,1.4L10.4,9H12c2.8,0,5,2.2,5,5v1C17,15.6,16.6,16,16,16z"/>
</g>
</svg>
