<?xml version="1.0" encoding="utf-8"?>
<!-- Generator: Adobe Illustrator 24.1.3, SVG Export Plug-In . SVG Version: 6.00 Build 0)  -->
<svg version="1.1" id="Layer_1" xmlns="http://www.w3.org/2000/svg" xmlns:xlink="http://www.w3.org/1999/xlink" x="0px" y="0px"
	 viewBox="0 0 24 24" style="enable-background:new 0 0 24 24;" xml:space="preserve">
<style type="text/css">
	.st0{fill:#374151;}
</style>
<g>
	<path class="st0" d="M12,22c-0.2,0-0.3,0-0.5-0.1l-3-1.7l-3,1.7c-0.3,0.2-0.7,0.2-1,0C4.2,21.7,4,21.4,4,21V5c0-1.7,1.3-3,3-3h10
		c1.7,0,3,1.3,3,3v16c0,0.4-0.2,0.7-0.5,0.9c-0.3,0.2-0.7,0.2-1,0l-3-1.7l-3,1.7C12.3,22,12.2,22,12,22z M8.5,18
		c0.2,0,0.3,0,0.5,0.1l3,1.7l3-1.7c0.3-0.2,0.7-0.2,1,0l2,1.1V5c0-0.6-0.4-1-1-1H7C6.4,4,6,4.4,6,5v14.3l2-1.1C8.2,18,8.3,18,8.5,18
		z M14.5,15c-0.8,0-1.5-0.7-1.5-1.5s0.7-1.5,1.5-1.5s1.5,0.7,1.5,1.5S15.3,15,14.5,15z M9,15c-0.3,0-0.5-0.1-0.7-0.3
		c-0.4-0.4-0.4-1,0-1.4l6-6c0.4-0.4,1-0.4,1.4,0s0.4,1,0,1.4l-6,6C9.5,14.9,9.3,15,9,15z M9.5,10C8.7,10,8,9.3,8,8.5S8.7,7,9.5,7
		S11,7.7,11,8.5S10.3,10,9.5,10z"/>
</g>
</svg>
