<?xml version="1.0" encoding="utf-8"?>
<!-- Generator: Adobe Illustrator 24.1.3, SVG Export Plug-In . SVG Version: 6.00 Build 0)  -->
<svg version="1.1" id="Layer_1" xmlns="http://www.w3.org/2000/svg" xmlns:xlink="http://www.w3.org/1999/xlink" x="0px" y="0px"
	 viewBox="0 0 20 20" style="enable-background:new 0 0 20 20;" xml:space="preserve">
<style type="text/css">
	.st0{fill-rule:evenodd;clip-rule:evenodd;fill:#4A5568;}
</style>
<path class="st0" d="M4,2c0.6,0,1,0.4,1,1v2.1C6.3,3.8,8,3,10,3c3,0,5.6,1.9,6.6,4.7c0.2,0.5-0.1,1.1-0.6,1.3
	c-0.5,0.2-1.1-0.1-1.3-0.6C14,6.4,12.2,5,10,5C8.4,5,6.9,5.8,6,7h3c0.6,0,1,0.4,1,1S9.6,9,9,9H4C3.4,9,3,8.6,3,8V3C3,2.4,3.4,2,4,2z
	 M4,11.1c0.5-0.2,1.1,0.1,1.3,0.6C6,13.6,7.8,15,10,15c1.6,0,3.1-0.8,4-2h-3c-0.6,0-1-0.4-1-1s0.4-1,1-1h5c0.3,0,0.5,0.1,0.7,0.3
	S17,11.7,17,12v5c0,0.6-0.4,1-1,1c-0.6,0-1-0.4-1-1v-2.1c-1.3,1.3-3,2.1-5,2.1c-3,0-5.6-1.9-6.6-4.7C3.2,11.8,3.5,11.2,4,11.1z"/>
</svg>
