<?xml version="1.0" encoding="utf-8"?>
<!-- Generator: Adobe Illustrator 24.1.3, SVG Export Plug-In . SVG Version: 6.00 Build 0)  -->
<svg version="1.1" id="Layer_1" xmlns="http://www.w3.org/2000/svg" xmlns:xlink="http://www.w3.org/1999/xlink" x="0px" y="0px"
	 viewBox="0 0 20 20" style="enable-background:new 0 0 20 20;" xml:space="preserve">
<style type="text/css">
	.st0{fill-rule:evenodd;clip-rule:evenodd;fill:#4A5568;}
</style>
<path class="st0" d="M7.7,3.3c0.4,0.4,0.4,1,0,1.4L5.4,7H11c3.9,0,7,3.1,7,7v2c0,0.6-0.4,1-1,1s-1-0.4-1-1v-2c0-2.8-2.2-5-5-5H5.4
	l2.3,2.3c0.4,0.4,0.4,1,0,1.4c-0.4,0.4-1,0.4-1.4,0l-4-4c-0.4-0.4-0.4-1,0-1.4l4-4C6.7,2.9,7.3,2.9,7.7,3.3z"/>
</svg>
