<?xml version="1.0" encoding="utf-8"?>
<!-- Generator: Adobe Illustrator 24.1.3, SVG Export Plug-In . SVG Version: 6.00 Build 0)  -->
<svg version="1.1" id="Layer_1" xmlns="http://www.w3.org/2000/svg" xmlns:xlink="http://www.w3.org/1999/xlink" x="0px" y="0px"
	 viewBox="0 0 20 20" style="enable-background:new 0 0 20 20;" xml:space="preserve">
<style type="text/css">
	.st0{fill:#374151;}
</style>
<path class="st0" d="M8.4,14.8c0.3,0.2,0.7,0.2,1,0C9.8,14.7,10,14.4,10,14v-2.8l5.4,3.6c0.3,0.2,0.7,0.2,1,0
	c0.3-0.2,0.5-0.5,0.5-0.9V6c0-0.4-0.2-0.7-0.5-0.9c-0.3-0.2-0.7-0.2-1,0L10,8.8V6c0-0.4-0.2-0.7-0.5-0.9s-0.7-0.2-1,0l-6,4
	C2.2,9.4,2,9.7,2,10c0,0.3,0.2,0.6,0.4,0.8L8.4,14.8z"/>
</svg>
