<?xml version="1.0" encoding="utf-8"?>
<!-- Generator: Adobe Illustrator 24.1.3, SVG Export Plug-In . SVG Version: 6.00 Build 0)  -->
<svg version="1.1" id="Layer_1" xmlns="http://www.w3.org/2000/svg" xmlns:xlink="http://www.w3.org/1999/xlink" x="0px" y="0px"
	 viewBox="0 0 20 20" style="enable-background:new 0 0 20 20;" xml:space="preserve">
<style type="text/css">
	.st0{fill:#374151;}
</style>
<path class="st0" d="M5,3C4.4,3,4,3.4,4,4s0.4,1,1,1c5.5,0,10,4.5,10,10c0,0.6,0.4,1,1,1c0.6,0,1-0.4,1-1C17,8.4,11.6,3,5,3z"/>
<path class="st0" d="M4,9c0-0.6,0.4-1,1-1c3.9,0,7,3.1,7,7c0,0.6-0.4,1-1,1s-1-0.4-1-1c0-2.8-2.2-5-5-5C4.4,10,4,9.6,4,9z"/>
<path class="st0" d="M3,15c0-1.1,0.9-2,2-2s2,0.9,2,2s-0.9,2-2,2S3,16.1,3,15z"/>
</svg>
