<?xml version="1.0" encoding="utf-8"?>
<!-- Generator: Adobe Illustrator 24.1.3, SVG Export Plug-In . SVG Version: 6.00 Build 0)  -->
<svg version="1.1" id="Layer_1" xmlns="http://www.w3.org/2000/svg" xmlns:xlink="http://www.w3.org/1999/xlink" x="0px" y="0px"
	 viewBox="0 0 24 24" style="enable-background:new 0 0 24 24;" xml:space="preserve">
<style type="text/css">
	.st0{fill:#374151;}
</style>
<g>
	<path class="st0" d="M19,21H5c-1.7,0-3-1.3-3-3V9c0-1.7,1.3-3,3-3h3c0.6,0,1,0.4,1,1S8.6,8,8,8H5C4.4,8,4,8.4,4,9v9
		c0,0.6,0.4,1,1,1h14c0.6,0,1-0.4,1-1V9c0-0.6-0.4-1-1-1h-3c-0.6,0-1-0.4-1-1s0.4-1,1-1h3c1.7,0,3,1.3,3,3v9C22,19.7,20.7,21,19,21z
		 M12,15C12,15,12,15,12,15L12,15c-0.1,0-0.3,0-0.4-0.1c-0.1,0-0.2-0.1-0.3-0.2l-3-3c-0.4-0.4-0.4-1,0-1.4s1-0.4,1.4,0l1.3,1.3V4
		c0-0.6,0.4-1,1-1s1,0.4,1,1v7.6l1.3-1.3c0.4-0.4,1-0.4,1.4,0s0.4,1,0,1.4l-3,3c-0.1,0.1-0.2,0.2-0.3,0.2C12.3,15,12.1,15,12,15
		L12,15C12,15,12,15,12,15z"/>
</g>
</svg>
