<?xml version="1.0" encoding="utf-8"?>
<!-- Generator: Adobe Illustrator 24.1.3, SVG Export Plug-In . SVG Version: 6.00 Build 0)  -->
<svg version="1.1" id="Layer_1" xmlns="http://www.w3.org/2000/svg" xmlns:xlink="http://www.w3.org/1999/xlink" x="0px" y="0px"
	 viewBox="0 0 24 24" style="enable-background:new 0 0 24 24;" xml:space="preserve">
<style type="text/css">
	.st0{fill:#374151;}
</style>
<g>
	<path class="st0" d="M15,21H5c-1.7,0-3-1.3-3-3v-7c0-1.7,1.3-3,3-3h1V7c0-1.7,1.3-3,3-3h1c0.6,0,1,0.4,1,1s-0.4,1-1,1H9
		C8.4,6,8,6.4,8,7v7c0,0.6,0.4,1,1,1h10c0.6,0,1-0.4,1-1V7c0-0.6-0.4-1-1-1h-1c-0.6,0-1-0.4-1-1s0.4-1,1-1h1c1.7,0,3,1.3,3,3v7
		c0,1.7-1.3,3-3,3h-1v1C18,19.7,16.7,21,15,21z M5,10c-0.6,0-1,0.4-1,1v7c0,0.6,0.4,1,1,1h10c0.6,0,1-0.4,1-1v-1H9c-1.7,0-3-1.3-3-3
		v-4H5z M14,13C14,13,14,13,14,13L14,13c-0.1,0-0.3,0-0.4-0.1c-0.1,0-0.2-0.1-0.3-0.2l-3-3c-0.4-0.4-0.4-1,0-1.4s1-0.4,1.4,0L13,9.6
		V3c0-0.6,0.4-1,1-1s1,0.4,1,1v6.6l1.3-1.3c0.4-0.4,1-0.4,1.4,0s0.4,1,0,1.4l-3,3c-0.1,0.1-0.2,0.2-0.3,0.2C14.3,13,14.1,13,14,13
		L14,13C14,13,14,13,14,13z"/>
</g>
</svg>
