<?xml version="1.0" encoding="utf-8"?>
<!-- Generator: Adobe Illustrator 24.1.3, SVG Export Plug-In . SVG Version: 6.00 Build 0)  -->
<svg version="1.1" id="Layer_1" xmlns="http://www.w3.org/2000/svg" xmlns:xlink="http://www.w3.org/1999/xlink" x="0px" y="0px"
	 viewBox="0 0 24 24" style="enable-background:new 0 0 24 24;" xml:space="preserve">
<style type="text/css">
	.st0{fill:#4A5568;}
</style>
<g>
	<path class="st0" d="M15,22H9c-0.6,0-1-0.4-1-1s0.4-1,1-1h2V6.4L7.3,7.6l2.7,8c0.2,0.4,0,0.9-0.3,1.2c-2.1,1.6-5.1,1.6-7.2,0
		c-0.3-0.3-0.5-0.7-0.3-1.1l2.7-8.1L2.7,6.9C2.2,6.8,1.9,6.2,2.1,5.7c0.2-0.5,0.7-0.8,1.3-0.6L6,5.9l5-1.7V3c0-0.6,0.4-1,1-1
		s1,0.4,1,1v1.3l5,1.7l2.7-0.9c0.5-0.2,1.1,0.1,1.3,0.6c0.2,0.5-0.1,1.1-0.6,1.3l-2.1,0.7l2.7,8c0.2,0.4,0,0.9-0.3,1.2
		c-2.1,1.6-5.1,1.6-7.2,0c-0.3-0.3-0.5-0.7-0.3-1.1l2.7-8.1L13,6.4V20h2c0.6,0,1,0.4,1,1S15.6,22,15,22z M16.2,15.6
		c1.1,0.6,2.5,0.6,3.6,0L18,10.2L16.2,15.6z M4.2,15.6c1.1,0.6,2.5,0.6,3.6,0L6,10.2L4.2,15.6z"/>
</g>
</svg>
