<?xml version="1.0" encoding="utf-8"?>
<!-- Generator: Adobe Illustrator 24.1.3, SVG Export Plug-In . SVG Version: 6.00 Build 0)  -->
<svg version="1.1" id="Layer_1" xmlns="http://www.w3.org/2000/svg" xmlns:xlink="http://www.w3.org/1999/xlink" x="0px" y="0px"
	 viewBox="0 0 24 24" style="enable-background:new 0 0 24 24;" xml:space="preserve">
<style type="text/css">
	.st0{fill:#374151;}
</style>
<g>
	<path class="st0" d="M7,21c-2.2,0-4-1.8-4-4s1.8-4,4-4c0.7,0,1.4,0.2,2,0.6l1.6-1.6L9,10.4C8.4,10.8,7.7,11,7,11c-2.2,0-4-1.8-4-4
		s1.8-4,4-4s4,1.8,4,4c0,0.7-0.2,1.4-0.6,2l1.6,1.6l6.3-6.3c0.4-0.4,1-0.4,1.4,0s0.4,1,0,1.4L10.4,15c0.4,0.6,0.6,1.3,0.6,2
		C11,19.2,9.2,21,7,21z M7,15c-1.1,0-2,0.9-2,2s0.9,2,2,2s2-0.9,2-2c0-0.5-0.2-1-0.6-1.4h0C8,15.2,7.5,15,7,15z M7,5
		C5.9,5,5,5.9,5,7s0.9,2,2,2c0.5,0,1-0.2,1.4-0.6c0,0,0,0,0,0C8.8,8,9,7.5,9,7C9,5.9,8.1,5,7,5z M19,20c-0.3,0-0.5-0.1-0.7-0.3
		l-4.9-4.9c-0.4-0.4-0.4-1,0-1.4s1-0.4,1.4,0l4.9,4.9c0.4,0.4,0.4,1,0,1.4C19.5,19.9,19.3,20,19,20z"/>
</g>
</svg>
