<?xml version="1.0" encoding="utf-8"?>
<!-- Generator: Adobe Illustrator 24.1.3, SVG Export Plug-In . SVG Version: 6.00 Build 0)  -->
<svg version="1.1" id="Layer_1" xmlns="http://www.w3.org/2000/svg" xmlns:xlink="http://www.w3.org/1999/xlink" x="0px" y="0px"
	 viewBox="0 0 20 20" style="enable-background:new 0 0 20 20;" xml:space="preserve">
<style type="text/css">
	.st0{fill-rule:evenodd;clip-rule:evenodd;fill:#4A5568;}
</style>
<path class="st0" d="M10,3c0.3,0,0.5,0.1,0.7,0.3l3,3c0.4,0.4,0.4,1,0,1.4c-0.4,0.4-1,0.4-1.4,0L10,5.4L7.7,7.7
	c-0.4,0.4-1,0.4-1.4,0c-0.4-0.4-0.4-1,0-1.4l3-3C9.5,3.1,9.7,3,10,3z M6.3,12.3c0.4-0.4,1-0.4,1.4,0l2.3,2.3l2.3-2.3
	c0.4-0.4,1-0.4,1.4,0s0.4,1,0,1.4l-3,3c-0.4,0.4-1,0.4-1.4,0l-3-3C5.9,13.3,5.9,12.7,6.3,12.3z"/>
</svg>
