<?xml version="1.0" encoding="utf-8"?>
<!-- Generator: Adobe Illustrator 24.1.3, SVG Export Plug-In . SVG Version: 6.00 Build 0)  -->
<svg version="1.1" id="Layer_1" xmlns="http://www.w3.org/2000/svg" xmlns:xlink="http://www.w3.org/1999/xlink" x="0px" y="0px"
	 viewBox="0 0 24 24" style="enable-background:new 0 0 24 24;" xml:space="preserve">
<style type="text/css">
	.st0{fill:#374151;}
</style>
<g>
	<path class="st0" d="M19,21H5c-1.7,0-3-1.3-3-3v-4c0-0.8,0.3-1.5,0.8-2C2.3,11.5,2,10.8,2,10V6c0-1.7,1.3-3,3-3h14c1.7,0,3,1.3,3,3
		v4c0,0.8-0.3,1.5-0.8,2c0.5,0.5,0.8,1.2,0.8,2v4C22,19.7,20.7,21,19,21z M5,13c-0.6,0-1,0.4-1,1v4c0,0.6,0.4,1,1,1h14
		c0.6,0,1-0.4,1-1v-4c0-0.6-0.4-1-1-1H5z M5,11h14c0.6,0,1-0.4,1-1V6c0-0.6-0.4-1-1-1H5C4.4,5,4,5.4,4,6v4C4,10.6,4.4,11,5,11z
		 M17,17c-0.6,0-1-0.4-1-1s0.4-1,1-1h0c0.6,0,1,0.4,1,1S17.6,17,17,17z M17,9c-0.6,0-1-0.4-1-1s0.4-1,1-1h0c0.6,0,1,0.4,1,1
		S17.6,9,17,9z"/>
</g>
</svg>
