<?xml version="1.0" encoding="utf-8"?>
<!-- Generator: Adobe Illustrator 24.1.3, SVG Export Plug-In . SVG Version: 6.00 Build 0)  -->
<svg version="1.1" id="Layer_1" xmlns="http://www.w3.org/2000/svg" xmlns:xlink="http://www.w3.org/1999/xlink" x="0px" y="0px"
	 viewBox="0 0 20 20" style="enable-background:new 0 0 20 20;" xml:space="preserve">
<style type="text/css">
	.st0{fill:#4A5568;}
</style>
<path class="st0" d="M15,8c1.7,0,3-1.3,3-3s-1.3-3-3-3s-3,1.3-3,3c0,0.1,0,0.2,0,0.4L7.1,7.8C6.5,7.3,5.8,7,5,7c-1.7,0-3,1.3-3,3
	c0,1.7,1.3,3,3,3c0.8,0,1.5-0.3,2.1-0.8l4.9,2.5c0,0.1,0,0.2,0,0.4c0,1.7,1.3,3,3,3s3-1.3,3-3s-1.3-3-3-3c-0.8,0-1.5,0.3-2.1,0.8
	L8,10.4c0-0.1,0-0.2,0-0.4s0-0.2,0-0.4l4.9-2.5C13.5,7.7,14.2,8,15,8z"/>
</svg>
