<?xml version="1.0" encoding="utf-8"?>
<!-- Generator: Adobe Illustrator 24.1.3, SVG Export Plug-In . SVG Version: 6.00 Build 0)  -->
<svg version="1.1" id="Layer_1" xmlns="http://www.w3.org/2000/svg" xmlns:xlink="http://www.w3.org/1999/xlink" x="0px" y="0px"
	 viewBox="0 0 24 24" style="enable-background:new 0 0 24 24;" xml:space="preserve">
<style type="text/css">
	.st0{fill:#4A5568;}
</style>
<g>
	<path class="st0" d="M12,21.6c-0.1,0-0.2,0-0.2,0C6,20.1,2,14.9,2,9c0-1.1,0.1-2.2,0.4-3.3C2.5,5.3,2.9,5,3.4,5
		c2.9,0.1,5.7-0.9,7.9-2.8c0.4-0.3,1-0.3,1.3,0c2.2,1.9,5,2.9,7.9,2.8c0.5,0,0.9,0.3,1,0.7C21.9,6.8,22,7.9,22,9
		c0,5.9-4,11.1-9.8,12.6C12.2,21.6,12.1,21.6,12,21.6z M4.2,7C4.1,7.7,4,8.3,4,9c0,4.9,3.3,9.3,8,10.6c4.7-1.3,8-5.6,8-10.6
		c0-0.7-0.1-1.3-0.2-2C17,7,14.2,6,12,4.2C9.8,6,7,7,4.2,7z"/>
</g>
<g>
	<path class="st0" d="M12,16c-0.6,0-1-0.4-1-1s0.4-1,1-1h0c0.6,0,1,0.4,1,1S12.6,16,12,16z M12,12c-0.6,0-1-0.4-1-1V9
		c0-0.6,0.4-1,1-1s1,0.4,1,1v2C13,11.6,12.6,12,12,12z"/>
</g>
</svg>
