<?xml version="1.0" encoding="utf-8"?>
<!-- Generator: Adobe Illustrator 24.1.3, SVG Export Plug-In . SVG Version: 6.00 Build 0)  -->
<svg version="1.1" id="Layer_1" xmlns="http://www.w3.org/2000/svg" xmlns:xlink="http://www.w3.org/1999/xlink" x="0px" y="0px"
	 viewBox="0 0 20 20" style="enable-background:new 0 0 20 20;" xml:space="preserve">
<style type="text/css">
	.st0{fill:#4B5563;}
</style>
<path class="st0" d="M3,1C2.4,1,2,1.4,2,2s0.4,1,1,1h1.2l0.3,1.2c0,0,0,0,0,0l1.4,5.4L5,10.6C3.7,11.8,4.6,14,6.4,14H15
	c0.6,0,1-0.4,1-1s-0.4-1-1-1H6.4l1-1H14c0.4,0,0.7-0.2,0.9-0.6l3-6c0.2-0.3,0.1-0.7,0-1C17.7,3.2,17.3,3,17,3H6.3L6,1.8
	C5.9,1.3,5.5,1,5,1H3z"/>
<path class="st0" d="M16,16.5c0,0.8-0.7,1.5-1.5,1.5S13,17.3,13,16.5s0.7-1.5,1.5-1.5S16,15.7,16,16.5z"/>
<path class="st0" d="M6.5,18C7.3,18,8,17.3,8,16.5S7.3,15,6.5,15S5,15.7,5,16.5S5.7,18,6.5,18z"/>
</svg>
