<?xml version="1.0" encoding="utf-8"?>
<!-- Generator: Adobe Illustrator 24.1.3, SVG Export Plug-In . SVG Version: 6.00 Build 0)  -->
<svg version="1.1" id="Layer_1" xmlns="http://www.w3.org/2000/svg" xmlns:xlink="http://www.w3.org/1999/xlink" x="0px" y="0px"
	 viewBox="0 0 24 24" style="enable-background:new 0 0 24 24;" xml:space="preserve">
<style type="text/css">
	.st0{fill:#374151;}
</style>
<g>
	<path class="st0" d="M20,22H4c-0.3,0-0.5-0.1-0.7-0.3C3.1,21.5,3,21.2,3,20.9l1-12C4,8.4,4.5,8,5,8h2V7c0-2.8,2.2-5,5-5s5,2.2,5,5
		v1h2c0.5,0,1,0.4,1,0.9l1,12c0,0.3-0.1,0.6-0.3,0.8C20.5,21.9,20.3,22,20,22z M5.1,20h13.8l-0.8-10H17v1c0,0.6-0.4,1-1,1
		s-1-0.4-1-1v-1H9v1c0,0.6-0.4,1-1,1s-1-0.4-1-1v-1H5.9L5.1,20z M9,8h6V7c0-1.7-1.3-3-3-3S9,5.3,9,7V8z"/>
</g>
</svg>
