<?xml version="1.0" encoding="utf-8"?>
<!-- Generator: Adobe Illustrator 24.1.3, SVG Export Plug-In . SVG Version: 6.00 Build 0)  -->
<svg version="1.1" id="Layer_1" xmlns="http://www.w3.org/2000/svg" xmlns:xlink="http://www.w3.org/1999/xlink" x="0px" y="0px"
	 viewBox="0 0 20 20" style="enable-background:new 0 0 20 20;" xml:space="preserve">
<style type="text/css">
	.st0{fill:#4A5568;}
</style>
<path class="st0" d="M3,3C2.4,3,2,3.4,2,4s0.4,1,1,1h11c0.6,0,1-0.4,1-1s-0.4-1-1-1H3z"/>
<path class="st0" d="M3,7C2.4,7,2,7.4,2,8s0.4,1,1,1h7c0.6,0,1-0.4,1-1s-0.4-1-1-1H3z"/>
<path class="st0" d="M3,11c-0.6,0-1,0.4-1,1s0.4,1,1,1h4c0.6,0,1-0.4,1-1s-0.4-1-1-1H3z"/>
<path class="st0" d="M15,8c0-0.6-0.4-1-1-1s-1,0.4-1,1v5.6l-1.3-1.3c-0.4-0.4-1-0.4-1.4,0c-0.4,0.4-0.4,1,0,1.4l3,3
	c0.2,0.2,0.4,0.3,0.7,0.3s0.5-0.1,0.7-0.3l3-3c0.4-0.4,0.4-1,0-1.4c-0.4-0.4-1-0.4-1.4,0L15,13.6V8z"/>
</svg>
