<?xml version="1.0" encoding="utf-8"?>
<!-- Generator: Adobe Illustrator 24.1.3, SVG Export Plug-In . SVG Version: 6.00 Build 0)  -->
<svg version="1.1" id="Layer_1" xmlns="http://www.w3.org/2000/svg" xmlns:xlink="http://www.w3.org/1999/xlink" x="0px" y="0px"
	 viewBox="0 0 20 20" style="enable-background:new 0 0 20 20;" xml:space="preserve">
<style type="text/css">
	.st0{fill-rule:evenodd;clip-rule:evenodd;fill:#4A5568;}
</style>
<path class="st0" d="M5,2c0.6,0,1,0.4,1,1v1h1c0.6,0,1,0.4,1,1S7.6,6,7,6H6v1c0,0.6-0.4,1-1,1S4,7.6,4,7V6H3C2.4,6,2,5.6,2,5
	s0.4-1,1-1h1V3C4,2.4,4.4,2,5,2z M5,12c0.6,0,1,0.4,1,1v1h1c0.6,0,1,0.4,1,1s-0.4,1-1,1H6v1c0,0.6-0.4,1-1,1s-1-0.4-1-1v-1H3
	c-0.6,0-1-0.4-1-1s0.4-1,1-1h1v-1C4,12.4,4.4,12,5,12z"/>
<path class="st0" d="M12,2c0.5,0,0.9,0.3,1,0.7l1.2,4.5l3.4,1.9C17.8,9.3,18,9.6,18,10c0,0.4-0.2,0.7-0.5,0.9l-3.4,1.9L13,17.3
	c-0.1,0.4-0.5,0.7-1,0.7c-0.5,0-0.9-0.3-1-0.7l-1.2-4.5l-3.4-1.9C6.2,10.7,6,10.4,6,10c0-0.4,0.2-0.7,0.5-0.9l3.4-1.9L11,2.7
	C11.1,2.3,11.5,2,12,2z"/>
</svg>
