<?xml version="1.0" encoding="utf-8"?>
<!-- Generator: Adobe Illustrator 24.1.3, SVG Export Plug-In . SVG Version: 6.00 Build 0)  -->
<svg version="1.1" id="Layer_1" xmlns="http://www.w3.org/2000/svg" xmlns:xlink="http://www.w3.org/1999/xlink" x="0px" y="0px"
	 viewBox="0 0 20 20" style="enable-background:new 0 0 20 20;" xml:space="preserve">
<style type="text/css">
	.st0{fill-rule:evenodd;clip-rule:evenodd;fill:#4B5563;}
</style>
<path class="st0" d="M18,3c0-0.3-0.2-0.7-0.5-0.9s-0.7-0.2-1,0L8.8,6H5C3.3,6,2,7.3,2,9c0,1.7,1.3,3,3,3h0.3l1.8,5.3
	C7.2,17.7,7.6,18,8,18h1c0.6,0,1-0.4,1-1v-4.4l6.6,3.3c0.3,0.2,0.7,0.1,1,0c0.3-0.2,0.5-0.5,0.5-0.9V3z"/>
</svg>
