<?xml version="1.0" encoding="utf-8"?>
<!-- Generator: Adobe Illustrator 24.1.3, SVG Export Plug-In . SVG Version: 6.00 Build 0)  -->
<svg version="1.1" id="Layer_1" xmlns="http://www.w3.org/2000/svg" xmlns:xlink="http://www.w3.org/1999/xlink" x="0px" y="0px"
	 viewBox="0 0 20 20" style="enable-background:new 0 0 20 20;" xml:space="preserve">
<style type="text/css">
	.st0{fill:#4B5563;}
</style>
<path class="st0" d="M9,2.9C9.3,2,10.7,2,11,2.9L12,6.2c0.1,0.4,0.5,0.7,1,0.7h3.5c1,0,1.4,1.2,0.6,1.8l-2.8,2
	c-0.4,0.3-0.5,0.7-0.4,1.1l1.1,3.3c0.3,0.9-0.8,1.7-1.5,1.1l-2.8-2c-0.4-0.3-0.8-0.3-1.2,0l-2.8,2c-0.8,0.6-1.8-0.2-1.5-1.1l1.1-3.3
	c0.1-0.4,0-0.9-0.4-1.1L3,8.7C2.2,8.1,2.6,6.9,3.6,6.9H7c0.4,0,0.8-0.3,1-0.7L9,2.9z"/>
</svg>
