<?xml version="1.0" encoding="utf-8"?>
<!-- Generator: Adobe Illustrator 24.1.3, SVG Export Plug-In . SVG Version: 6.00 Build 0)  -->
<svg version="1.1" id="Layer_1" xmlns="http://www.w3.org/2000/svg" xmlns:xlink="http://www.w3.org/1999/xlink" x="0px" y="0px"
	 viewBox="0 0 20 20" style="enable-background:new 0 0 20 20;" xml:space="preserve">
<style type="text/css">
	.st0{fill:#374151;}
</style>
<path class="st0" d="M3.7,2.3c-0.4-0.4-1-0.4-1.4,0c-0.4,0.4-0.4,1,0,1.4l6.9,6.9c0,0.1,0.1,0.1,0.2,0.2l6.9,6.9
	c0.4,0.4,1,0.4,1.4,0c0.4-0.4,0.4-1,0-1.4L17,15.6c2.8-3.5,2.6-8.7-0.7-12c-0.4-0.4-1-0.4-1.4,0c-0.4,0.4-0.4,1,0,1.4
	c2.5,2.5,2.7,6.4,0.7,9.1l-1.4-1.4c1.3-1.9,1.1-4.6-0.6-6.3c-0.4-0.4-1-0.4-1.4,0c-0.4,0.4-0.4,1,0,1.4c0.9,0.9,1.1,2.3,0.6,3.4
	l-2-2c0,0,0,0,0,0L3.7,2.3z"/>
<path class="st0" d="M3.2,8.2C3.4,7.7,3.1,7.1,2.5,7C2,6.8,1.4,7.1,1.3,7.7c-0.8,3,0,6.3,2.3,8.7c0.4,0.4,1,0.4,1.4,0
	c0.4-0.4,0.4-1,0-1.4C3.2,13.1,2.6,10.5,3.2,8.2z"/>
<path class="st0" d="M7.4,11.5C7.1,11,6.5,10.9,6,11.1c-0.5,0.3-0.6,0.9-0.4,1.4c0.2,0.4,0.5,0.7,0.8,1c0.4,0.4,1,0.4,1.4,0
	c0.4-0.4,0.4-1,0-1.4C7.7,11.9,7.5,11.7,7.4,11.5z"/>
</svg>
