<?xml version="1.0" encoding="utf-8"?>
<!-- Generator: Adobe Illustrator 24.1.3, SVG Export Plug-In . SVG Version: 6.00 Build 0)  -->
<svg version="1.1" id="Layer_1" xmlns="http://www.w3.org/2000/svg" xmlns:xlink="http://www.w3.org/1999/xlink" x="0px" y="0px"
	 viewBox="0 0 20 20" style="enable-background:new 0 0 20 20;" xml:space="preserve">
<style type="text/css">
	.st0{fill-rule:evenodd;clip-rule:evenodd;fill:#374151;}
</style>
<path class="st0" d="M5.1,3.6c0.4,0.4,0.4,1,0,1.4c-2.7,2.7-2.7,7.2,0,9.9c0.4,0.4,0.4,1,0,1.4c-0.4,0.4-1,0.4-1.4,0
	c-3.5-3.5-3.5-9.2,0-12.7C4,3.2,4.7,3.2,5.1,3.6z M14.9,3.6c0.4-0.4,1-0.4,1.4,0c3.5,3.5,3.5,9.2,0,12.7c-0.4,0.4-1,0.4-1.4,0
	c-0.4-0.4-0.4-1,0-1.4c2.7-2.7,2.7-7.2,0-9.9C14.6,4.7,14.6,4,14.9,3.6z M7.9,6.5c0.4,0.4,0.4,1,0,1.4c-1.2,1.2-1.2,3.1,0,4.2
	c0.4,0.4,0.4,1,0,1.4c-0.4,0.4-1,0.4-1.4,0c-2-2-2-5.1,0-7.1C6.9,6.1,7.5,6.1,7.9,6.5z M12.1,6.5c0.4-0.4,1-0.4,1.4,0
	c2,2,2,5.1,0,7.1c-0.4,0.4-1,0.4-1.4,0c-0.4-0.4-0.4-1,0-1.4c1.2-1.2,1.2-3.1,0-4.2C11.7,7.5,11.7,6.9,12.1,6.5z M10,9
	c0.6,0,1,0.4,1,1v0c0,0.6-0.4,1-1,1c-0.6,0-1-0.4-1-1v0C9,9.4,9.4,9,10,9z"/>
</svg>
