<?xml version="1.0" encoding="utf-8"?>
<!-- Generator: Adobe Illustrator 24.1.3, SVG Export Plug-In . SVG Version: 6.00 Build 0)  -->
<svg version="1.1" id="Layer_1" xmlns="http://www.w3.org/2000/svg" xmlns:xlink="http://www.w3.org/1999/xlink" x="0px" y="0px"
	 viewBox="0 0 20 20" style="enable-background:new 0 0 20 20;" xml:space="preserve">
<style type="text/css">
	.st0{fill-rule:evenodd;clip-rule:evenodd;fill:#4A5568;}
</style>
<path class="st0" d="M10,2c0.6,0,1,0.4,1,1v1c0,0.6-0.4,1-1,1C9.4,5,9,4.6,9,4V3C9,2.4,9.4,2,10,2z M14,10c0,2.2-1.8,4-4,4
	c-2.2,0-4-1.8-4-4c0-2.2,1.8-4,4-4C12.2,6,14,7.8,14,10z M13.5,14.9l0.7,0.7c0.4,0.4,1,0.4,1.4,0c0.4-0.4,0.4-1,0-1.4l-0.7-0.7
	c-0.4-0.4-1-0.4-1.4,0C13.1,13.9,13.1,14.6,13.5,14.9z M15.7,4.3c0.4,0.4,0.4,1,0,1.4l-0.7,0.7c-0.4,0.4-1,0.4-1.4,0
	c-0.4-0.4-0.4-1,0-1.4l0.7-0.7C14.6,4,15.3,4,15.7,4.3z M17,11c0.6,0,1-0.4,1-1c0-0.6-0.4-1-1-1h-1c-0.6,0-1,0.4-1,1
	c0,0.6,0.4,1,1,1H17z M10,15c0.6,0,1,0.4,1,1v1c0,0.6-0.4,1-1,1c-0.6,0-1-0.4-1-1v-1C9,15.4,9.4,15,10,15z M5.1,6.5
	c0.4,0.4,1,0.4,1.4,0c0.4-0.4,0.4-1,0-1.4L5.8,4.3C5.4,4,4.7,4,4.3,4.3C4,4.7,4,5.4,4.3,5.8L5.1,6.5z M6.5,14.9l-0.7,0.7
	c-0.4,0.4-1,0.4-1.4,0s-0.4-1,0-1.4l0.7-0.7c0.4-0.4,1-0.4,1.4,0C6.9,13.9,6.9,14.6,6.5,14.9z M4,11c0.6,0,1-0.4,1-1
	c0-0.6-0.4-1-1-1H3c-0.6,0-1,0.4-1,1c0,0.6,0.4,1,1,1H4z"/>
</svg>
