<?xml version="1.0" encoding="utf-8"?>
<!-- Generator: Adobe Illustrator 24.1.3, SVG Export Plug-In . SVG Version: 6.00 Build 0)  -->
<svg version="1.1" id="Layer_1" xmlns="http://www.w3.org/2000/svg" xmlns:xlink="http://www.w3.org/1999/xlink" x="0px" y="0px"
	 viewBox="0 0 24 24" style="enable-background:new 0 0 24 24;" xml:space="preserve">
<style type="text/css">
	.st0{fill:#4B5563;}
</style>
<g>
	<path class="st0" d="M12,22c-2.7,0-5.2-1.1-7-2.9c0,0-0.1,0-0.1-0.1s0,0-0.1-0.1C3.1,17.2,2,14.7,2,12c0-2.7,1.1-5.2,2.9-7
		c0,0,0,0,0.1-0.1s0,0,0.1-0.1C6.8,3.1,9.3,2,12,2c2.7,0,5.2,1.1,7,2.9c0,0,0.1,0,0.1,0.1s0,0.1,0.1,0.1c1.8,1.8,2.9,4.3,2.9,7
		c0,2.7-1.1,5.2-2.9,7c0,0,0,0.1-0.1,0.1s-0.1,0-0.1,0.1C17.2,20.9,14.7,22,12,22z M7.1,18.3C8.5,19.4,10.2,20,12,20
		s3.5-0.6,4.9-1.7l-2.1-2.1C14,16.7,13,17,12,17s-2-0.3-2.8-0.8L7.1,18.3z M5.7,7.1C4.6,8.5,4,10.2,4,12s0.6,3.5,1.7,4.9l2.1-2.1
		C7.3,14,7,13,7,12s0.3-2,0.8-2.8L5.7,7.1z M16.2,14.8l2.1,2.1c1.1-1.4,1.7-3.1,1.7-4.9s-0.6-3.5-1.7-4.9l-2.1,2.1
		C16.7,10,17,11,17,12S16.7,14,16.2,14.8z M12,9c-1.7,0-3,1.3-3,3s1.3,3,3,3s3-1.3,3-3S13.7,9,12,9z M7.1,5.7l2.1,2.1
		C10,7.3,11,7,12,7s2,0.3,2.8,0.8l2.1-2.1C15.5,4.6,13.8,4,12,4S8.5,4.6,7.1,5.7z"/>
</g>
</svg>
