<?xml version="1.0" encoding="utf-8"?>
<!-- Generator: Adobe Illustrator 24.1.3, SVG Export Plug-In . SVG Version: 6.00 Build 0)  -->
<svg version="1.1" id="Layer_1" xmlns="http://www.w3.org/2000/svg" xmlns:xlink="http://www.w3.org/1999/xlink" x="0px" y="0px"
	 viewBox="0 0 20 20" style="enable-background:new 0 0 20 20;" xml:space="preserve">
<style type="text/css">
	.st0{fill:#4A5568;}
</style>
<path class="st0" d="M8,5C7.4,5,7,5.4,7,6c0,0.6,0.4,1,1,1h5.6l-1.3,1.3c-0.4,0.4-0.4,1,0,1.4c0.4,0.4,1,0.4,1.4,0l3-3
	C16.9,6.5,17,6.3,17,6s-0.1-0.5-0.3-0.7l-3-3c-0.4-0.4-1-0.4-1.4,0c-0.4,0.4-0.4,1,0,1.4L13.6,5H8z"/>
<path class="st0" d="M12,15c0.6,0,1-0.4,1-1s-0.4-1-1-1H6.4l1.3-1.3c0.4-0.4,0.4-1,0-1.4c-0.4-0.4-1-0.4-1.4,0l-3,3
	C3.1,13.5,3,13.7,3,14s0.1,0.5,0.3,0.7l3,3c0.4,0.4,1,0.4,1.4,0c0.4-0.4,0.4-1,0-1.4L6.4,15H12z"/>
</svg>
