<?xml version="1.0" encoding="utf-8"?>
<!-- Generator: Adobe Illustrator 24.1.3, SVG Export Plug-In . SVG Version: 6.00 Build 0)  -->
<svg version="1.1" id="Layer_1" xmlns="http://www.w3.org/2000/svg" xmlns:xlink="http://www.w3.org/1999/xlink" x="0px" y="0px"
	 viewBox="0 0 24 24" style="enable-background:new 0 0 24 24;" xml:space="preserve">
<style type="text/css">
	.st0{fill:#374151;}
</style>
<g>
	<path class="st0" d="M19,19H5c-1.7,0-3-1.3-3-3V8c0-1.7,1.3-3,3-3h14c1.7,0,3,1.3,3,3v8C22,17.7,20.7,19,19,19z M13,17h6
		c0.6,0,1-0.4,1-1v-1h-7V17z M4,15v1c0,0.6,0.4,1,1,1h6v-2H4z M13,13h7v-2h-7V13z M4,13h7v-2H4V13z M12,9h8V8c0-0.6-0.4-1-1-1H5
		C4.4,7,4,7.4,4,8v1H12z"/>
</g>
</svg>
