<?xml version="1.0" encoding="utf-8"?>
<!-- Generator: Adobe Illustrator 24.1.3, SVG Export Plug-In . SVG Version: 6.00 Build 0)  -->
<svg version="1.1" id="Layer_1" xmlns="http://www.w3.org/2000/svg" xmlns:xlink="http://www.w3.org/1999/xlink" x="0px" y="0px"
	 viewBox="0 0 24 24" style="enable-background:new 0 0 24 24;" xml:space="preserve">
<style type="text/css">
	.st0{fill:#4A5568;}
</style>
<g>
	<path class="st0" d="M12,22c-0.8,0-1.6-0.3-2.1-0.9l-7-7C2.3,13.6,2,12.8,2,12V7c0-2.8,2.2-5,5-5h5c0.8,0,1.6,0.3,2.1,0.9l7,7
		c0.6,0.6,0.9,1.3,0.9,2.1s-0.3,1.6-0.9,2.1l-7,7C13.6,21.7,12.8,22,12,22z M7,4C5.3,4,4,5.3,4,7v5c0,0.3,0.1,0.5,0.3,0.7l7,7
		c0.4,0.4,1,0.4,1.4,0l7-7c0.2-0.2,0.3-0.4,0.3-0.7s-0.1-0.5-0.3-0.7l-7-7C12.5,4.1,12.3,4,12,4H7z M7,8C6.5,8,6,7.6,6,7s0.4-1,1-1
		h0c0.6,0,1,0.4,1,1S7.6,8,7,8z"/>
</g>
</svg>
