<?xml version="1.0" encoding="utf-8"?>
<!-- Generator: Adobe Illustrator 24.1.3, SVG Export Plug-In . SVG Version: 6.00 Build 0)  -->
<svg version="1.1" id="Layer_1" xmlns="http://www.w3.org/2000/svg" xmlns:xlink="http://www.w3.org/1999/xlink" x="0px" y="0px"
	 viewBox="0 0 20 20" style="enable-background:new 0 0 20 20;" xml:space="preserve">
<style type="text/css">
	.st0{fill:#4A5568;}
</style>
<path class="st0" d="M3,4c0-0.6,0.4-1,1-1h12c0.6,0,1,0.4,1,1v2c0,0.6-0.4,1-1,1H4C3.4,7,3,6.6,3,6V4z"/>
<path class="st0" d="M3,10c0-0.6,0.4-1,1-1h6c0.6,0,1,0.4,1,1v6c0,0.6-0.4,1-1,1H4c-0.6,0-1-0.4-1-1V10z"/>
<path class="st0" d="M14,9c-0.6,0-1,0.4-1,1v6c0,0.6,0.4,1,1,1h2c0.6,0,1-0.4,1-1v-6c0-0.6-0.4-1-1-1H14z"/>
</svg>
