<?xml version="1.0" encoding="utf-8"?>
<!-- Generator: Adobe Illustrator 24.1.3, SVG Export Plug-In . SVG Version: 6.00 Build 0)  -->
<svg version="1.1" id="Layer_1" xmlns="http://www.w3.org/2000/svg" xmlns:xlink="http://www.w3.org/1999/xlink" x="0px" y="0px"
	 viewBox="0 0 24 24" style="enable-background:new 0 0 24 24;" xml:space="preserve">
<style type="text/css">
	.st0{fill:#4B5563;}
</style>
<g>
	<path class="st0" d="M19,21H5c-1.7,0-3-1.3-3-3V6c0-1.7,1.3-3,3-3h14c1.7,0,3,1.3,3,3v12C22,19.7,20.7,21,19,21z M5,5
		C4.4,5,4,5.4,4,6v12c0,0.6,0.4,1,1,1h14c0.6,0,1-0.4,1-1V6c0-0.6-0.4-1-1-1H5z M16,16h-3c-0.6,0-1-0.4-1-1s0.4-1,1-1h3
		c0.6,0,1,0.4,1,1S16.6,16,16,16z M8,16c-0.3,0-0.5-0.1-0.7-0.3c-0.4-0.4-0.4-1,0-1.4L9.6,12L7.3,9.7c-0.4-0.4-0.4-1,0-1.4
		s1-0.4,1.4,0l3,3c0.4,0.4,0.4,1,0,1.4l-3,3C8.5,15.9,8.3,16,8,16z"/>
</g>
</svg>
