<?xml version="1.0" encoding="utf-8"?>
<!-- Generator: Adobe Illustrator 24.1.3, SVG Export Plug-In . SVG Version: 6.00 Build 0)  -->
<svg version="1.1" id="Layer_1" xmlns="http://www.w3.org/2000/svg" xmlns:xlink="http://www.w3.org/1999/xlink" x="0px" y="0px"
	 viewBox="0 0 20 20" style="enable-background:new 0 0 20 20;" xml:space="preserve">
<style type="text/css">
	.st0{fill:#374151;}
</style>
<path class="st0" d="M18,9.5c0,0.8-0.7,1.5-1.5,1.5c-0.8,0-1.5-0.7-1.5-1.5v-6C15,2.7,15.7,2,16.5,2C17.3,2,18,2.7,18,3.5V9.5z"/>
<path class="st0" d="M14,9.7V4.2c0-0.8-0.4-1.5-1.1-1.8l0,0C12.3,2.1,11.7,2,11.1,2H5.6c-1,0-1.8,0.7-2,1.6l-1.2,6
	c-0.2,1.2,0.7,2.4,2,2.4H8v4c0,1.1,0.9,2,2,2c0.6,0,1-0.4,1-1v-0.7c0-0.9,0.3-1.7,0.8-2.4l1.4-1.9C13.7,11.4,14,10.5,14,9.7z"/>
</svg>
