<?xml version="1.0" encoding="utf-8"?>
<!-- Generator: Adobe Illustrator 24.1.3, SVG Export Plug-In . SVG Version: 6.00 Build 0)  -->
<svg version="1.1" id="Layer_1" xmlns="http://www.w3.org/2000/svg" xmlns:xlink="http://www.w3.org/1999/xlink" x="0px" y="0px"
	 viewBox="0 0 20 20" style="enable-background:new 0 0 20 20;" xml:space="preserve">
<style type="text/css">
	.st0{fill:#374151;}
</style>
<path class="st0" d="M2,10.5C2,9.7,2.7,9,3.5,9S5,9.7,5,10.5v6C5,17.3,4.3,18,3.5,18S2,17.3,2,16.5V10.5z"/>
<path class="st0" d="M6,10.3v5.4c0,0.8,0.4,1.5,1.1,1.8l0,0C7.7,17.9,8.3,18,8.9,18h5.4c1,0,1.8-0.7,2-1.6l1.2-6
	c0.2-1.2-0.7-2.4-2-2.4H12V4c0-1.1-0.9-2-2-2C9.4,2,9,2.4,9,3v0.7c0,0.9-0.3,1.7-0.8,2.4L6.8,7.9C6.3,8.6,6,9.5,6,10.3z"/>
</svg>
