<?xml version="1.0" encoding="utf-8"?>
<!-- Generator: Adobe Illustrator 24.1.3, SVG Export Plug-In . SVG Version: 6.00 Build 0)  -->
<svg version="1.1" id="Layer_1" xmlns="http://www.w3.org/2000/svg" xmlns:xlink="http://www.w3.org/1999/xlink" x="0px" y="0px"
	 viewBox="0 0 24 24" style="enable-background:new 0 0 24 24;" xml:space="preserve">
<style type="text/css">
	.st0{fill:#4A5568;}
</style>
<g>
	<path class="st0" d="M21,22c-0.4,0-0.7-0.2-0.9-0.6L18.9,19h-5.8l-1.2,2.4c-0.2,0.5-0.8,0.7-1.3,0.4c-0.5-0.2-0.7-0.8-0.4-1.3
		l1.5-3c0,0,0,0,0,0l3.5-7c0.3-0.7,1.4-0.7,1.8,0l3.5,7c0,0,0,0,0,0l1.5,3c0.2,0.5,0,1.1-0.4,1.3C21.3,22,21.2,22,21,22z M14.1,17
		h3.8L16,13.2L14.1,17z M3,19.1c-0.4,0-0.7-0.2-0.9-0.6c-0.2-0.5,0-1.1,0.5-1.3c2-1,3.7-2.3,5.2-3.9c-0.9-1.2-1.6-2.5-2.2-3.9
		C5.3,8.9,5.5,8.3,6,8.1c0.5-0.2,1.1,0,1.3,0.5c0.5,1.1,1,2.1,1.7,3C10.2,9.9,11,8,11.5,6H3C2.4,6,2,5.6,2,5s0.4-1,1-1h5V3
		c0-0.6,0.4-1,1-1s1,0.4,1,1v1h2.7c0,0,0,0,0,0H15c0.6,0,1,0.4,1,1s-0.4,1-1,1h-1.4c-0.6,2.7-1.7,5.1-3.3,7.3
		c0.2,0.2,0.3,0.4,0.5,0.5c0.4,0.4,0.4,1,0,1.4c-0.4,0.4-1,0.4-1.4,0C9.2,15.1,9.1,15,9,14.8C7.4,16.5,5.6,18,3.4,19
		C3.3,19.1,3.2,19.1,3,19.1z"/>
</g>
</svg>
