<?xml version="1.0" encoding="utf-8"?>
<!-- Generator: Adobe Illustrator 24.1.3, SVG Export Plug-In . SVG Version: 6.00 Build 0)  -->
<svg version="1.1" id="Layer_1" xmlns="http://www.w3.org/2000/svg" xmlns:xlink="http://www.w3.org/1999/xlink" x="0px" y="0px"
	 viewBox="0 0 24 24" style="enable-background:new 0 0 24 24;" xml:space="preserve">
<style type="text/css">
	.st0{fill:#4A5568;}
</style>
<g>
	<path class="st0" d="M16.1,22H7.9c-1.6,0-2.9-1.2-3-2.8L4.1,8H4C3.4,8,3,7.6,3,7s0.4-1,1-1h1c0,0,0,0,0,0h3V4c0-1.1,0.9-2,2-2h4
		c1.1,0,2,0.9,2,2v2h3c0,0,0,0,0,0h1c0.6,0,1,0.4,1,1s-0.4,1-1,1h-0.1l-0.8,11.2C19,20.8,17.7,22,16.1,22z M6.1,8l0.8,11.1
		c0,0.5,0.5,0.9,1,0.9h8.3c0.5,0,1-0.4,1-0.9L17.9,8H6.1z M10,6h4V4h-4V6z M14,18c-0.6,0-1-0.4-1-1v-6c0-0.6,0.4-1,1-1s1,0.4,1,1v6
		C15,17.6,14.6,18,14,18z M10,18c-0.6,0-1-0.4-1-1v-6c0-0.6,0.4-1,1-1s1,0.4,1,1v6C11,17.6,10.6,18,10,18z"/>
</g>
</svg>
