<?xml version="1.0" encoding="utf-8"?>
<!-- Generator: Adobe Illustrator 24.1.3, SVG Export Plug-In . SVG Version: 6.00 Build 0)  -->
<svg version="1.1" id="Layer_1" xmlns="http://www.w3.org/2000/svg" xmlns:xlink="http://www.w3.org/1999/xlink" x="0px" y="0px"
	 viewBox="0 0 20 20" style="enable-background:new 0 0 20 20;" xml:space="preserve">
<style type="text/css">
	.st0{fill:#374151;}
</style>
<path class="st0" d="M8,16.5C8,17.3,7.3,18,6.5,18S5,17.3,5,16.5S5.7,15,6.5,15S8,15.7,8,16.5z"/>
<path class="st0" d="M15,16.5c0,0.8-0.7,1.5-1.5,1.5S12,17.3,12,16.5s0.7-1.5,1.5-1.5S15,15.7,15,16.5z"/>
<path class="st0" d="M3,4C2.4,4,2,4.4,2,5v10c0,0.6,0.4,1,1,1h1.1c0.2-1.1,1.2-2,2.4-2s2.2,0.9,2.4,2H10c0.6,0,1-0.4,1-1V5
	c0-0.6-0.4-1-1-1H3z"/>
<path class="st0" d="M14,7c-0.6,0-1,0.4-1,1v6.1c0.2,0,0.3-0.1,0.5-0.1c1.2,0,2.2,0.9,2.4,2H17c0.6,0,1-0.4,1-1v-5
	c0-0.3-0.1-0.5-0.3-0.7l-2-2C15.5,7.1,15.3,7,15,7H14z"/>
</svg>
