<?xml version="1.0" encoding="utf-8"?>
<!-- Generator: Adobe Illustrator 24.1.3, SVG Export Plug-In . SVG Version: 6.00 Build 0)  -->
<svg version="1.1" id="Layer_1" xmlns="http://www.w3.org/2000/svg" xmlns:xlink="http://www.w3.org/1999/xlink" x="0px" y="0px"
	 viewBox="0 0 20 20" style="enable-background:new 0 0 20 20;" xml:space="preserve">
<style type="text/css">
	.st0{fill-rule:evenodd;clip-rule:evenodd;fill:#4A5568;}
</style>
<path class="st0" d="M3,17c0-0.6,0.4-1,1-1h12c0.6,0,1,0.4,1,1s-0.4,1-1,1H4C3.4,18,3,17.6,3,17z M6.3,6.7c-0.4-0.4-0.4-1,0-1.4l3-3
	C9.5,2.1,9.7,2,10,2c0.3,0,0.5,0.1,0.7,0.3l3,3c0.4,0.4,0.4,1,0,1.4c-0.4,0.4-1,0.4-1.4,0L11,5.4V13c0,0.6-0.4,1-1,1
	c-0.6,0-1-0.4-1-1V5.4L7.7,6.7C7.3,7.1,6.7,7.1,6.3,6.7z"/>
</svg>
