<?xml version="1.0" encoding="utf-8"?>
<!-- Generator: Adobe Illustrator 24.1.3, SVG Export Plug-In . SVG Version: 6.00 Build 0)  -->
<svg version="1.1" id="Layer_1" xmlns="http://www.w3.org/2000/svg" xmlns:xlink="http://www.w3.org/1999/xlink" x="0px" y="0px"
	 viewBox="0 0 20 20" style="enable-background:new 0 0 20 20;" xml:space="preserve">
<style type="text/css">
	.st0{fill:#4A5568;}
</style>
<path class="st0" d="M11,6c0,1.7-1.3,3-3,3S5,7.7,5,6s1.3-3,3-3S11,4.3,11,6z"/>
<path class="st0" d="M14,17c0-3.3-2.7-6-6-6c-3.3,0-6,2.7-6,6H14z"/>
<path class="st0" d="M13,8c-0.6,0-1,0.4-1,1s0.4,1,1,1h4c0.6,0,1-0.4,1-1s-0.4-1-1-1H13z"/>
</svg>
