<?xml version="1.0" encoding="utf-8"?>
<!-- Generator: Adobe Illustrator 24.1.3, SVG Export Plug-In . SVG Version: 6.00 Build 0)  -->
<svg version="1.1" id="Layer_1" xmlns="http://www.w3.org/2000/svg" xmlns:xlink="http://www.w3.org/1999/xlink" x="0px" y="0px"
	 viewBox="0 0 20 20" style="enable-background:new 0 0 20 20;" xml:space="preserve">
<style type="text/css">
	.st0{fill:#4A5568;}
</style>
<path class="st0" d="M13,6c0,1.7-1.3,3-3,3C8.3,9,7,7.7,7,6s1.3-3,3-3C11.7,3,13,4.3,13,6z"/>
<path class="st0" d="M18,8c0,1.1-0.9,2-2,2s-2-0.9-2-2s0.9-2,2-2S18,6.9,18,8z"/>
<path class="st0" d="M14,15c0-2.2-1.8-4-4-4c-2.2,0-4,1.8-4,4v3h8V15z"/>
<path class="st0" d="M6,8c0,1.1-0.9,2-2,2S2,9.1,2,8s0.9-2,2-2S6,6.9,6,8z"/>
<path class="st0" d="M16,18v-3c0-1.1-0.3-2-0.7-2.9C15.5,12,15.7,12,16,12c1.7,0,3,1.3,3,3v3H16z"/>
<path class="st0" d="M4.7,12.1C4.3,13,4,13.9,4,15v3H1v-3c0-1.7,1.3-3,3-3C4.3,12,4.5,12,4.7,12.1z"/>
</svg>
