<?xml version="1.0" encoding="utf-8"?>
<!-- Generator: Adobe Illustrator 24.1.3, SVG Export Plug-In . SVG Version: 6.00 Build 0)  -->
<svg version="1.1" id="Layer_1" xmlns="http://www.w3.org/2000/svg" xmlns:xlink="http://www.w3.org/1999/xlink" x="0px" y="0px"
	 viewBox="0 0 20 20" style="enable-background:new 0 0 20 20;" xml:space="preserve">
<style type="text/css">
	.st0{fill-rule:evenodd;clip-rule:evenodd;fill:#4A5568;}
</style>
<path class="st0" d="M18,10c0,4.4-3.6,8-8,8c-4.4,0-8-3.6-8-8c0-4.4,3.6-8,8-8C14.4,2,18,5.6,18,10z M12,7c0,1.1-0.9,2-2,2
	C8.9,9,8,8.1,8,7s0.9-2,2-2C11.1,5,12,5.9,12,7z M10,11c-2,0-3.8,1.2-4.5,2.9C6.6,15.2,8.2,16,10,16c1.8,0,3.4-0.8,4.5-2.1
	C13.8,12.2,12,11,10,11z"/>
</svg>
