<?xml version="1.0" encoding="utf-8"?>
<!-- Generator: Adobe Illustrator 24.1.3, SVG Export Plug-In . SVG Version: 6.00 Build 0)  -->
<svg version="1.1" id="Layer_1" xmlns="http://www.w3.org/2000/svg" xmlns:xlink="http://www.w3.org/1999/xlink" x="0px" y="0px"
	 viewBox="0 0 20 20" style="enable-background:new 0 0 20 20;" xml:space="preserve">
<style type="text/css">
	.st0{fill:#4A5568;}
</style>
<path class="st0" d="M9,6c0,1.7-1.3,3-3,3S3,7.7,3,6s1.3-3,3-3S9,4.3,9,6z"/>
<path class="st0" d="M17,6c0,1.7-1.3,3-3,3s-3-1.3-3-3s1.3-3,3-3S17,4.3,17,6z"/>
<path class="st0" d="M12.9,17c0-0.3,0.1-0.7,0.1-1c0-1.6-0.6-3.1-1.5-4.3c0.7-0.4,1.6-0.7,2.5-0.7c2.8,0,5,2.2,5,5v1H12.9z"/>
<path class="st0" d="M6,11c2.8,0,5,2.2,5,5v1H1v-1C1,13.2,3.2,11,6,11z"/>
</svg>
