<?xml version="1.0" encoding="utf-8"?>
<!-- Generator: Adobe Illustrator 24.1.3, SVG Export Plug-In . SVG Version: 6.00 Build 0)  -->
<svg version="1.1" id="Layer_1" xmlns="http://www.w3.org/2000/svg" xmlns:xlink="http://www.w3.org/1999/xlink" x="0px" y="0px"
	 viewBox="0 0 20 20" style="enable-background:new 0 0 20 20;" xml:space="preserve">
<style type="text/css">
	.st0{fill:#4A5568;}
</style>
<path class="st0" d="M8,9c1.7,0,3-1.3,3-3S9.7,3,8,3S5,4.3,5,6S6.3,9,8,9z"/>
<path class="st0" d="M8,11c3.3,0,6,2.7,6,6H2C2,13.7,4.7,11,8,11z"/>
<path class="st0" d="M16,7c0-0.6-0.4-1-1-1s-1,0.4-1,1v1h-1c-0.6,0-1,0.4-1,1c0,0.6,0.4,1,1,1h1v1c0,0.6,0.4,1,1,1s1-0.4,1-1v-1h1
	c0.6,0,1-0.4,1-1s-0.4-1-1-1h-1V7z"/>
</svg>
