<?xml version="1.0" encoding="utf-8"?>
<!-- Generator: Adobe Illustrator 24.1.3, SVG Export Plug-In . SVG Version: 6.00 Build 0)  -->
<svg version="1.1" id="Layer_1" xmlns="http://www.w3.org/2000/svg" xmlns:xlink="http://www.w3.org/1999/xlink" x="0px" y="0px"
	 viewBox="0 0 20 20" style="enable-background:new 0 0 20 20;" xml:space="preserve">
<style type="text/css">
	.st0{fill-rule:evenodd;clip-rule:evenodd;fill:#374151;}
</style>
<path class="st0" d="M4.6,3.1c0.5,0.2,0.7,0.8,0.5,1.3C4.4,6.1,4,8,4,10c0,2,0.4,3.9,1.2,5.6c0.2,0.5,0,1.1-0.5,1.3
	c-0.5,0.2-1.1,0-1.3-0.5C2.5,14.4,2,12.3,2,10c0-2.3,0.5-4.4,1.3-6.4C3.6,3.1,4.1,2.9,4.6,3.1z M13,7c-0.9,0-1.8,0.4-2.3,1.1
	l-0.3,0.4l-0.1-0.3C9.9,7.5,9.1,7,8.3,7H8C7.4,7,7,7.4,7,8s0.4,1,1,1h0.3l0.5,1.3l-1,1.3C7.6,11.9,7.3,12,7,12h0c-0.6,0-1,0.4-1,1
	s0.4,1,1,1h0c0.9,0,1.8-0.4,2.3-1.1l0.3-0.4l0.1,0.3c0.3,0.8,1,1.3,1.9,1.3H12c0.6,0,1-0.4,1-1s-0.4-1-1-1h-0.3l-0.5-1.3l1-1.3
	C12.4,9.1,12.7,9,13,9h0c0.6,0,1-0.4,1-1S13.6,7,13,7L13,7z M14.8,4.4c-0.2-0.5,0-1.1,0.5-1.3c0.5-0.2,1.1,0,1.3,0.5
	c0.9,2,1.3,4.1,1.3,6.4c0,2.3-0.5,4.4-1.3,6.4c-0.2,0.5-0.8,0.7-1.3,0.5c-0.5-0.2-0.7-0.8-0.5-1.3C15.6,13.9,16,12,16,10
	C16,8,15.6,6.1,14.8,4.4z"/>
</svg>
