<?xml version="1.0" encoding="utf-8"?>
<!-- Generator: Adobe Illustrator 24.1.3, SVG Export Plug-In . SVG Version: 6.00 Build 0)  -->
<svg version="1.1" id="Layer_1" xmlns="http://www.w3.org/2000/svg" xmlns:xlink="http://www.w3.org/1999/xlink" x="0px" y="0px"
	 viewBox="0 0 20 20" style="enable-background:new 0 0 20 20;" xml:space="preserve">
<style type="text/css">
	.st0{fill:#374151;}
</style>
<path class="st0" d="M2,6c0-1.1,0.9-2,2-2h6c1.1,0,2,0.9,2,2v8c0,1.1-0.9,2-2,2H4c-1.1,0-2-0.9-2-2V6z"/>
<path class="st0" d="M14.6,7.1C14.2,7.3,14,7.6,14,8v4c0,0.4,0.2,0.7,0.6,0.9l2,1c0.3,0.2,0.7,0.1,1,0c0.3-0.2,0.5-0.5,0.5-0.9V7
	c0-0.3-0.2-0.7-0.5-0.9s-0.7-0.2-1,0L14.6,7.1z"/>
</svg>
