<?xml version="1.0" encoding="utf-8"?>
<!-- Generator: Adobe Illustrator 24.1.3, SVG Export Plug-In . SVG Version: 6.00 Build 0)  -->
<svg version="1.1" id="Layer_1" xmlns="http://www.w3.org/2000/svg" xmlns:xlink="http://www.w3.org/1999/xlink" x="0px" y="0px"
	 viewBox="0 0 20 20" style="enable-background:new 0 0 20 20;" xml:space="preserve">
<style type="text/css">
	.st0{fill-rule:evenodd;clip-rule:evenodd;fill:#4A5568;}
</style>
<path class="st0" d="M3,4c0-0.6,0.4-1,1-1h12c0.6,0,1,0.4,1,1s-0.4,1-1,1H4C3.4,5,3,4.6,3,4z M3,8c0-0.6,0.4-1,1-1h12
	c0.6,0,1,0.4,1,1s-0.4,1-1,1H4C3.4,9,3,8.6,3,8z M3,12c0-0.6,0.4-1,1-1h12c0.6,0,1,0.4,1,1s-0.4,1-1,1H4C3.4,13,3,12.6,3,12z M3,16
	c0-0.6,0.4-1,1-1h12c0.6,0,1,0.4,1,1c0,0.6-0.4,1-1,1H4C3.4,17,3,16.6,3,16z"/>
</svg>
