<?xml version="1.0" encoding="utf-8"?>
<!-- Generator: Adobe Illustrator 24.1.3, SVG Export Plug-In . SVG Version: 6.00 Build 0)  -->
<svg version="1.1" id="Layer_1" xmlns="http://www.w3.org/2000/svg" xmlns:xlink="http://www.w3.org/1999/xlink" x="0px" y="0px"
	 viewBox="0 0 20 20" style="enable-background:new 0 0 20 20;" xml:space="preserve">
<style type="text/css">
	.st0{fill:#4B5563;}
</style>
<path class="st0" d="M5,3C3.9,3,3,3.9,3,5v2c0,1.1,0.9,2,2,2h2c1.1,0,2-0.9,2-2V5c0-1.1-0.9-2-2-2H5z"/>
<path class="st0" d="M5,11c-1.1,0-2,0.9-2,2v2c0,1.1,0.9,2,2,2h2c1.1,0,2-0.9,2-2v-2c0-1.1-0.9-2-2-2H5z"/>
<path class="st0" d="M11,5c0-1.1,0.9-2,2-2h2c1.1,0,2,0.9,2,2v2c0,1.1-0.9,2-2,2h-2c-1.1,0-2-0.9-2-2V5z"/>
<path class="st0" d="M14,11c0.6,0,1,0.4,1,1v1h1c0.6,0,1,0.4,1,1s-0.4,1-1,1h-1v1c0,0.6-0.4,1-1,1s-1-0.4-1-1v-1h-1
	c-0.6,0-1-0.4-1-1s0.4-1,1-1h1v-1C13,11.4,13.4,11,14,11z"/>
</svg>
