<?xml version="1.0" encoding="utf-8"?>
<!-- Generator: Adobe Illustrator 24.1.3, SVG Export Plug-In . SVG Version: 6.00 Build 0)  -->
<svg version="1.1" id="Layer_1" xmlns="http://www.w3.org/2000/svg" xmlns:xlink="http://www.w3.org/1999/xlink" x="0px" y="0px"
	 viewBox="0 0 20 20" style="enable-background:new 0 0 20 20;" xml:space="preserve">
<style type="text/css">
	.st0{fill-rule:evenodd;clip-rule:evenodd;fill:#4A5568;}
</style>
<path class="st0" d="M9.4,3.1C9.8,3.2,10,3.6,10,4v12c0,0.4-0.2,0.8-0.6,0.9C9,17.1,8.6,17,8.3,16.7L4.6,13H2c-0.6,0-1-0.4-1-1V8
	c0-0.6,0.4-1,1-1h2.6l3.7-3.7C8.6,3,9,2.9,9.4,3.1z"/>
<path class="st0" d="M12.3,7.3c0.4-0.4,1-0.4,1.4,0L15,8.6l1.3-1.3c0.4-0.4,1-0.4,1.4,0c0.4,0.4,0.4,1,0,1.4L16.4,10l1.3,1.3
	c0.4,0.4,0.4,1,0,1.4c-0.4,0.4-1,0.4-1.4,0L15,11.4l-1.3,1.3c-0.4,0.4-1,0.4-1.4,0s-0.4-1,0-1.4l1.3-1.3l-1.3-1.3
	C11.9,8.3,11.9,7.7,12.3,7.3z"/>
</svg>
