<?xml version="1.0" encoding="utf-8"?>
<!-- Generator: Adobe Illustrator 24.1.3, SVG Export Plug-In . SVG Version: 6.00 Build 0)  -->
<svg version="1.1" id="Layer_1" xmlns="http://www.w3.org/2000/svg" xmlns:xlink="http://www.w3.org/1999/xlink" x="0px" y="0px"
	 viewBox="0 0 20 20" style="enable-background:new 0 0 20 20;" xml:space="preserve">
<style type="text/css">
	.st0{fill-rule:evenodd;clip-rule:evenodd;fill:#4A5568;}
</style>
<path class="st0" d="M9.4,3.1C9.8,3.2,10,3.6,10,4v12c0,0.4-0.2,0.8-0.6,0.9C9,17.1,8.6,17,8.3,16.7L4.6,13H2c-0.6,0-1-0.4-1-1V8
	c0-0.6,0.4-1,1-1h2.6l3.7-3.7C8.6,3,9,2.9,9.4,3.1z"/>
<path class="st0" d="M14.7,2.9c0.4-0.4,1-0.4,1.4,0C17.9,4.7,19,7.2,19,10s-1.1,5.3-2.9,7.1c-0.4,0.4-1,0.4-1.4,0
	c-0.4-0.4-0.4-1,0-1.4c1.4-1.4,2.3-3.4,2.3-5.7c0-2.2-0.9-4.2-2.3-5.7C14.3,4,14.3,3.3,14.7,2.9z M11.8,5.8c0.4-0.4,1-0.4,1.4,0
	c0.5,0.5,1,1.1,1.3,1.8C14.8,8.3,15,9.1,15,10c0,1.7-0.7,3.2-1.8,4.2c-0.4,0.4-1,0.4-1.4,0c-0.4-0.4-0.4-1,0-1.4
	c0.7-0.7,1.2-1.7,1.2-2.8c0-0.6-0.1-1.1-0.3-1.6c-0.2-0.5-0.5-0.9-0.8-1.2C11.4,6.8,11.4,6.1,11.8,5.8z"/>
</svg>
