<?xml version="1.0" encoding="utf-8"?>
<!-- Generator: Adobe Illustrator 24.1.3, SVG Export Plug-In . SVG Version: 6.00 Build 0)  -->
<svg version="1.1" id="Layer_1" xmlns="http://www.w3.org/2000/svg" xmlns:xlink="http://www.w3.org/1999/xlink" x="0px" y="0px"
	 viewBox="0 0 20 20" style="enable-background:new 0 0 20 20;" xml:space="preserve">
<style type="text/css">
	.st0{fill-rule:evenodd;clip-rule:evenodd;fill:#4A5568;}
</style>
<path class="st0" d="M4.3,4.3c0.4-0.4,1-0.4,1.4,0L10,8.6l4.3-4.3c0.4-0.4,1-0.4,1.4,0c0.4,0.4,0.4,1,0,1.4L11.4,10l4.3,4.3
	c0.4,0.4,0.4,1,0,1.4c-0.4,0.4-1,0.4-1.4,0L10,11.4l-4.3,4.3c-0.4,0.4-1,0.4-1.4,0c-0.4-0.4-0.4-1,0-1.4L8.6,10L4.3,5.7
	C3.9,5.3,3.9,4.7,4.3,4.3z"/>
</svg>
