<?xml version="1.0" encoding="utf-8"?>
<!-- Generator: Adobe Illustrator 24.1.3, SVG Export Plug-In . SVG Version: 6.00 Build 0)  -->
<svg version="1.1" id="Layer_1" xmlns="http://www.w3.org/2000/svg" xmlns:xlink="http://www.w3.org/1999/xlink" x="0px" y="0px"
	 viewBox="0 0 24 24" style="enable-background:new 0 0 24 24;" xml:space="preserve">
<style type="text/css">
	.st0{fill:#4A5568;}
</style>
<g>
	<path class="st0" d="M21,22c-0.3,0-0.5-0.1-0.7-0.3l-5.4-5.4C13.5,17.4,11.8,18,10,18c-4.4,0-8-3.6-8-8s3.6-8,8-8s8,3.6,8,8
		c0,1.8-0.6,3.5-1.7,4.9l5.4,5.4c0.4,0.4,0.4,1,0,1.4C21.5,21.9,21.3,22,21,22z M10,4c-3.3,0-6,2.7-6,6s2.7,6,6,6s6-2.7,6-6
		S13.3,4,10,4z"/>
</g>
<g>
	<path class="st0" d="M10,14c-0.6,0-1-0.4-1-1v-2H7c-0.6,0-1-0.4-1-1s0.4-1,1-1h2V7c0-0.6,0.4-1,1-1s1,0.4,1,1v2h2c0.6,0,1,0.4,1,1
		s-0.4,1-1,1h-2v2C11,13.6,10.6,14,10,14z"/>
</g>
</svg>
